AnekMalayalam-ExpandedExtraBold.ufo
<glyph name="exclam" format="2">
  <advance width="632"/>
  <unicode hex="0021"/>
  <outline>
    <contour>
      <point x="532" y="1278" type="line"/>
      <point x="100" y="1278" type="line"/>
      <point x="143" y="434" type="line"/>
      <point x="490" y="434" type="line"/>
    </contour>
    <contour>
      <point x="316" y="-33" type="curve" smooth="yes"/>
      <point x="462" y="-33"/>
      <point x="528" y="38"/>
      <point x="528" y="151" type="curve" smooth="yes"/>
      <point x="528" y="156" type="line" smooth="yes"/>
      <point x="528" y="270"/>
      <point x="462" y="342"/>
      <point x="316" y="342" type="curve" smooth="yes"/>
      <point x="170" y="342"/>
      <point x="105" y="270"/>
      <point x="105" y="156" type="curve" smooth="yes"/>
      <point x="105" y="151" type="line" smooth="yes"/>
      <point x="105" y="38"/>
      <point x="170" y="-33"/>
    </contour>
  </outline>
</glyph>
<glyph name="question" format="2">
  <advance width="1270"/>
  <unicode hex="003F"/>
  <outline>
    <contour>
      <point x="516" y="434" type="line" smooth="yes"/>
      <point x="946" y="448"/>
      <point x="1202" y="561"/>
      <point x="1202" y="880" type="curve"/>
      <point x="1202" y="894" type="line"/>
      <point x="1202" y="1177"/>
      <point x="990" y="1312"/>
      <point x="590" y="1312" type="curve" smooth="yes"/>
      <point x="371" y="1312"/>
      <point x="181" y="1264"/>
      <point x="78" y="1225" type="curve"/>
      <point x="32" y="902" type="line"/>
      <point x="204" y="954"/>
      <point x="380" y="988"/>
      <point x="540" y="988" type="curve" smooth="yes"/>
      <point x="740" y="988"/>
      <point x="789" y="955"/>
      <point x="789" y="878" type="curve" smooth="yes"/>
      <point x="789" y="873" type="line" smooth="yes"/>
      <point x="789" y="796"/>
      <point x="723" y="755"/>
      <point x="493" y="743" type="curve" smooth="yes"/>
      <point x="329" y="735" type="line"/>
      <point x="329" y="428" type="line"/>
    </contour>
    <contour>
      <point x="506" y="-35" type="curve" smooth="yes"/>
      <point x="655" y="-35"/>
      <point x="723" y="35"/>
      <point x="723" y="148" type="curve" smooth="yes"/>
      <point x="723" y="153" type="line" smooth="yes"/>
      <point x="723" y="267"/>
      <point x="655" y="339"/>
      <point x="506" y="339" type="curve" smooth="yes"/>
      <point x="356" y="339"/>
      <point x="289" y="267"/>
      <point x="289" y="153" type="curve" smooth="yes"/>
      <point x="289" y="148" type="line" smooth="yes"/>
      <point x="289" y="35"/>
      <point x="356" y="-35"/>
    </contour>
  </outline>
</glyph>
<glyph name="A" format="2">
  <advance width="1686"/>
  <unicode hex="0041"/>
  <anchor x="843" y="0" name="bottom"/>
  <anchor x="1700" y="10" name="ogonek"/>
  <anchor x="843" y="1278" name="top"/>
  <outline>
    <contour>
      <point x="432" y="0" type="line"/>
      <point x="832" y="1029" type="line"/>
      <point x="861" y="1029" type="line"/>
      <point x="1254" y="0" type="line"/>
      <point x="1674" y="0" type="line"/>
      <point x="1140" y="1278" type="line"/>
      <point x="553" y="1278" type="line"/>
      <point x="12" y="0" type="line"/>
    </contour>
    <contour>
      <point x="1234" y="274" type="line"/>
      <point x="1234" y="580" type="line"/>
      <point x="451" y="580" type="line"/>
      <point x="451" y="274" type="line"/>
    </contour>
  </outline>
</glyph>
<glyph name="O" format="2">
  <advance width="1734"/>
  <unicode hex="004F"/>
  <anchor x="867" y="0" name="bottom"/>
  <anchor x="867" y="639" name="center"/>
  <anchor x="1341" y="10" name="ogonek"/>
  <anchor x="867" y="1278" name="top"/>
  <anchor x="20" y="1278" name="topleft"/>
  <anchor x="1589" y="1278" name="topright"/>
  <outline>
    <contour>
      <point x="867" y="-45" type="curve" smooth="yes"/>
      <point x="1382" y="-45"/>
      <point x="1652" y="203"/>
      <point x="1652" y="632" type="curve"/>
      <point x="1652" y="646" type="line"/>
      <point x="1652" y="1075"/>
      <point x="1382" y="1323"/>
      <point x="867" y="1323" type="curve" smooth="yes"/>
      <point x="352" y="1323"/>
      <point x="82" y="1075"/>
      <point x="82" y="646" type="curve"/>
      <point x="82" y="632" type="line"/>
      <point x="82" y="203"/>
      <point x="352" y="-45"/>
    </contour>
    <contour>
      <point x="867" y="283" type="curve" smooth="yes"/>
      <point x="628" y="283"/>
      <point x="504" y="414"/>
      <point x="504" y="631" type="curve" smooth="yes"/>
      <point x="504" y="647" type="line" smooth="yes"/>
      <point x="504" y="864"/>
      <point x="628" y="995"/>
      <point x="867" y="995" type="curve" smooth="yes"/>
      <point x="1104" y="995"/>
      <point x="1230" y="864"/>
      <point x="1230" y="647" type="curve" smooth="yes"/>
      <point x="1230" y="631" type="line" smooth="yes"/>
      <point x="1230" y="414"/>
      <point x="1104" y="283"/>
    </contour>
  </outline>
</glyph>
<glyph name="S" format="2">
  <advance width="1467"/>
  <unicode hex="0053"/>
  <anchor x="729" y="0" name="bottom"/>
  <anchor x="729" y="1278" name="top"/>
  <outline>
    <contour>
      <point x="717" y="-36" type="curve" smooth="yes"/>
      <point x="1179" y="-36"/>
      <point x="1395" y="96"/>
      <point x="1395" y="394" type="curve"/>
      <point x="1395" y="405" type="line"/>
      <point x="1395" y="692"/>
      <point x="1181" y="763"/>
      <point x="791" y="803" type="curve" smooth="yes"/>
      <point x="528" y="830"/>
      <point x="483" y="854"/>
      <point x="483" y="912" type="curve"/>
      <point x="483" y="913" type="line"/>
      <point x="483" y="964"/>
      <point x="522" y="995"/>
      <point x="735" y="995" type="curve" smooth="yes"/>
      <point x="945" y="995"/>
      <point x="1151" y="954"/>
      <point x="1320" y="886" type="curve"/>
      <point x="1275" y="1216" type="line"/>
      <point x="1133" y="1271"/>
      <point x="952" y="1314"/>
      <point x="694" y="1314" type="curve" smooth="yes"/>
      <point x="282" y="1314"/>
      <point x="70" y="1184"/>
      <point x="70" y="917" type="curve"/>
      <point x="70" y="910" type="line"/>
      <point x="70" y="626"/>
      <point x="266" y="542"/>
      <point x="665" y="497" type="curve" smooth="yes"/>
      <point x="909" y="470"/>
      <point x="979" y="456"/>
      <point x="979" y="387" type="curve"/>
      <point x="979" y="383" type="line"/>
      <point x="979" y="316"/>
      <point x="916" y="294"/>
      <point x="714" y="294" type="curve" smooth="yes"/>
      <point x="478" y="294"/>
      <point x="244" y="361"/>
      <point x="85" y="425" type="curve"/>
      <point x="128" y="64" type="line"/>
      <point x="270" y="15"/>
      <point x="478" y="-36"/>
    </contour>
  </outline>
</glyph>
<glyph name="W" format="2">
  <advance width="2200"/>
  <unicode hex="0057"/>
  <anchor x="1100" y="0" name="bottom"/>
  <anchor x="1100" y="1278" name="top"/>
  <outline>
    <contour>
      <point x="905" y="0" type="line"/>
      <point x="1049" y="715" type="line"/>
      <point x="1089" y="911" type="line"/>
      <point x="1110" y="911" type="line"/>
      <point x="1149" y="715" type="line"/>
      <point x="1294" y="0" type="line"/>
      <point x="1856" y="0" type="line"/>
      <point x="2166" y="1278" type="line"/>
      <point x="1752" y="1278" type="line"/>
      <point x="1591" y="455" type="line"/>
      <point x="1568" y="339" type="line"/>
      <point x="1546" y="339" type="line"/>
      <point x="1521" y="457" type="line"/>
      <point x="1352" y="1242" type="line"/>
      <point x="847" y="1242" type="line"/>
      <point x="678" y="456" type="line"/>
      <point x="653" y="339" type="line"/>
      <point x="631" y="339" type="line"/>
      <point x="608" y="456" type="line"/>
      <point x="448" y="1278" type="line"/>
      <point x="34" y="1278" type="line"/>
      <point x="344" y="0" type="line"/>
    </contour>
  </outline>
</glyph>
<glyph name="b" format="2">
  <advance width="1486"/>
  <unicode hex="0062"/>
  <anchor x="743" y="0" name="bottom"/>
  <anchor x="743" y="1314" name="top"/>
  <outline>
    <contour>
      <point x="924" y="-32" type="curve" smooth="yes"/>
      <point x="1227" y="-32"/>
      <point x="1414" y="142"/>
      <point x="1414" y="473" type="curve" smooth="yes"/>
      <point x="1414" y="492" type="line" smooth="yes"/>
      <point x="1414" y="824"/>
      <point x="1231" y="997"/>
      <point x="932" y="997" type="curve" smooth="yes"/>
      <point x="670" y="997"/>
      <point x="554" y="878"/>
      <point x="519" y="712" type="curve"/>
      <point x="464" y="712" type="line"/>
      <point x="499" y="539" type="line"/>
      <point x="546" y="619"/>
      <point x="643" y="684"/>
      <point x="777" y="684" type="curve" smooth="yes"/>
      <point x="931" y="684"/>
      <point x="1012" y="616"/>
      <point x="1012" y="495" type="curve" smooth="yes"/>
      <point x="1012" y="475" type="line" smooth="yes"/>
      <point x="1012" y="356"/>
      <point x="919" y="292"/>
      <point x="768" y="292" type="curve" smooth="yes"/>
      <point x="591" y="292"/>
      <point x="513" y="367"/>
      <point x="508" y="482" type="curve"/>
      <point x="423" y="251" type="line"/>
      <point x="515" y="251" type="line"/>
      <point x="552" y="76"/>
      <point x="676" y="-32"/>
    </contour>
    <contour>
      <point x="515" y="0" type="line"/>
      <point x="501" y="283" type="line"/>
      <point x="508" y="310" type="line"/>
      <point x="508" y="584" type="line"/>
      <point x="506" y="603" type="line"/>
      <point x="512" y="961" type="line"/>
      <point x="512" y="1314" type="line"/>
      <point x="118" y="1314" type="line"/>
      <point x="118" y="0" type="line"/>
    </contour>
  </outline>
</glyph>
<glyph name="f" format="2">
  <advance width="969"/>
  <unicode hex="0066"/>
  <anchor x="485" y="0" name="bottom"/>
  <anchor x="485" y="1291" name="top"/>
  <outline>
    <contour>
      <point x="570" y="1349" type="curve" smooth="yes"/>
      <point x="260" y="1349"/>
      <point x="126" y="1263"/>
      <point x="126" y="1102" type="curve" smooth="yes"/>
      <point x="126" y="1097" type="line" smooth="yes"/>
      <point x="126" y="984"/>
      <point x="200" y="926"/>
      <point x="288" y="904" type="curve"/>
      <point x="288" y="868" type="line"/>
      <point x="540" y="884" type="line"/>
      <point x="524" y="900"/>
      <point x="514" y="920"/>
      <point x="514" y="946" type="curve" smooth="yes"/>
      <point x="514" y="949" type="line" smooth="yes"/>
      <point x="514" y="1005"/>
      <point x="535" y="1050"/>
      <point x="713" y="1050" type="curve" smooth="yes"/>
      <point x="809" y="1050"/>
      <point x="893" y="1036"/>
      <point x="971" y="1018" type="curve"/>
      <point x="932" y="1301" type="line"/>
      <point x="836" y="1329"/>
      <point x="703" y="1349"/>
    </contour>
    <contour>
      <point x="563" y="0" type="line"/>
      <point x="563" y="784" type="line"/>
      <point x="168" y="784" type="line"/>
      <point x="168" y="0" type="line"/>
    </contour>
    <contour>
      <point x="929" y="595" type="line"/>
      <point x="968" y="897" type="line"/>
      <point x="482" y="897" type="line"/>
      <point x="341" y="893" type="line"/>
      <point x="8" y="897" type="line"/>
      <point x="8" y="595" type="line"/>
    </contour>
  </outline>
</glyph>
<glyph name="j" format="2">
  <advance width="654"/>
  <unicode hex="006A"/>
  <outline>
    <component base="jbottom"/>
    <contour>
      <point x="536" y="172" type="line"/>
      <point x="536" y="963" type="line"/>
      <point x="139" y="963" type="line"/>
      <point x="139" y="172" type="line"/>
    </contour>
    <contour>
      <point x="338" y="1050" type="curve" smooth="yes"/>
      <point x="482" y="1050"/>
      <point x="546" y="1113"/>
      <point x="546" y="1220" type="curve" smooth="yes"/>
      <point x="546" y="1225" type="line" smooth="yes"/>
      <point x="546" y="1329"/>
      <point x="482" y="1395"/>
      <point x="338" y="1395" type="curve" smooth="yes"/>
      <point x="192" y="1395"/>
      <point x="130" y="1328"/>
      <point x="130" y="1225" type="curve" smooth="yes"/>
      <point x="130" y="1220" type="line" smooth="yes"/>
      <point x="130" y="1116"/>
      <point x="192" y="1050"/>
    </contour>
  </outline>
</glyph>
<glyph name="l" format="2">
  <advance width="633"/>
  <unicode hex="006C"/>
  <anchor x="317" y="0" name="bottom"/>
  <anchor x="317" y="646" name="center"/>
  <anchor x="317" y="1314" name="top"/>
  <anchor x="613" y="1314" name="topright"/>
  <outline>
    <contour>
      <point x="515" y="0" type="line"/>
      <point x="515" y="1314" type="line"/>
      <point x="118" y="1314" type="line"/>
      <point x="118" y="0" type="line"/>
    </contour>
  </outline>
</glyph>
<glyph name="m" format="2">
  <advance width="2172"/>
  <unicode hex="006D"/>
  <anchor x="1086" y="0" name="bottom"/>
  <anchor x="1086" y="963" name="top"/>
  <outline>
    <contour>
      <point x="2064" y="0" type="line"/>
      <point x="2064" y="575" type="line" smooth="yes"/>
      <point x="2064" y="849"/>
      <point x="1930" y="997"/>
      <point x="1671" y="997" type="curve" smooth="yes"/>
      <point x="1423" y="997"/>
      <point x="1316" y="865"/>
      <point x="1279" y="710" type="curve"/>
      <point x="1243" y="710" type="line"/>
      <point x="1279" y="541" type="line"/>
      <point x="1318" y="611"/>
      <point x="1375" y="671"/>
      <point x="1491" y="671" type="curve" smooth="yes"/>
      <point x="1646" y="671"/>
      <point x="1667" y="562"/>
      <point x="1667" y="468" type="curve" smooth="yes"/>
      <point x="1667" y="0" type="line"/>
    </contour>
    <contour>
      <point x="515" y="0" type="line"/>
      <point x="515" y="603" type="line"/>
      <point x="501" y="673" type="line"/>
      <point x="515" y="963" type="line"/>
      <point x="118" y="963" type="line"/>
      <point x="118" y="0" type="line"/>
    </contour>
    <contour>
      <point x="1290" y="0" type="line"/>
      <point x="1290" y="561" type="line" smooth="yes"/>
      <point x="1290" y="591"/>
      <point x="1279" y="646"/>
      <point x="1275" y="676" type="curve"/>
      <point x="1249" y="879"/>
      <point x="1128" y="997"/>
      <point x="900" y="997" type="curve" smooth="yes"/>
      <point x="659" y="997"/>
      <point x="544" y="872"/>
      <point x="514" y="712" type="curve"/>
      <point x="457" y="712" type="line"/>
      <point x="505" y="541" type="line"/>
      <point x="544" y="611"/>
      <point x="601" y="671"/>
      <point x="718" y="671" type="curve" smooth="yes"/>
      <point x="861" y="671"/>
      <point x="893" y="577"/>
      <point x="893" y="468" type="curve" smooth="yes"/>
      <point x="893" y="0" type="line"/>
    </contour>
  </outline>
</glyph>
<glyph name="t" format="2">
  <advance width="1053"/>
  <unicode hex="0074"/>
  <anchor x="564" y="0" name="bottom"/>
  <anchor x="527" y="482" name="center"/>
  <anchor x="367" y="1202" name="top"/>
  <anchor x="713" y="1430" name="topright"/>
  <outline>
    <contour>
      <point x="626" y="-28" type="curve" smooth="yes"/>
      <point x="766" y="-28"/>
      <point x="887" y="-4"/>
      <point x="978" y="37" type="curve"/>
      <point x="1017" y="347" type="line"/>
      <point x="947" y="320"/>
      <point x="846" y="297"/>
      <point x="761" y="297" type="curve" smooth="yes"/>
      <point x="594" y="297"/>
      <point x="559" y="348"/>
      <point x="559" y="461" type="curve" smooth="yes"/>
      <point x="559" y="776" type="line"/>
      <point x="164" y="776" type="line"/>
      <point x="164" y="415" type="line" smooth="yes"/>
      <point x="164" y="125"/>
      <point x="268" y="-28"/>
    </contour>
    <contour>
      <point x="972" y="661" type="line"/>
      <point x="1012" y="963" type="line"/>
      <point x="4" y="963" type="line"/>
      <point x="4" y="661" type="line"/>
    </contour>
    <contour>
      <point x="550" y="933" type="line"/>
      <point x="563" y="1229" type="line"/>
      <point x="171" y="1202" type="line"/>
      <point x="173" y="933" type="line"/>
    </contour>
  </outline>
</glyph>
<glyph name="braceleft" format="2">
  <advance width="831"/>
  <unicode hex="007B"/>
  <outline>
    <contour>
      <point x="771" y="1326" type="line"/>
      <point x="719" y="1340"/>
      <point x="641" y="1353"/>
      <point x="561" y="1353" type="curve" smooth="yes"/>
      <point x="315" y="1353"/>
      <point x="200" y="1260"/>
      <point x="200" y="1027" type="curve" smooth="yes"/>
      <point x="200" y="967"/>
      <point x="212" y="854"/>
      <point x="212" y="796" type="curve" smooth="yes"/>
      <point x="212" y="724"/>
      <point x="175" y="687"/>
      <point x="68" y="685" type="curve"/>
      <point x="68" y="397" type="line"/>
      <point x="175" y="395"/>
      <point x="212" y="360"/>
      <point x="212" y="288" type="curve" smooth="yes"/>
      <point x="212" y="230"/>
      <point x="200" y="117"/>
      <point x="200" y="57" type="curve" smooth="yes"/>
      <point x="200" y="-178"/>
      <point x="315" y="-272"/>
      <point x="561" y="-272" type="curve" smooth="yes"/>
      <point x="641" y="-272"/>
      <point x="719" y="-260"/>
      <point x="771" y="-246" type="curve"/>
      <point x="771" y="16" type="line"/>
      <point x="746" y="11"/>
      <point x="716" y="5"/>
      <point x="680" y="5" type="curve" smooth="yes"/>
      <point x="593" y="5"/>
      <point x="556" y="34"/>
      <point x="556" y="109" type="curve" smooth="yes"/>
      <point x="556" y="167"/>
      <point x="568" y="265"/>
      <point x="568" y="331" type="curve" smooth="yes"/>
      <point x="568" y="442"/>
      <point x="521" y="518"/>
      <point x="374" y="537" type="curve"/>
      <point x="381" y="505" type="line"/>
      <point x="381" y="548" type="line"/>
      <point x="522" y="568"/>
      <point x="568" y="643"/>
      <point x="568" y="753" type="curve" smooth="yes"/>
      <point x="568" y="819"/>
      <point x="556" y="917"/>
      <point x="556" y="975" type="curve" smooth="yes"/>
      <point x="556" y="1050"/>
      <point x="591" y="1079"/>
      <point x="673" y="1079" type="curve" smooth="yes"/>
      <point x="712" y="1079"/>
      <point x="744" y="1073"/>
      <point x="771" y="1068" type="curve"/>
    </contour>
  </outline>
</glyph>
<glyph name="exclamdown" format="2">
  <advance width="632"/>
  <unicode hex="00A1"/>
  <outline>
    <contour>
      <point x="532" y="-315" type="line"/>
      <point x="100" y="-315" type="line"/>
      <point x="143" y="529" type="line"/>
      <point x="490" y="529" type="line"/>
    </contour>
    <contour>
      <point x="316" y="996" type="curve" smooth="yes"/>
      <point x="462" y="996"/>
      <point x="528" y="925"/>
      <point x="528" y="812" type="curve" smooth="yes"/>
      <point x="528" y="807" type="line" smooth="yes"/>
      <point x="528" y="693"/>
      <point x="462" y="621"/>
      <point x="316" y="621" type="curve" smooth="yes"/>
      <point x="170" y="621"/>
      <point x="105" y="693"/>
      <point x="105" y="807" type="curve" smooth="yes"/>
      <point x="105" y="812" type="line" smooth="yes"/>
      <point x="105" y="925"/>
      <point x="170" y="996"/>
    </contour>
  </outline>
</glyph>
<glyph name="ordmasculine" format="2">
  <advance width="880"/>
  <unicode hex="00BA"/>
  <outline>
    <contour>
      <point x="439" y="621" type="curve" smooth="yes"/>
      <point x="697" y="621"/>
      <point x="836" y="740"/>
      <point x="836" y="951" type="curve"/>
      <point x="836" y="964" type="line"/>
      <point x="836" y="1173"/>
      <point x="698" y="1294"/>
      <point x="439" y="1294" type="curve" smooth="yes"/>
      <point x="184" y="1294"/>
      <point x="44" y="1174"/>
      <point x="44" y="964" type="curve"/>
      <point x="44" y="951" type="line"/>
      <point x="44" y="740"/>
      <point x="183" y="621"/>
    </contour>
    <contour>
      <point x="439" y="831" type="curve" smooth="yes"/>
      <point x="360" y="831"/>
      <point x="316" y="871"/>
      <point x="316" y="954" type="curve" smooth="yes"/>
      <point x="316" y="961" type="line" smooth="yes"/>
      <point x="316" y="1043"/>
      <point x="360" y="1084"/>
      <point x="439" y="1084" type="curve" smooth="yes"/>
      <point x="520" y="1084"/>
      <point x="564" y="1043"/>
      <point x="564" y="961" type="curve" smooth="yes"/>
      <point x="564" y="954" type="line" smooth="yes"/>
      <point x="564" y="871"/>
      <point x="520" y="831"/>
    </contour>
  </outline>
</glyph>
<glyph name="ae" format="2">
  <advance width="2159"/>
  <unicode hex="00E6"/>
  <anchor x="1080" y="0" name="bottom"/>
  <anchor x="1080" y="963" name="top"/>
  <outline>
    <contour>
      <point x="1540" y="-39" type="curve" smooth="yes"/>
      <point x="1746" y="-39"/>
      <point x="1913" y="-7"/>
      <point x="2035" y="48" type="curve"/>
      <point x="2072" y="317" type="line"/>
      <point x="1921" y="271"/>
      <point x="1766" y="247"/>
      <point x="1609" y="247" type="curve" smooth="yes"/>
      <point x="1273" y="247"/>
      <point x="1244" y="358"/>
      <point x="1244" y="425" type="curve"/>
      <point x="1244" y="487" type="line"/>
      <point x="1241" y="513" type="line"/>
      <point x="1241" y="550" type="line" smooth="yes"/>
      <point x="1241" y="666"/>
      <point x="1321" y="739"/>
      <point x="1483" y="739" type="curve" smooth="yes"/>
      <point x="1650" y="739"/>
      <point x="1728" y="670"/>
      <point x="1728" y="552" type="curve" smooth="yes"/>
      <point x="1728" y="510"/>
      <point x="1723" y="438"/>
      <point x="1714" y="383" type="curve"/>
      <point x="2077" y="383" type="line"/>
      <point x="2084" y="418"/>
      <point x="2090" y="474"/>
      <point x="2090" y="522" type="curve"/>
      <point x="2090" y="536" type="line"/>
      <point x="2090" y="822"/>
      <point x="1885" y="1007"/>
      <point x="1498" y="1007" type="curve" smooth="yes"/>
      <point x="1265" y="1007"/>
      <point x="1123" y="920"/>
      <point x="1061" y="828" type="curve"/>
      <point x="1046" y="828" type="line"/>
      <point x="984" y="912"/>
      <point x="857" y="1000"/>
      <point x="624" y="1000" type="curve" smooth="yes"/>
      <point x="438" y="1000"/>
      <point x="279" y="961"/>
      <point x="158" y="910" type="curve"/>
      <point x="119" y="630" type="line"/>
      <point x="268" y="678"/>
      <point x="422" y="719"/>
      <point x="594" y="719" type="curve" smooth="yes"/>
      <point x="780" y="719"/>
      <point x="858" y="673"/>
      <point x="858" y="582" type="curve"/>
      <point x="862" y="524" type="line"/>
      <point x="862" y="453"/>
      <point x="862" y="381"/>
      <point x="862" y="310" type="curve"/>
      <point x="920" y="242" type="line"/>
      <point x="991" y="75"/>
      <point x="1187" y="-39"/>
    </contour>
    <contour>
      <point x="464" y="-32" type="curve" smooth="yes"/>
      <point x="738" y="-32"/>
      <point x="874" y="59"/>
      <point x="953" y="162" type="curve"/>
      <point x="1033" y="162" type="line"/>
      <point x="876" y="357" type="line"/>
      <point x="829" y="294"/>
      <point x="732" y="239"/>
      <point x="580" y="239" type="curve" smooth="yes"/>
      <point x="475" y="239"/>
      <point x="442" y="267"/>
      <point x="442" y="309" type="curve"/>
      <point x="442" y="312" type="line"/>
      <point x="442" y="357"/>
      <point x="478" y="379"/>
      <point x="562" y="387" type="curve" smooth="yes"/>
      <point x="892" y="418" type="line"/>
      <point x="884" y="614" type="line"/>
      <point x="535" y="588" type="line" smooth="yes"/>
      <point x="229" y="565"/>
      <point x="58" y="489"/>
      <point x="58" y="270" type="curve"/>
      <point x="58" y="263" type="line"/>
      <point x="58" y="78"/>
      <point x="194" y="-32"/>
    </contour>
    <contour>
      <point x="2001" y="383" type="line"/>
      <point x="2001" y="594" type="line"/>
      <point x="1052" y="594" type="line"/>
      <point x="1052" y="383" type="line"/>
    </contour>
  </outline>
</glyph>
<glyph name="idotless" format="2">
  <advance width="632"/>
  <unicode hex="0131"/>
  <anchor x="316" y="0" name="bottom"/>
  <anchor x="555" y="10" name="ogonek"/>
  <anchor x="316" y="963" name="top"/>
  <outline>
    <contour>
      <point x="514" y="0" type="line"/>
      <point x="514" y="963" type="line"/>
      <point x="118" y="963" type="line"/>
      <point x="118" y="0" type="line"/>
    </contour>
  </outline>
</glyph>
<glyph name="gravecomb" format="2">
  <advance width="846"/>
  <unicode hex="0300"/>
  <anchor x="576" y="963" name="_top"/>
  <anchor x="437" y="1374" name="top"/>
  <outline>
    <contour>
      <point x="762" y="1079" type="line"/>
      <point x="762" y="1073" type="line"/>
      <point x="418" y="1073" type="line"/>
      <point x="112" y="1378" type="line"/>
      <point x="112" y="1385" type="line"/>
      <point x="538" y="1385" type="line"/>
    </contour>
  </outline>
</glyph>
<glyph name="macroncomb" format="2">
  <advance width="976"/>
  <unicode hex="0304"/>
  <anchor x="488" y="963" name="_top"/>
  <anchor x="488" y="1323" name="top"/>
  <outline>
    <contour>
      <point x="886" y="1095" type="line"/>
      <point x="886" y="1321" type="line"/>
      <point x="90" y="1321" type="line"/>
      <point x="90" y="1095" type="line"/>
    </contour>
  </outline>
</glyph>
<glyph name="dotaccentcomb" format="2">
  <advance width="604"/>
  <unicode hex="0307"/>
  <anchor x="302" y="963" name="_top"/>
  <anchor x="302" y="1361" name="top"/>
  <outline>
    <contour>
      <point x="301" y="1063" type="curve" smooth="yes"/>
      <point x="440" y="1063"/>
      <point x="504" y="1129"/>
      <point x="504" y="1230" type="curve" smooth="yes"/>
      <point x="504" y="1237" type="line" smooth="yes"/>
      <point x="504" y="1340"/>
      <point x="440" y="1408"/>
      <point x="301" y="1408" type="curve" smooth="yes"/>
      <point x="164" y="1408"/>
      <point x="100" y="1340"/>
      <point x="100" y="1237" type="curve" smooth="yes"/>
      <point x="100" y="1230" type="line" smooth="yes"/>
      <point x="100" y="1129"/>
      <point x="164" y="1063"/>
    </contour>
  </outline>
</glyph>
<glyph name="combininganusvaraabovesign.mlm" format="2">
  <unicode hex="0D00"/>
  <outline>
    <contour>
      <point x="-1213" y="1544" type="line" smooth="yes"/>
      <point x="-1213" y="1352"/>
      <point x="-1075" y="1246"/>
      <point x="-818" y="1246" type="curve" smooth="yes"/>
      <point x="-563" y="1246"/>
      <point x="-426" y="1352"/>
      <point x="-426" y="1544" type="curve" smooth="yes"/>
      <point x="-426" y="1547" type="line" smooth="yes"/>
      <point x="-426" y="1739"/>
      <point x="-563" y="1844"/>
      <point x="-818" y="1844" type="curve" smooth="yes"/>
      <point x="-1075" y="1844"/>
      <point x="-1213" y="1739"/>
      <point x="-1213" y="1547" type="curve" smooth="yes"/>
    </contour>
    <contour>
      <point x="-722" y="1542" type="line" smooth="yes"/>
      <point x="-722" y="1496"/>
      <point x="-756" y="1468"/>
      <point x="-818" y="1468" type="curve" smooth="yes"/>
      <point x="-881" y="1468"/>
      <point x="-917" y="1496"/>
      <point x="-917" y="1542" type="curve" smooth="yes"/>
      <point x="-917" y="1549" type="line" smooth="yes"/>
      <point x="-917" y="1597"/>
      <point x="-881" y="1623"/>
      <point x="-818" y="1623" type="curve" smooth="yes"/>
      <point x="-756" y="1623"/>
      <point x="-722" y="1597"/>
      <point x="-722" y="1549" type="curve" smooth="yes"/>
    </contour>
  </outline>
</glyph>
<glyph name="Chandrabindu.mlm" format="2">
  <unicode hex="0D01"/>
  <outline>
    <contour>
      <point x="-729" y="1524" type="curve" smooth="yes"/>
      <point x="-910" y="1524"/>
      <point x="-996" y="1609.4"/>
      <point x="-996" y="1761" type="curve" smooth="yes"/>
      <point x="-996" y="1799" type="line"/>
      <point x="-1278" y="1799" type="line"/>
      <point x="-1278" y="1750" type="line" smooth="yes"/>
      <point x="-1278" y="1441.66"/>
      <point x="-1077" y="1287"/>
      <point x="-729" y="1287" type="curve" smooth="yes"/>
      <point x="-382" y="1287"/>
      <point x="-181" y="1441.66"/>
      <point x="-181" y="1750" type="curve" smooth="yes"/>
      <point x="-181" y="1799" type="line"/>
      <point x="-463" y="1799" type="line"/>
      <point x="-463" y="1761" type="line" smooth="yes"/>
      <point x="-463" y="1609.4"/>
      <point x="-548" y="1524"/>
    </contour>
    <contour>
      <point x="-894" y="1806" type="line" smooth="yes"/>
      <point x="-894" y="1690"/>
      <point x="-835" y="1626"/>
      <point x="-729" y="1626" type="curve" smooth="yes"/>
      <point x="-625" y="1626"/>
      <point x="-565" y="1690"/>
      <point x="-565" y="1806" type="curve" smooth="yes"/>
      <point x="-565" y="1811" type="line" smooth="yes"/>
      <point x="-565" y="1931"/>
      <point x="-625" y="1991"/>
      <point x="-729" y="1991" type="curve" smooth="yes"/>
      <point x="-835" y="1991"/>
      <point x="-894" y="1931"/>
      <point x="-894" y="1811" type="curve" smooth="yes"/>
    </contour>
  </outline>
</glyph>
<glyph name="Anuswara.mlm" format="2">
  <advance width="1214"/>
  <unicode hex="0D02"/>
  <outline>
    <contour>
      <point x="782" y="387" type="curve" smooth="yes"/>
      <point x="782" y="380" type="line" smooth="yes"/>
      <point x="782" y="297"/>
      <point x="721" y="252"/>
      <point x="607" y="252" type="curve" smooth="yes"/>
      <point x="493" y="252"/>
      <point x="432" y="297"/>
      <point x="432" y="380" type="curve" smooth="yes"/>
      <point x="432" y="387" type="line" smooth="yes"/>
      <point x="432" y="470"/>
      <point x="493" y="515"/>
      <point x="607" y="515" type="curve" smooth="yes"/>
      <point x="721" y="515"/>
      <point x="782" y="470"/>
    </contour>
    <contour>
      <point x="75" y="389" type="curve" smooth="yes"/>
      <point x="75" y="378" type="line" smooth="yes"/>
      <point x="75" y="104"/>
      <point x="259" y="-40"/>
      <point x="607" y="-40" type="curve" smooth="yes"/>
      <point x="955" y="-40"/>
      <point x="1139" y="104"/>
      <point x="1139" y="378" type="curve" smooth="yes"/>
      <point x="1139" y="389" type="line" smooth="yes"/>
      <point x="1139" y="663"/>
      <point x="955" y="807"/>
      <point x="607" y="807" type="curve" smooth="yes"/>
      <point x="259" y="807"/>
      <point x="75" y="663"/>
    </contour>
  </outline>
</glyph>
<glyph name="Visarga.mlm" format="2">
  <advance width="942"/>
  <unicode hex="0D03"/>
  <outline>
    <contour>
      <point x="561" y="257" type="curve" smooth="yes"/>
      <point x="561" y="250" type="line" smooth="yes"/>
      <point x="561" y="215"/>
      <point x="529" y="199"/>
      <point x="471" y="199" type="curve" smooth="yes"/>
      <point x="411" y="199"/>
      <point x="381" y="215"/>
      <point x="381" y="250" type="curve" smooth="yes"/>
      <point x="381" y="257" type="line" smooth="yes"/>
      <point x="381" y="292"/>
      <point x="411" y="309"/>
      <point x="471" y="309" type="curve" smooth="yes"/>
      <point x="529" y="309"/>
      <point x="561" y="292"/>
    </contour>
    <contour>
      <point x="60" y="259" type="curve" smooth="yes"/>
      <point x="60" y="249" type="line" smooth="yes"/>
      <point x="60" y="55"/>
      <point x="199" y="-42"/>
      <point x="471" y="-42" type="curve" smooth="yes"/>
      <point x="741" y="-42"/>
      <point x="882" y="55"/>
      <point x="882" y="249" type="curve" smooth="yes"/>
      <point x="882" y="259" type="line" smooth="yes"/>
      <point x="882" y="453"/>
      <point x="741" y="549"/>
      <point x="471" y="549" type="curve" smooth="yes"/>
      <point x="199" y="549"/>
      <point x="60" y="453"/>
    </contour>
    <contour>
      <point x="559" y="902" type="curve" smooth="yes"/>
      <point x="559" y="895" type="line" smooth="yes"/>
      <point x="559" y="862"/>
      <point x="528" y="845"/>
      <point x="471" y="845" type="curve" smooth="yes"/>
      <point x="413" y="845"/>
      <point x="383" y="862"/>
      <point x="383" y="895" type="curve" smooth="yes"/>
      <point x="383" y="902" type="line" smooth="yes"/>
      <point x="383" y="935"/>
      <point x="413" y="952"/>
      <point x="471" y="952" type="curve" smooth="yes"/>
      <point x="528" y="952"/>
      <point x="559" y="935"/>
    </contour>
    <contour>
      <point x="62" y="903" type="curve" smooth="yes"/>
      <point x="62" y="893" type="line" smooth="yes"/>
      <point x="62" y="701"/>
      <point x="201" y="604"/>
      <point x="471" y="604" type="curve" smooth="yes"/>
      <point x="740" y="604"/>
      <point x="880" y="701"/>
      <point x="880" y="893" type="curve" smooth="yes"/>
      <point x="880" y="903" type="line" smooth="yes"/>
      <point x="880" y="1095"/>
      <point x="740" y="1192"/>
      <point x="471" y="1192" type="curve" smooth="yes"/>
      <point x="201" y="1192"/>
      <point x="62" y="1095"/>
    </contour>
  </outline>
</glyph>
<glyph name="uni0D04" format="2">
  <advance width="1595"/>
  <unicode hex="0D04"/>
  <outline>
    <contour>
      <point x="797" y="1075" type="curve" smooth="yes"/>
      <point x="679" y="1075"/>
      <point x="612" y="1005"/>
      <point x="612" y="855" type="curve" smooth="yes"/>
      <point x="612" y="801" type="line" smooth="yes"/>
      <point x="612" y="651"/>
      <point x="679" y="581"/>
      <point x="797" y="581" type="curve" smooth="yes"/>
      <point x="915" y="581"/>
      <point x="982" y="651"/>
      <point x="982" y="801" type="curve" smooth="yes"/>
      <point x="982" y="855" type="line" smooth="yes"/>
      <point x="982" y="1005"/>
      <point x="915" y="1075"/>
    </contour>
    <contour>
      <point x="797" y="74" type="curve" smooth="yes"/>
      <point x="1263" y="74"/>
      <point x="1507" y="278"/>
      <point x="1507" y="722" type="curve" smooth="yes"/>
      <point x="1507" y="845" type="line"/>
      <point x="1151" y="845" type="line"/>
      <point x="1151" y="750" type="line" smooth="yes"/>
      <point x="1151" y="498"/>
      <point x="1043" y="382"/>
      <point x="797" y="382" type="curve" smooth="yes"/>
      <point x="551" y="382"/>
      <point x="444" y="498"/>
      <point x="444" y="750" type="curve" smooth="yes"/>
      <point x="444" y="845" type="line"/>
      <point x="88" y="845" type="line"/>
      <point x="88" y="722" type="line" smooth="yes"/>
      <point x="88" y="278"/>
      <point x="331" y="74"/>
    </contour>
  </outline>
</glyph>
<glyph name="vowelA.mlm" format="2">
  <advance width="3706"/>
  <unicode hex="0D05"/>
  <outline>
    <contour>
      <point x="2012" y="4" type="line"/>
      <point x="2384" y="4" type="line"/>
      <point x="2384" y="479" type="line"/>
      <point x="2012" y="503" type="line"/>
    </contour>
    <contour>
      <point x="2194" y="857" type="line"/>
      <point x="2161" y="1031"/>
      <point x="1997" y="1184"/>
      <point x="1666" y="1184" type="curve" smooth="yes"/>
      <point x="1485" y="1184"/>
      <point x="1364" y="1139"/>
      <point x="1302" y="1102" type="curve"/>
      <point x="1416" y="894" type="line"/>
      <point x="1471" y="908"/>
      <point x="1548" y="915"/>
      <point x="1636" y="915" type="curve" smooth="yes"/>
      <point x="1872" y="915"/>
      <point x="2012" y="790"/>
      <point x="2012" y="537" type="curve" smooth="yes"/>
      <point x="2012" y="410" type="line"/>
      <point x="2213" y="410" type="line"/>
    </contour>
    <contour>
      <point x="471" y="477" type="line" smooth="yes"/>
      <point x="471" y="752"/>
      <point x="603" y="892"/>
      <point x="971" y="892" type="curve" smooth="yes"/>
      <point x="1037" y="892"/>
      <point x="1095" y="887"/>
      <point x="1149" y="882" type="curve" smooth="yes"/>
      <point x="1188" y="878"/>
      <point x="1222" y="869"/>
      <point x="1254" y="866" type="curve" smooth="yes"/>
      <point x="1375" y="853"/>
      <point x="1421" y="816"/>
      <point x="1421" y="767" type="curve" smooth="yes"/>
      <point x="1421" y="764" type="line" smooth="yes"/>
      <point x="1421" y="722"/>
      <point x="1393" y="701"/>
      <point x="1330" y="695" type="curve" smooth="yes"/>
      <point x="1241" y="687" type="line"/>
      <point x="1241" y="408" type="line"/>
      <point x="1358" y="403" type="line" smooth="yes"/>
      <point x="1437" y="400"/>
      <point x="1467" y="382"/>
      <point x="1467" y="338" type="curve" smooth="yes"/>
      <point x="1467" y="334" type="line" smooth="yes"/>
      <point x="1467" y="278"/>
      <point x="1418" y="250"/>
      <point x="1312" y="250" type="curve" smooth="yes"/>
      <point x="1145" y="250"/>
      <point x="1068" y="334"/>
      <point x="1068" y="517" type="curve" smooth="yes"/>
      <point x="1068" y="530" type="line" smooth="yes"/>
      <point x="1068" y="683"/>
      <point x="1140" y="820"/>
      <point x="1307" y="873" type="curve"/>
      <point x="1018" y="945" type="line"/>
      <point x="818" y="885"/>
      <point x="700" y="713"/>
      <point x="700" y="488" type="curve" smooth="yes"/>
      <point x="700" y="479" type="line" smooth="yes"/>
      <point x="700" y="138"/>
      <point x="893" y="-39"/>
      <point x="1307" y="-39" type="curve" smooth="yes"/>
      <point x="1664" y="-39"/>
      <point x="1842" y="85"/>
      <point x="1842" y="303" type="curve" smooth="yes"/>
      <point x="1842" y="310" type="line" smooth="yes"/>
      <point x="1842" y="447"/>
      <point x="1755" y="536"/>
      <point x="1546" y="552" type="curve"/>
      <point x="1546" y="561" type="line"/>
      <point x="1708" y="575"/>
      <point x="1789" y="640"/>
      <point x="1789" y="739" type="curve" smooth="yes"/>
      <point x="1789" y="746" type="line" smooth="yes"/>
      <point x="1789" y="825"/>
      <point x="1726" y="905"/>
      <point x="1571" y="935" type="curve"/>
      <point x="1443" y="1044" type="line" smooth="yes"/>
      <point x="1346" y="1127"/>
      <point x="1169" y="1184"/>
      <point x="921" y="1184" type="curve" smooth="yes"/>
      <point x="367" y="1184"/>
      <point x="94" y="942"/>
      <point x="94" y="477" type="curve" smooth="yes"/>
      <point x="94" y="459" type="line" smooth="yes"/>
      <point x="94" y="290"/>
      <point x="140" y="114"/>
      <point x="214" y="0" type="curve"/>
      <point x="598" y="0" type="line"/>
      <point x="510" y="158"/>
      <point x="471" y="299"/>
      <point x="471" y="459" type="curve" smooth="yes"/>
    </contour>
    <contour>
      <point x="2840" y="1184" type="curve" smooth="yes"/>
      <point x="2453" y="1184"/>
      <point x="2259" y="1045"/>
      <point x="2204" y="857" type="curve"/>
      <point x="2152" y="857" type="line"/>
      <point x="2166" y="493" type="line"/>
      <point x="2384" y="431" type="line"/>
      <point x="2384" y="539" type="line" smooth="yes"/>
      <point x="2384" y="770"/>
      <point x="2534" y="884"/>
      <point x="2817" y="884" type="curve" smooth="yes"/>
      <point x="3123" y="884"/>
      <point x="3249" y="745"/>
      <point x="3260" y="574" type="curve"/>
      <point x="3260" y="574" type="line"/>
      <point x="3249" y="574" type="line"/>
      <point x="3259" y="486" type="line"/>
      <point x="3259" y="473" type="line" smooth="yes"/>
      <point x="3259" y="313"/>
      <point x="3208" y="246"/>
      <point x="3090" y="246" type="curve" smooth="yes"/>
      <point x="2993" y="246"/>
      <point x="2940" y="296"/>
      <point x="2940" y="370" type="curve" smooth="yes"/>
      <point x="2940" y="378" type="line" smooth="yes"/>
      <point x="2940" y="459"/>
      <point x="2995" y="505"/>
      <point x="3097" y="505" type="curve" smooth="yes"/>
      <point x="3162" y="505"/>
      <point x="3216" y="488"/>
      <point x="3262" y="458" type="curve"/>
      <point x="3260" y="551" type="line"/>
      <point x="3218" y="674"/>
      <point x="3113" y="759"/>
      <point x="2949" y="759" type="curve" smooth="yes"/>
      <point x="2729" y="759"/>
      <point x="2574" y="636"/>
      <point x="2574" y="391" type="curve" smooth="yes"/>
      <point x="2574" y="378" type="line" smooth="yes"/>
      <point x="2574" y="105"/>
      <point x="2746" y="-39"/>
      <point x="3084" y="-39" type="curve" smooth="yes"/>
      <point x="3436" y="-39"/>
      <point x="3621" y="148"/>
      <point x="3621" y="498" type="curve" smooth="yes"/>
      <point x="3621" y="519" type="line" smooth="yes"/>
      <point x="3621" y="931"/>
      <point x="3359" y="1184"/>
    </contour>
  </outline>
</glyph>
<glyph name="vowelAa.mlm" format="2">
  <advance width="4163"/>
  <unicode hex="0D06"/>
  <outline>
    <contour>
      <point x="3470" y="524" type="line"/>
      <point x="3662" y="510"/>
      <point x="3738" y="370"/>
      <point x="3738" y="229" type="curve" smooth="yes"/>
      <point x="3738" y="220" type="line" smooth="yes"/>
      <point x="3738" y="-46"/>
      <point x="3561" y="-180"/>
      <point x="3205" y="-180" type="curve" smooth="yes"/>
      <point x="3011" y="-180"/>
      <point x="2860" y="-160"/>
      <point x="2684" y="-97" type="curve"/>
      <point x="2747" y="-391" type="line"/>
      <point x="2895" y="-446"/>
      <point x="3057" y="-468"/>
      <point x="3238" y="-468" type="curve" smooth="yes"/>
      <point x="3805" y="-468"/>
      <point x="4093" y="-245"/>
      <point x="4093" y="199" type="curve" smooth="yes"/>
      <point x="4093" y="211" type="line" smooth="yes"/>
      <point x="4093" y="549"/>
      <point x="3855" y="780"/>
      <point x="3447" y="794" type="curve"/>
    </contour>
    <contour>
      <point x="2828" y="885" type="curve" smooth="yes"/>
      <point x="3023" y="885"/>
      <point x="3152" y="832"/>
      <point x="3217" y="753" type="curve"/>
      <point x="3238" y="614" type="line"/>
      <point x="3238" y="574"/>
      <point x="3238" y="550"/>
      <point x="3238" y="510" type="curve" smooth="yes"/>
      <point x="3238" y="489" type="line" smooth="yes"/>
      <point x="3238" y="338"/>
      <point x="3191" y="275"/>
      <point x="3073" y="275" type="curve" smooth="yes"/>
      <point x="2980" y="275"/>
      <point x="2935" y="324"/>
      <point x="2935" y="396" type="curve" smooth="yes"/>
      <point x="2935" y="401" type="line" smooth="yes"/>
      <point x="2935" y="487"/>
      <point x="2996" y="542"/>
      <point x="3147" y="542" type="curve" smooth="yes"/>
      <point x="3189" y="542"/>
      <point x="3219" y="541"/>
      <point x="3263" y="537" type="curve"/>
      <point x="3312" y="778" type="line"/>
      <point x="3279" y="787"/>
      <point x="3178" y="803"/>
      <point x="3108" y="803" type="curve" smooth="yes"/>
      <point x="2779" y="803"/>
      <point x="2573" y="667"/>
      <point x="2573" y="387" type="curve" smooth="yes"/>
      <point x="2573" y="375" type="line" smooth="yes"/>
      <point x="2573" y="125"/>
      <point x="2749" y="-9"/>
      <point x="3069" y="-9" type="curve" smooth="yes"/>
      <point x="3426" y="-9"/>
      <point x="3590" y="169"/>
      <point x="3590" y="498" type="curve" smooth="yes"/>
      <point x="3590" y="512" type="line" smooth="yes"/>
      <point x="3590" y="552"/>
      <point x="3590" y="574"/>
      <point x="3590" y="614" type="curve"/>
      <point x="3585" y="646" type="line" smooth="yes"/>
      <point x="3536" y="982"/>
      <point x="3288" y="1184"/>
      <point x="2839" y="1184" type="curve" smooth="yes"/>
      <point x="2452" y="1184"/>
      <point x="2259" y="1045"/>
      <point x="2204" y="857" type="curve"/>
      <point x="2152" y="857" type="line"/>
      <point x="2166" y="493" type="line"/>
      <point x="2384" y="431" type="line"/>
      <point x="2384" y="539" type="line" smooth="yes"/>
      <point x="2384" y="771"/>
      <point x="2538" y="885"/>
    </contour>
    <contour>
      <point x="2012" y="4" type="line"/>
      <point x="2384" y="4" type="line"/>
      <point x="2384" y="479" type="line"/>
      <point x="2012" y="503" type="line"/>
    </contour>
    <contour>
      <point x="2194" y="857" type="line"/>
      <point x="2161" y="1031"/>
      <point x="1997" y="1184"/>
      <point x="1666" y="1184" type="curve" smooth="yes"/>
      <point x="1485" y="1184"/>
      <point x="1364" y="1139"/>
      <point x="1302" y="1102" type="curve"/>
      <point x="1416" y="894" type="line"/>
      <point x="1471" y="908"/>
      <point x="1548" y="915"/>
      <point x="1636" y="915" type="curve" smooth="yes"/>
      <point x="1872" y="915"/>
      <point x="2012" y="790"/>
      <point x="2012" y="537" type="curve" smooth="yes"/>
      <point x="2012" y="410" type="line"/>
      <point x="2213" y="410" type="line"/>
    </contour>
    <contour>
      <point x="471" y="477" type="line" smooth="yes"/>
      <point x="471" y="752"/>
      <point x="603" y="892"/>
      <point x="971" y="892" type="curve" smooth="yes"/>
      <point x="1037" y="892"/>
      <point x="1095" y="887"/>
      <point x="1149" y="882" type="curve" smooth="yes"/>
      <point x="1188" y="878"/>
      <point x="1222" y="869"/>
      <point x="1254" y="866" type="curve" smooth="yes"/>
      <point x="1375" y="853"/>
      <point x="1421" y="816"/>
      <point x="1421" y="767" type="curve" smooth="yes"/>
      <point x="1421" y="764" type="line" smooth="yes"/>
      <point x="1421" y="722"/>
      <point x="1393" y="701"/>
      <point x="1330" y="695" type="curve" smooth="yes"/>
      <point x="1241" y="687" type="line"/>
      <point x="1241" y="408" type="line"/>
      <point x="1358" y="403" type="line" smooth="yes"/>
      <point x="1437" y="400"/>
      <point x="1467" y="382"/>
      <point x="1467" y="338" type="curve" smooth="yes"/>
      <point x="1467" y="334" type="line" smooth="yes"/>
      <point x="1467" y="278"/>
      <point x="1418" y="250"/>
      <point x="1312" y="250" type="curve" smooth="yes"/>
      <point x="1145" y="250"/>
      <point x="1068" y="334"/>
      <point x="1068" y="517" type="curve" smooth="yes"/>
      <point x="1068" y="530" type="line" smooth="yes"/>
      <point x="1068" y="683"/>
      <point x="1140" y="820"/>
      <point x="1307" y="873" type="curve"/>
      <point x="1018" y="945" type="line"/>
      <point x="818" y="885"/>
      <point x="700" y="713"/>
      <point x="700" y="488" type="curve" smooth="yes"/>
      <point x="700" y="479" type="line" smooth="yes"/>
      <point x="700" y="138"/>
      <point x="893" y="-39"/>
      <point x="1307" y="-39" type="curve" smooth="yes"/>
      <point x="1664" y="-39"/>
      <point x="1842" y="85"/>
      <point x="1842" y="303" type="curve" smooth="yes"/>
      <point x="1842" y="310" type="line" smooth="yes"/>
      <point x="1842" y="447"/>
      <point x="1755" y="536"/>
      <point x="1546" y="552" type="curve"/>
      <point x="1546" y="561" type="line"/>
      <point x="1708" y="575"/>
      <point x="1789" y="640"/>
      <point x="1789" y="739" type="curve" smooth="yes"/>
      <point x="1789" y="746" type="line" smooth="yes"/>
      <point x="1789" y="825"/>
      <point x="1726" y="905"/>
      <point x="1571" y="935" type="curve"/>
      <point x="1443" y="1044" type="line" smooth="yes"/>
      <point x="1346" y="1127"/>
      <point x="1169" y="1184"/>
      <point x="921" y="1184" type="curve" smooth="yes"/>
      <point x="367" y="1184"/>
      <point x="94" y="942"/>
      <point x="94" y="477" type="curve" smooth="yes"/>
      <point x="94" y="459" type="line" smooth="yes"/>
      <point x="94" y="290"/>
      <point x="140" y="114"/>
      <point x="214" y="-4.54747e-13" type="curve"/>
      <point x="598" y="-4.54747e-13" type="line"/>
      <point x="510" y="158"/>
      <point x="471" y="299"/>
      <point x="471" y="459" type="curve" smooth="yes"/>
    </contour>
  </outline>
</glyph>
<glyph name="vowelI.mlm" format="2">
  <advance width="2436"/>
  <unicode hex="0D07"/>
  <outline>
    <contour>
      <point x="766" y="1183" type="curve" smooth="yes"/>
      <point x="319" y="1183"/>
      <point x="88" y="990"/>
      <point x="88" y="639" type="curve" smooth="yes"/>
      <point x="88" y="620" type="line" smooth="yes"/>
      <point x="88" y="362"/>
      <point x="231" y="224"/>
      <point x="546" y="224" type="curve" smooth="yes"/>
      <point x="872" y="224"/>
      <point x="1000" y="342"/>
      <point x="1000" y="542" type="curve" smooth="yes"/>
      <point x="1000" y="549" type="line" smooth="yes"/>
      <point x="1000" y="723"/>
      <point x="901" y="834"/>
      <point x="699" y="834" type="curve" smooth="yes"/>
      <point x="530" y="834"/>
      <point x="440" y="761"/>
      <point x="419" y="646" type="curve"/>
      <point x="429" y="540" type="line"/>
      <point x="455" y="572"/>
      <point x="496" y="590"/>
      <point x="554" y="590" type="curve" smooth="yes"/>
      <point x="623" y="590"/>
      <point x="662" y="567"/>
      <point x="662" y="524" type="curve" smooth="yes"/>
      <point x="662" y="521" type="line" smooth="yes"/>
      <point x="662" y="477"/>
      <point x="623" y="452"/>
      <point x="554" y="452" type="curve" smooth="yes"/>
      <point x="470" y="452"/>
      <point x="431" y="486"/>
      <point x="431" y="544" type="curve" smooth="yes"/>
      <point x="431" y="579" type="line"/>
      <point x="431" y="656" type="line"/>
      <point x="410" y="656" type="line"/>
      <point x="410" y="658" type="line"/>
      <point x="410" y="821"/>
      <point x="547" y="903"/>
      <point x="781" y="903" type="curve" smooth="yes"/>
      <point x="1034" y="903"/>
      <point x="1154" y="799"/>
      <point x="1163" y="597" type="curve" smooth="yes"/>
      <point x="1172" y="392" type="line"/>
      <point x="1526" y="392" type="line"/>
      <point x="1535" y="627" type="line" smooth="yes"/>
      <point x="1541" y="787"/>
      <point x="1600" y="868"/>
      <point x="1746" y="868" type="curve" smooth="yes"/>
      <point x="1901" y="868"/>
      <point x="1973" y="775"/>
      <point x="1973" y="588" type="curve" smooth="yes"/>
      <point x="1973" y="572" type="line" smooth="yes"/>
      <point x="1973" y="370"/>
      <point x="1872" y="268"/>
      <point x="1661" y="268" type="curve" smooth="yes"/>
      <point x="521" y="268" type="line" smooth="yes"/>
      <point x="231" y="268"/>
      <point x="88" y="148"/>
      <point x="88" y="-70" type="curve" smooth="yes"/>
      <point x="88" y="-294"/>
      <point x="231" y="-415"/>
      <point x="521" y="-415" type="curve" smooth="yes"/>
      <point x="2284" y="-415" type="line"/>
      <point x="2332" y="-141" type="line"/>
      <point x="553" y="-141" type="line" smooth="yes"/>
      <point x="490" y="-141"/>
      <point x="458" y="-119"/>
      <point x="458" y="-70" type="curve" smooth="yes"/>
      <point x="458" y="-21"/>
      <point x="490" y="0"/>
      <point x="553" y="0" type="curve" smooth="yes"/>
      <point x="1732" y="0" type="line" smooth="yes"/>
      <point x="2137" y="0"/>
      <point x="2348" y="192"/>
      <point x="2348" y="577" type="curve" smooth="yes"/>
      <point x="2348" y="590" type="line" smooth="yes"/>
      <point x="2348" y="986"/>
      <point x="2151" y="1183"/>
      <point x="1774" y="1183" type="curve" smooth="yes"/>
      <point x="1542" y="1183"/>
      <point x="1382" y="1073"/>
      <point x="1350" y="869" type="curve"/>
      <point x="1343" y="869" type="line"/>
      <point x="1288" y="1077"/>
      <point x="1088" y="1183"/>
    </contour>
  </outline>
</glyph>
<glyph name="vowelshortE.mlm" format="2">
  <advance width="3299"/>
  <unicode hex="0D0E"/>
  <outline>
    <contour>
      <point x="650" y="785" type="curve" smooth="yes"/>
      <point x="279" y="785"/>
      <point x="83" y="625"/>
      <point x="83" y="294" type="curve" smooth="yes"/>
      <point x="83" y="282" type="line" smooth="yes"/>
      <point x="83" y="171"/>
      <point x="107" y="67"/>
      <point x="151" y="0" type="curve"/>
      <point x="521" y="0" type="line"/>
      <point x="479" y="79"/>
      <point x="452" y="160"/>
      <point x="452" y="253" type="curve" smooth="yes"/>
      <point x="452" y="264" type="line" smooth="yes"/>
      <point x="452" y="405"/>
      <point x="513" y="473"/>
      <point x="650" y="473" type="curve" smooth="yes"/>
      <point x="787" y="473"/>
      <point x="847" y="405"/>
      <point x="847" y="264" type="curve" smooth="yes"/>
      <point x="847" y="253" type="line" smooth="yes"/>
      <point x="847" y="172"/>
      <point x="822" y="96"/>
      <point x="778" y="19" type="curve"/>
      <point x="778" y="0" type="line"/>
      <point x="993" y="0" type="line"/>
      <point x="1141" y="95"/>
      <point x="1220" y="248"/>
      <point x="1220" y="359" type="curve" smooth="yes"/>
      <point x="1220" y="371" type="line" smooth="yes"/>
      <point x="1220" y="649"/>
      <point x="1024" y="785"/>
    </contour>
    <contour>
      <point x="1118" y="287" type="line"/>
      <point x="792" y="0" type="line"/>
      <point x="1689" y="0" type="line"/>
      <point x="1759" y="7" type="line"/>
      <point x="2320" y="7" type="line"/>
      <point x="2350" y="287" type="line"/>
    </contour>
    <contour>
      <point x="2350" y="1192" type="curve" smooth="yes"/>
      <point x="1757" y="1192"/>
      <point x="1472" y="883"/>
      <point x="1472" y="313" type="curve" smooth="yes"/>
      <point x="1472" y="234" type="line" smooth="yes"/>
      <point x="1472" y="-245"/>
      <point x="1653" y="-489"/>
      <point x="2032" y="-489" type="curve" smooth="yes"/>
      <point x="2361" y="-489"/>
      <point x="2528" y="-334"/>
      <point x="2528" y="-26" type="curve" smooth="yes"/>
      <point x="2528" y="770" type="line"/>
      <point x="2174" y="770" type="line"/>
      <point x="2156" y="225" type="line"/>
      <point x="2166" y="53" type="line"/>
      <point x="2166" y="-46" type="line" smooth="yes"/>
      <point x="2166" y="-150"/>
      <point x="2122" y="-208"/>
      <point x="2030" y="-208" type="curve" smooth="yes"/>
      <point x="1910" y="-208"/>
      <point x="1861" y="-117"/>
      <point x="1845" y="77" type="curve" smooth="yes"/>
      <point x="1843" y="102" type="line"/>
      <point x="1847" y="146" type="line"/>
      <point x="1847" y="172"/>
      <point x="1847" y="197"/>
      <point x="1847" y="227" type="curve" smooth="yes"/>
      <point x="1847" y="304" type="line" smooth="yes"/>
      <point x="1847" y="690"/>
      <point x="2007" y="883"/>
      <point x="2345" y="883" type="curve" smooth="yes"/>
      <point x="2662" y="883"/>
      <point x="2830" y="690"/>
      <point x="2830" y="306" type="curve" smooth="yes"/>
      <point x="2830" y="290" type="line" smooth="yes"/>
      <point x="2830" y="59"/>
      <point x="2767" y="-168"/>
      <point x="2630" y="-407" type="curve"/>
      <point x="3020" y="-407" type="line"/>
      <point x="3137" y="-227"/>
      <point x="3207" y="33"/>
      <point x="3207" y="290" type="curve" smooth="yes"/>
      <point x="3207" y="312" type="line" smooth="yes"/>
      <point x="3207" y="880"/>
      <point x="2906" y="1192"/>
    </contour>
  </outline>
</glyph>
<glyph name="vowelE.mlm" format="2">
  <advance width="3318"/>
  <unicode hex="0D0F"/>
  <outline>
    <contour>
      <point x="650" y="785" type="curve" smooth="yes"/>
      <point x="279" y="785"/>
      <point x="83" y="625"/>
      <point x="83" y="294" type="curve" smooth="yes"/>
      <point x="83" y="282" type="line" smooth="yes"/>
      <point x="83" y="171"/>
      <point x="107" y="67"/>
      <point x="151" y="0" type="curve"/>
      <point x="521" y="0" type="line"/>
      <point x="479" y="79"/>
      <point x="452" y="160"/>
      <point x="452" y="253" type="curve" smooth="yes"/>
      <point x="452" y="264" type="line" smooth="yes"/>
      <point x="452" y="405"/>
      <point x="513" y="473"/>
      <point x="650" y="473" type="curve" smooth="yes"/>
      <point x="787" y="473"/>
      <point x="847" y="405"/>
      <point x="847" y="264" type="curve" smooth="yes"/>
      <point x="847" y="253" type="line" smooth="yes"/>
      <point x="847" y="172"/>
      <point x="822" y="96"/>
      <point x="778" y="19" type="curve"/>
      <point x="778" y="0" type="line"/>
      <point x="993" y="0" type="line"/>
      <point x="1141" y="95"/>
      <point x="1220" y="248"/>
      <point x="1220" y="359" type="curve" smooth="yes"/>
      <point x="1220" y="371" type="line" smooth="yes"/>
      <point x="1220" y="649"/>
      <point x="1024" y="785"/>
    </contour>
    <contour>
      <point x="2408" y="1192" type="curve" smooth="yes"/>
      <point x="1776" y="1192"/>
      <point x="1472" y="879"/>
      <point x="1472" y="296" type="curve" smooth="yes"/>
      <point x="1472" y="234" type="line" smooth="yes"/>
      <point x="1472" y="-245"/>
      <point x="1653" y="-489"/>
      <point x="2032" y="-489" type="curve" smooth="yes"/>
      <point x="2362" y="-489"/>
      <point x="2528" y="-334"/>
      <point x="2528" y="-26" type="curve" smooth="yes"/>
      <point x="2528" y="770" type="line"/>
      <point x="2174" y="770" type="line"/>
      <point x="2158" y="225" type="line"/>
      <point x="2166" y="53" type="line"/>
      <point x="2166" y="-48" type="line" smooth="yes"/>
      <point x="2166" y="-152"/>
      <point x="2122" y="-208"/>
      <point x="2032" y="-208" type="curve" smooth="yes"/>
      <point x="1911" y="-208"/>
      <point x="1861" y="-117"/>
      <point x="1845" y="77" type="curve" smooth="yes"/>
      <point x="1843" y="102" type="line"/>
      <point x="1847" y="146" type="line"/>
      <point x="1847" y="172"/>
      <point x="1847" y="197"/>
      <point x="1847" y="227" type="curve" smooth="yes"/>
      <point x="1847" y="287" type="line" smooth="yes"/>
      <point x="1847" y="683"/>
      <point x="2027" y="882"/>
      <point x="2408" y="882" type="curve" smooth="yes"/>
      <point x="2709" y="882"/>
      <point x="2853" y="757"/>
      <point x="2853" y="584" type="curve" smooth="yes"/>
      <point x="2853" y="574" type="line" smooth="yes"/>
      <point x="2853" y="456"/>
      <point x="2799" y="416"/>
      <point x="2709" y="408" type="curve" smooth="yes"/>
      <point x="2628" y="401" type="line"/>
      <point x="2628" y="120" type="line"/>
      <point x="2705" y="113" type="line" smooth="yes"/>
      <point x="2814" y="103"/>
      <point x="2867" y="58"/>
      <point x="2867" y="-35" type="curve" smooth="yes"/>
      <point x="2867" y="-44" type="line" smooth="yes"/>
      <point x="2867" y="-140"/>
      <point x="2802" y="-189"/>
      <point x="2676" y="-189" type="curve" smooth="yes"/>
      <point x="2647" y="-189"/>
      <point x="2620" y="-186"/>
      <point x="2591" y="-181" type="curve"/>
      <point x="2645" y="-457" type="line"/>
      <point x="2699" y="-468"/>
      <point x="2756" y="-472"/>
      <point x="2809" y="-472" type="curve" smooth="yes"/>
      <point x="3095" y="-472"/>
      <point x="3245" y="-324"/>
      <point x="3245" y="-83" type="curve" smooth="yes"/>
      <point x="3245" y="-70" type="line" smooth="yes"/>
      <point x="3245" y="124"/>
      <point x="3137" y="235"/>
      <point x="2946" y="256" type="curve"/>
      <point x="2946" y="265" type="line"/>
      <point x="3134" y="295"/>
      <point x="3231" y="405"/>
      <point x="3231" y="602" type="curve" smooth="yes"/>
      <point x="3231" y="614" type="line" smooth="yes"/>
      <point x="3231" y="947"/>
      <point x="2964" y="1192"/>
    </contour>
    <contour>
      <point x="1118" y="287" type="line"/>
      <point x="810" y="0" type="line"/>
      <point x="1687" y="0" type="line"/>
      <point x="1757" y="5" type="line"/>
      <point x="2317" y="5" type="line"/>
      <point x="2347" y="287" type="line"/>
    </contour>
  </outline>
</glyph>
<glyph name="vowelshortO.mlm" format="2">
  <advance width="1954"/>
  <unicode hex="0D12"/>
  <outline>
    <contour>
      <point x="1413" y="-37" type="curve" smooth="yes"/>
      <point x="1726" y="-37"/>
      <point x="1877" y="67"/>
      <point x="1877" y="282" type="curve" smooth="yes"/>
      <point x="1877" y="289" type="line" smooth="yes"/>
      <point x="1877" y="433"/>
      <point x="1775" y="526"/>
      <point x="1571" y="552" type="curve"/>
      <point x="1571" y="561" type="line"/>
      <point x="1758" y="580"/>
      <point x="1851" y="662"/>
      <point x="1851" y="799" type="curve" smooth="yes"/>
      <point x="1851" y="806" type="line" smooth="yes"/>
      <point x="1851" y="1063"/>
      <point x="1587" y="1192"/>
      <point x="1052" y="1192" type="curve" smooth="yes"/>
      <point x="410" y="1192"/>
      <point x="85" y="942"/>
      <point x="85" y="472" type="curve" smooth="yes"/>
      <point x="85" y="456" type="line" smooth="yes"/>
      <point x="85" y="141"/>
      <point x="266" y="-39"/>
      <point x="606" y="-39" type="curve" smooth="yes"/>
      <point x="937" y="-39"/>
      <point x="1105" y="94"/>
      <point x="1105" y="354" type="curve" smooth="yes"/>
      <point x="1105" y="366" type="line" smooth="yes"/>
      <point x="1105" y="600"/>
      <point x="981" y="720"/>
      <point x="768" y="720" type="curve" smooth="yes"/>
      <point x="587" y="720"/>
      <point x="476" y="641"/>
      <point x="441" y="486" type="curve"/>
      <point x="448" y="378" type="line"/>
      <point x="476" y="420"/>
      <point x="536" y="447"/>
      <point x="612" y="447" type="curve" smooth="yes"/>
      <point x="696" y="447"/>
      <point x="745" y="413"/>
      <point x="745" y="348" type="curve" smooth="yes"/>
      <point x="745" y="341" type="line" smooth="yes"/>
      <point x="745" y="278"/>
      <point x="698" y="241"/>
      <point x="606" y="241" type="curve" smooth="yes"/>
      <point x="504" y="241"/>
      <point x="452" y="291"/>
      <point x="452" y="391" type="curve" smooth="yes"/>
      <point x="452" y="414" type="line"/>
      <point x="454" y="498" type="line"/>
      <point x="434" y="498" type="line"/>
      <point x="434" y="503" type="line" smooth="yes"/>
      <point x="434" y="771"/>
      <point x="658" y="892"/>
      <point x="1059" y="892" type="curve" smooth="yes"/>
      <point x="1335" y="892"/>
      <point x="1471" y="852"/>
      <point x="1471" y="769" type="curve" smooth="yes"/>
      <point x="1471" y="766" type="line" smooth="yes"/>
      <point x="1471" y="726"/>
      <point x="1439" y="708"/>
      <point x="1370" y="704" type="curve" smooth="yes"/>
      <point x="1214" y="697" type="line"/>
      <point x="1214" y="417" type="line"/>
      <point x="1367" y="410" type="line" smooth="yes"/>
      <point x="1460" y="406"/>
      <point x="1497" y="384"/>
      <point x="1497" y="336" type="curve" smooth="yes"/>
      <point x="1497" y="333" type="line" smooth="yes"/>
      <point x="1497" y="278"/>
      <point x="1438" y="252"/>
      <point x="1317" y="252" type="curve" smooth="yes"/>
      <point x="1262" y="252"/>
      <point x="1229" y="254"/>
      <point x="1180" y="262" type="curve"/>
      <point x="1226" y="-20" type="line"/>
      <point x="1283" y="-32"/>
      <point x="1341" y="-37"/>
    </contour>
  </outline>
</glyph>
<glyph name="Ka.mlm" format="2">
  <advance width="2564"/>
  <unicode hex="0D15"/>
  <outline>
    <contour>
      <point x="1301" y="252" type="curve" smooth="yes"/>
      <point x="1130" y="252"/>
      <point x="1044" y="346"/>
      <point x="1044" y="533" type="curve" smooth="yes"/>
      <point x="1044" y="627" type="line" smooth="yes"/>
      <point x="1044" y="814"/>
      <point x="1130" y="906"/>
      <point x="1301" y="906" type="curve" smooth="yes"/>
      <point x="1472" y="906"/>
      <point x="1559" y="814"/>
      <point x="1559" y="627" type="curve" smooth="yes"/>
      <point x="1559" y="533" type="line" smooth="yes"/>
      <point x="1559" y="346"/>
      <point x="1472" y="252"/>
    </contour>
    <contour>
      <point x="1301" y="1195" type="curve" smooth="yes"/>
      <point x="898" y="1195"/>
      <point x="688" y="1000"/>
      <point x="688" y="620" type="curve" smooth="yes"/>
      <point x="688" y="530" type="line" smooth="yes"/>
      <point x="688" y="410"/>
      <point x="709" y="310"/>
      <point x="746" y="231" type="curve"/>
      <point x="783" y="194" type="line"/>
      <point x="878" y="36"/>
      <point x="1055" y="-39"/>
      <point x="1301" y="-39" type="curve" smooth="yes"/>
      <point x="1704" y="-39"/>
      <point x="1915" y="155"/>
      <point x="1915" y="530" type="curve" smooth="yes"/>
      <point x="1915" y="620" type="line" smooth="yes"/>
      <point x="1915" y="1000"/>
      <point x="1704" y="1195"/>
    </contour>
    <contour>
      <point x="2123" y="304" type="curve" smooth="yes"/>
      <point x="2123" y="292" type="line" smooth="yes"/>
      <point x="2123" y="183"/>
      <point x="2086" y="84"/>
      <point x="2033" y="0" type="curve"/>
      <point x="2401" y="0" type="line"/>
      <point x="2459" y="81"/>
      <point x="2489" y="202"/>
      <point x="2489" y="313" type="curve" smooth="yes"/>
      <point x="2489" y="326" type="line" smooth="yes"/>
      <point x="2489" y="601"/>
      <point x="2337" y="741"/>
      <point x="2040" y="741" type="curve" smooth="yes"/>
      <point x="1848" y="741" type="line"/>
      <point x="1676" y="735" type="line"/>
      <point x="887" y="735" type="line"/>
      <point x="799" y="743" type="line"/>
      <point x="572" y="743" type="line" smooth="yes"/>
      <point x="241" y="743"/>
      <point x="72" y="609"/>
      <point x="72" y="347" type="curve" smooth="yes"/>
      <point x="72" y="333" type="line" smooth="yes"/>
      <point x="72" y="88"/>
      <point x="209" y="-39"/>
      <point x="459" y="-39" type="curve" smooth="yes"/>
      <point x="653" y="-39"/>
      <point x="749" y="53"/>
      <point x="774" y="192" type="curve"/>
      <point x="787" y="194" type="line"/>
      <point x="715" y="329" type="line"/>
      <point x="692" y="271"/>
      <point x="644" y="241"/>
      <point x="570" y="241" type="curve" smooth="yes"/>
      <point x="486" y="241"/>
      <point x="436" y="274"/>
      <point x="436" y="350" type="curve" smooth="yes"/>
      <point x="436" y="356" type="line" smooth="yes"/>
      <point x="436" y="432"/>
      <point x="487" y="468"/>
      <point x="584" y="468" type="curve" smooth="yes"/>
      <point x="806" y="468" type="line"/>
      <point x="884" y="463" type="line"/>
      <point x="1695" y="463" type="line"/>
      <point x="1769" y="465" type="line"/>
      <point x="1961" y="465" type="line" smooth="yes"/>
      <point x="2070" y="465"/>
      <point x="2123" y="411"/>
    </contour>
  </outline>
</glyph>
<glyph name="Kha.mlm" format="2">
  <advance width="2538"/>
  <unicode hex="0D16"/>
  <outline>
    <contour>
      <point x="2033" y="1137" type="line"/>
      <point x="2033" y="0" type="line"/>
      <point x="2406" y="0" type="line"/>
      <point x="2406" y="1137" type="line"/>
    </contour>
    <contour>
      <point x="1601" y="287" type="line"/>
      <point x="1261" y="0" type="line"/>
      <point x="2366" y="0" type="line"/>
      <point x="2366" y="287" type="line"/>
    </contour>
    <contour>
      <point x="916" y="1192" type="curve" smooth="yes"/>
      <point x="363" y="1192"/>
      <point x="85" y="946"/>
      <point x="85" y="502" type="curve" smooth="yes"/>
      <point x="85" y="480" type="line" smooth="yes"/>
      <point x="85" y="142"/>
      <point x="270" y="-39"/>
      <point x="626" y="-39" type="curve" smooth="yes"/>
      <point x="967" y="-39"/>
      <point x="1141" y="97"/>
      <point x="1141" y="363" type="curve" smooth="yes"/>
      <point x="1141" y="371" type="line" smooth="yes"/>
      <point x="1141" y="612"/>
      <point x="1011" y="737"/>
      <point x="791" y="737" type="curve" smooth="yes"/>
      <point x="597" y="737"/>
      <point x="480" y="653"/>
      <point x="443" y="491" type="curve"/>
      <point x="455" y="387" type="line"/>
      <point x="487" y="431"/>
      <point x="549" y="458"/>
      <point x="628" y="458" type="curve" smooth="yes"/>
      <point x="727" y="458"/>
      <point x="777" y="422"/>
      <point x="777" y="357" type="curve" smooth="yes"/>
      <point x="777" y="350" type="line" smooth="yes"/>
      <point x="777" y="283"/>
      <point x="723" y="245"/>
      <point x="628" y="245" type="curve" smooth="yes"/>
      <point x="515" y="245"/>
      <point x="457" y="296"/>
      <point x="457" y="400" type="curve" smooth="yes"/>
      <point x="457" y="415" type="line"/>
      <point x="457" y="503" type="line"/>
      <point x="436" y="503" type="line"/>
      <point x="436" y="509" type="line" smooth="yes"/>
      <point x="436" y="769"/>
      <point x="607" y="891"/>
      <point x="911" y="891" type="curve" smooth="yes"/>
      <point x="1212" y="891"/>
      <point x="1374" y="752"/>
      <point x="1374" y="472" type="curve" smooth="yes"/>
      <point x="1374" y="452" type="line" smooth="yes"/>
      <point x="1374" y="295"/>
      <point x="1333" y="153"/>
      <point x="1261" y="19" type="curve"/>
      <point x="1261" y="0" type="line"/>
      <point x="1559" y="0" type="line"/>
      <point x="1668" y="102"/>
      <point x="1754" y="304"/>
      <point x="1754" y="517" type="curve" smooth="yes"/>
      <point x="1754" y="539" type="line" smooth="yes"/>
      <point x="1754" y="961"/>
      <point x="1465" y="1192"/>
    </contour>
  </outline>
</glyph>
<glyph name="Ca.mlm" format="2">
  <advance width="2182"/>
  <unicode hex="0D1A"/>
  <outline>
    <contour>
      <point x="40" y="287" type="line"/>
      <point x="91" y="0" type="line"/>
      <point x="1759" y="0" type="line"/>
      <point x="1759" y="287" type="line"/>
    </contour>
    <contour>
      <point x="828" y="280" type="curve"/>
      <point x="1092" y="209" type="line"/>
      <point x="1284" y="261"/>
      <point x="1361" y="386"/>
      <point x="1361" y="542" type="curve" smooth="yes"/>
      <point x="1361" y="546" type="line" smooth="yes"/>
      <point x="1361" y="818"/>
      <point x="1184" y="950"/>
      <point x="816" y="950" type="curve" smooth="yes"/>
      <point x="456" y="950"/>
      <point x="279" y="826"/>
      <point x="279" y="586" type="curve" smooth="yes"/>
      <point x="279" y="576" type="line" smooth="yes"/>
      <point x="279" y="510"/>
      <point x="294" y="466"/>
      <point x="313" y="428" type="curve"/>
      <point x="657" y="428" type="line"/>
      <point x="649" y="450"/>
      <point x="643" y="476"/>
      <point x="643" y="502" type="curve"/>
      <point x="643" y="503" type="line"/>
      <point x="643" y="592"/>
      <point x="697" y="639"/>
      <point x="814" y="639" type="curve" smooth="yes"/>
      <point x="932" y="639"/>
      <point x="987" y="592"/>
      <point x="987" y="493" type="curve" smooth="yes"/>
      <point x="987" y="486" type="line" smooth="yes"/>
      <point x="987" y="404"/>
      <point x="933" y="322"/>
    </contour>
    <contour>
      <point x="1677" y="1137" type="line"/>
      <point x="1677" y="0" type="line"/>
      <point x="2050" y="0" type="line"/>
      <point x="2050" y="1137" type="line"/>
    </contour>
  </outline>
</glyph>
<glyph name="Cha.mlm" format="2">
  <advance width="3330"/>
  <unicode hex="0D1B"/>
  <outline>
    <contour>
      <point x="40" y="287" type="line"/>
      <point x="91" y="0" type="line"/>
      <point x="1759" y="0" type="line"/>
      <point x="1759" y="287" type="line"/>
    </contour>
    <contour>
      <point x="828" y="280" type="curve"/>
      <point x="1092" y="209" type="line"/>
      <point x="1284" y="261"/>
      <point x="1361" y="386"/>
      <point x="1361" y="542" type="curve" smooth="yes"/>
      <point x="1361" y="546" type="line" smooth="yes"/>
      <point x="1361" y="818"/>
      <point x="1184" y="950"/>
      <point x="816" y="950" type="curve" smooth="yes"/>
      <point x="456" y="950"/>
      <point x="279" y="826"/>
      <point x="279" y="586" type="curve" smooth="yes"/>
      <point x="279" y="576" type="line" smooth="yes"/>
      <point x="279" y="510"/>
      <point x="294" y="466"/>
      <point x="313" y="428" type="curve"/>
      <point x="657" y="428" type="line"/>
      <point x="649" y="450"/>
      <point x="643" y="476"/>
      <point x="643" y="502" type="curve"/>
      <point x="643" y="503" type="line"/>
      <point x="643" y="592"/>
      <point x="697" y="639"/>
      <point x="814" y="639" type="curve" smooth="yes"/>
      <point x="932" y="639"/>
      <point x="987" y="592"/>
      <point x="987" y="493" type="curve" smooth="yes"/>
      <point x="987" y="486" type="line" smooth="yes"/>
      <point x="987" y="404"/>
      <point x="933" y="322"/>
    </contour>
    <contour>
      <point x="1722" y="287" type="line"/>
      <point x="1444" y="287" type="line"/>
      <point x="1444" y="0" type="line"/>
      <point x="2062" y="0" type="line"/>
    </contour>
    <contour>
      <point x="1569" y="489" type="line" smooth="yes"/>
      <point x="1569" y="287"/>
      <point x="1655" y="97"/>
      <point x="1764" y="0" type="curve"/>
      <point x="2062" y="0" type="line"/>
      <point x="2062" y="19" type="line"/>
      <point x="1990" y="149"/>
      <point x="1949" y="289"/>
      <point x="1949" y="440" type="curve" smooth="yes"/>
      <point x="1949" y="458" type="line" smooth="yes"/>
      <point x="1949" y="747"/>
      <point x="2117" y="891"/>
      <point x="2430" y="891" type="curve" smooth="yes"/>
      <point x="2738" y="891"/>
      <point x="2873" y="749"/>
      <point x="2884" y="577" type="curve"/>
      <point x="2884" y="577" type="line"/>
      <point x="2873" y="577" type="line"/>
      <point x="2882" y="489" type="line"/>
      <point x="2882" y="477" type="line" smooth="yes"/>
      <point x="2882" y="315"/>
      <point x="2830" y="246"/>
      <point x="2710" y="246" type="curve" smooth="yes"/>
      <point x="2610" y="246"/>
      <point x="2553" y="298"/>
      <point x="2553" y="375" type="curve" smooth="yes"/>
      <point x="2553" y="384" type="line" smooth="yes"/>
      <point x="2553" y="465"/>
      <point x="2611" y="512"/>
      <point x="2713" y="512" type="curve" smooth="yes"/>
      <point x="2780" y="512"/>
      <point x="2838" y="493"/>
      <point x="2886" y="461" type="curve"/>
      <point x="2884" y="554" type="line"/>
      <point x="2842" y="679"/>
      <point x="2734" y="766"/>
      <point x="2565" y="766" type="curve" smooth="yes"/>
      <point x="2345" y="766"/>
      <point x="2187" y="638"/>
      <point x="2187" y="392" type="curve" smooth="yes"/>
      <point x="2187" y="380" type="line" smooth="yes"/>
      <point x="2187" y="105"/>
      <point x="2366" y="-39"/>
      <point x="2692" y="-39" type="curve" smooth="yes"/>
      <point x="3062" y="-39"/>
      <point x="3245" y="148"/>
      <point x="3245" y="498" type="curve" smooth="yes"/>
      <point x="3245" y="519" type="line" smooth="yes"/>
      <point x="3245" y="934"/>
      <point x="2968" y="1192"/>
      <point x="2410" y="1192" type="curve" smooth="yes"/>
      <point x="1859" y="1192"/>
      <point x="1569" y="945"/>
      <point x="1569" y="507" type="curve" smooth="yes"/>
    </contour>
  </outline>
</glyph>
<glyph name="Ja.mlm" format="2">
  <advance width="2319"/>
  <unicode hex="0D1C"/>
  <outline>
    <contour>
      <point x="1415" y="-70" type="line"/>
      <point x="1533" y="-114"/>
      <point x="1662" y="-132"/>
      <point x="1802" y="-132" type="curve" smooth="yes"/>
      <point x="2097" y="-132"/>
      <point x="2234" y="-26"/>
      <point x="2234" y="178" type="curve" smooth="yes"/>
      <point x="2234" y="181" type="line" smooth="yes"/>
      <point x="2234" y="332"/>
      <point x="2147" y="432"/>
      <point x="1965" y="465" type="curve" smooth="yes"/>
      <point x="1941" y="469"/>
      <point x="1918" y="482"/>
      <point x="1892" y="488" type="curve"/>
      <point x="1865" y="495"/>
      <point x="1834" y="496"/>
      <point x="1802" y="496" type="curve" smooth="yes"/>
      <point x="1642" y="496"/>
      <point x="1525" y="460"/>
      <point x="1338" y="397" type="curve" smooth="yes"/>
      <point x="812" y="219" type="line" smooth="yes"/>
      <point x="738" y="194"/>
      <point x="629" y="165"/>
      <point x="543" y="165" type="curve" smooth="yes"/>
      <point x="483" y="165"/>
      <point x="455" y="181.2"/>
      <point x="455" y="219" type="curve"/>
      <point x="455" y="220" type="line"/>
      <point x="455" y="247"/>
      <point x="474" y="268.6"/>
      <point x="509" y="274" type="curve"/>
      <point x="262" y="365" type="line"/>
      <point x="262" y="329" type="line"/>
      <point x="146" y="297.389"/>
      <point x="85" y="237.227"/>
      <point x="85" y="122" type="curve"/>
      <point x="85" y="120" type="line"/>
      <point x="85" y="-42.5806"/>
      <point x="211" y="-132"/>
      <point x="472" y="-132" type="curve" smooth="yes"/>
      <point x="636" y="-132"/>
      <point x="821" y="-84"/>
      <point x="971" y="-31" type="curve" smooth="yes"/>
      <point x="1450" y="138" type="line" smooth="yes"/>
      <point x="1665" y="214"/>
      <point x="1733" y="236"/>
      <point x="1796" y="236" type="curve" smooth="yes"/>
      <point x="1852" y="236"/>
      <point x="1879" y="220"/>
      <point x="1879" y="183" type="curve"/>
      <point x="1879" y="181" type="line"/>
      <point x="1879" y="146"/>
      <point x="1846" y="127"/>
      <point x="1779" y="127" type="curve" smooth="yes"/>
      <point x="1626" y="127"/>
      <point x="1480" y="165"/>
      <point x="1371" y="197" type="curve"/>
    </contour>
    <contour>
      <point x="86" y="675" type="curve" smooth="yes"/>
      <point x="86" y="657" type="line" smooth="yes"/>
      <point x="86" y="483"/>
      <point x="155.023" y="364.078"/>
      <point x="308" y="320" type="curve" smooth="yes"/>
      <point x="332.023" y="313.078"/>
      <point x="348.458" y="294.68"/>
      <point x="374" y="288" type="curve" smooth="yes"/>
      <point x="416.127" y="276.983"/>
      <point x="465" y="267"/>
      <point x="518" y="267" type="curve" smooth="yes"/>
      <point x="807" y="267"/>
      <point x="949" y="376"/>
      <point x="949" y="566" type="curve" smooth="yes"/>
      <point x="949" y="575" type="line" smooth="yes"/>
      <point x="949" y="744"/>
      <point x="854" y="840"/>
      <point x="669" y="840" type="curve" smooth="yes"/>
      <point x="521" y="840"/>
      <point x="430" y="770"/>
      <point x="411" y="670" type="curve"/>
      <point x="422" y="575" type="line"/>
      <point x="441" y="603"/>
      <point x="477" y="619"/>
      <point x="525" y="619" type="curve" smooth="yes"/>
      <point x="580" y="619"/>
      <point x="612" y="594"/>
      <point x="612" y="552" type="curve" smooth="yes"/>
      <point x="612" y="547" type="line" smooth="yes"/>
      <point x="612" y="507"/>
      <point x="579" y="483"/>
      <point x="524" y="483" type="curve" smooth="yes"/>
      <point x="456" y="483"/>
      <point x="424" y="522"/>
      <point x="424" y="582" type="curve" smooth="yes"/>
      <point x="424" y="624" type="line"/>
      <point x="424" y="677" type="line"/>
      <point x="402" y="677" type="line"/>
      <point x="402" y="682" type="line" smooth="yes"/>
      <point x="402" y="840.487"/>
      <point x="524" y="912"/>
      <point x="755" y="912" type="curve" smooth="yes"/>
      <point x="981" y="912"/>
      <point x="1094" y="821"/>
      <point x="1102" y="634" type="curve" smooth="yes"/>
      <point x="1110" y="452" type="line"/>
      <point x="1468" y="491" type="line"/>
      <point x="1475" y="681" type="line" smooth="yes"/>
      <point x="1480" y="809"/>
      <point x="1533" y="876"/>
      <point x="1663" y="876" type="curve" smooth="yes"/>
      <point x="1795" y="876"/>
      <point x="1858" y="815"/>
      <point x="1858" y="685" type="curve" smooth="yes"/>
      <point x="1858" y="681" type="line" smooth="yes"/>
      <point x="1858" y="579"/>
      <point x="1814" y="517"/>
      <point x="1728" y="489" type="curve"/>
      <point x="2043" y="420" type="line"/>
      <point x="2043" y="453" type="line"/>
      <point x="2187" y="502"/>
      <point x="2234" y="599"/>
      <point x="2234" y="748" type="curve" smooth="yes"/>
      <point x="2234" y="752" type="line" smooth="yes"/>
      <point x="2234" y="1036"/>
      <point x="2051" y="1184"/>
      <point x="1714" y="1184" type="curve" smooth="yes"/>
      <point x="1468" y="1184"/>
      <point x="1315" y="1072"/>
      <point x="1290" y="891" type="curve"/>
      <point x="1281" y="891" type="line"/>
      <point x="1233" y="1083"/>
      <point x="1049" y="1184"/>
      <point x="743" y="1184" type="curve" smooth="yes"/>
      <point x="306" y="1184"/>
      <point x="86" y="1003.83"/>
    </contour>
  </outline>
</glyph>
<glyph name="Tta.mlm" format="2">
  <advance width="1457"/>
  <unicode hex="0D1F"/>
  <outline>
    <contour>
      <point x="739" y="-46" type="curve" smooth="yes"/>
      <point x="1181" y="-46"/>
      <point x="1384" y="75"/>
      <point x="1384" y="334" type="curve" smooth="yes"/>
      <point x="1384" y="340" type="line" smooth="yes"/>
      <point x="1384" y="593"/>
      <point x="1246" y="698"/>
      <point x="830" y="723" type="curve" smooth="yes"/>
      <point x="520" y="742"/>
      <point x="462" y="755"/>
      <point x="462" y="804" type="curve"/>
      <point x="462" y="806" type="line"/>
      <point x="462" y="857"/>
      <point x="514" y="889"/>
      <point x="758" y="889" type="curve" smooth="yes"/>
      <point x="933" y="889"/>
      <point x="1151" y="854"/>
      <point x="1319" y="817" type="curve"/>
      <point x="1279" y="1107" type="line"/>
      <point x="1134" y="1156"/>
      <point x="947" y="1192"/>
      <point x="744" y="1192" type="curve" smooth="yes"/>
      <point x="291" y="1192"/>
      <point x="85" y="1070"/>
      <point x="85" y="804" type="curve" smooth="yes"/>
      <point x="85" y="799" type="line" smooth="yes"/>
      <point x="85" y="556"/>
      <point x="243" y="464"/>
      <point x="711" y="431" type="curve" smooth="yes"/>
      <point x="963" y="413"/>
      <point x="1007" y="399"/>
      <point x="1007" y="343" type="curve"/>
      <point x="1007" y="341" type="line"/>
      <point x="1007" y="288"/>
      <point x="962" y="257"/>
      <point x="742" y="257" type="curve" smooth="yes"/>
      <point x="498" y="257"/>
      <point x="278" y="315"/>
      <point x="76" y="389" type="curve"/>
      <point x="120" y="67" type="line"/>
      <point x="290" y="-2"/>
      <point x="500" y="-46"/>
    </contour>
  </outline>
</glyph>
<glyph name="Ttha.mlm" format="2">
  <advance width="1651"/>
  <unicode hex="0D20"/>
  <outline>
    <contour>
      <point x="826" y="276" type="curve" smooth="yes"/>
      <point x="586" y="276"/>
      <point x="463" y="375"/>
      <point x="463" y="565" type="curve" smooth="yes"/>
      <point x="463" y="583" type="line" smooth="yes"/>
      <point x="463" y="773"/>
      <point x="586" y="869"/>
      <point x="826" y="869" type="curve" smooth="yes"/>
      <point x="1066" y="869"/>
      <point x="1188" y="773"/>
      <point x="1188" y="583" type="curve" smooth="yes"/>
      <point x="1188" y="565" type="line" smooth="yes"/>
      <point x="1188" y="375"/>
      <point x="1066" y="276"/>
    </contour>
    <contour>
      <point x="826" y="-46" type="curve" smooth="yes"/>
      <point x="1314" y="-46"/>
      <point x="1567" y="161"/>
      <point x="1567" y="561" type="curve" smooth="yes"/>
      <point x="1567" y="579" type="line" smooth="yes"/>
      <point x="1567" y="984"/>
      <point x="1314" y="1192"/>
      <point x="826" y="1192" type="curve" smooth="yes"/>
      <point x="338" y="1192"/>
      <point x="84" y="984"/>
      <point x="84" y="579" type="curve" smooth="yes"/>
      <point x="84" y="561" type="line" smooth="yes"/>
      <point x="84" y="161"/>
      <point x="338" y="-46"/>
    </contour>
  </outline>
</glyph>
<glyph name="Ddha.mlm" format="2">
  <advance width="3349"/>
  <unicode hex="0D22"/>
  <outline>
    <contour>
      <point x="2052" y="614" type="line"/>
      <point x="2052" y="1119" type="line"/>
      <point x="1679" y="1119" type="line"/>
      <point x="1679" y="604" type="line"/>
    </contour>
    <contour>
      <point x="1423" y="-40" type="curve" smooth="yes"/>
      <point x="1712" y="-40"/>
      <point x="1847" y="106"/>
      <point x="1875" y="289" type="curve"/>
      <point x="1948" y="289" type="line"/>
      <point x="1941" y="706" type="line"/>
      <point x="1679" y="718" type="line"/>
      <point x="1679" y="512" type="line" smooth="yes"/>
      <point x="1679" y="362"/>
      <point x="1615" y="287"/>
      <point x="1481" y="287" type="curve" smooth="yes"/>
      <point x="1347" y="287"/>
      <point x="1284" y="362"/>
      <point x="1284" y="512" type="curve" smooth="yes"/>
      <point x="1284" y="570"/>
      <point x="1284" y="609"/>
      <point x="1284" y="667" type="curve" smooth="yes"/>
      <point x="1284" y="1012"/>
      <point x="1088" y="1186"/>
      <point x="706" y="1186" type="curve" smooth="yes"/>
      <point x="301" y="1186"/>
      <point x="93" y="979"/>
      <point x="93" y="565" type="curve" smooth="yes"/>
      <point x="93" y="540" type="line" smooth="yes"/>
      <point x="93" y="332"/>
      <point x="156" y="128"/>
      <point x="268" y="0" type="curve"/>
      <point x="660" y="0" type="line"/>
      <point x="541" y="165"/>
      <point x="472" y="346"/>
      <point x="472" y="540" type="curve" smooth="yes"/>
      <point x="472" y="556" type="line" smooth="yes"/>
      <point x="472" y="762"/>
      <point x="547" y="864"/>
      <point x="706" y="864" type="curve" smooth="yes"/>
      <point x="842" y="864"/>
      <point x="911" y="787"/>
      <point x="911" y="630" type="curve" smooth="yes"/>
      <point x="911" y="568"/>
      <point x="911" y="525"/>
      <point x="911" y="463" type="curve" smooth="yes"/>
      <point x="911" y="130"/>
      <point x="1081" y="-40"/>
    </contour>
    <contour>
      <point x="2508" y="-40" type="curve" smooth="yes"/>
      <point x="3010" y="-40"/>
      <point x="3263" y="195"/>
      <point x="3263" y="630" type="curve" smooth="yes"/>
      <point x="3263" y="651" type="line" smooth="yes"/>
      <point x="3263" y="996"/>
      <point x="3080" y="1184"/>
      <point x="2716" y="1184" type="curve" smooth="yes"/>
      <point x="2403" y="1184"/>
      <point x="2233" y="1048"/>
      <point x="2233" y="788" type="curve" smooth="yes"/>
      <point x="2233" y="783" type="line" smooth="yes"/>
      <point x="2233" y="558"/>
      <point x="2362" y="435"/>
      <point x="2591" y="435" type="curve" smooth="yes"/>
      <point x="2765" y="435"/>
      <point x="2871" y="508"/>
      <point x="2906" y="651" type="curve"/>
      <point x="2895" y="759" type="line"/>
      <point x="2862" y="719"/>
      <point x="2800" y="692"/>
      <point x="2724" y="692" type="curve" smooth="yes"/>
      <point x="2636" y="692"/>
      <point x="2589" y="725"/>
      <point x="2589" y="788" type="curve" smooth="yes"/>
      <point x="2589" y="796" type="line" smooth="yes"/>
      <point x="2589" y="861"/>
      <point x="2636" y="896"/>
      <point x="2728" y="896" type="curve" smooth="yes"/>
      <point x="2839" y="896"/>
      <point x="2893" y="843"/>
      <point x="2893" y="741" type="curve" smooth="yes"/>
      <point x="2893" y="725" type="line"/>
      <point x="2892" y="639" type="line"/>
      <point x="2913" y="639" type="line"/>
      <point x="2913" y="634" type="line" smooth="yes"/>
      <point x="2913" y="381"/>
      <point x="2762" y="268"/>
      <point x="2487" y="268" type="curve" smooth="yes"/>
      <point x="2202" y="268"/>
      <point x="2052" y="381"/>
      <point x="2052" y="605" type="curve" smooth="yes"/>
      <point x="2052" y="662" type="line"/>
      <point x="1876" y="662" type="line"/>
      <point x="1884" y="289" type="line"/>
      <point x="1937" y="102"/>
      <point x="2128" y="-40"/>
    </contour>
  </outline>
</glyph>
<glyph name="Nna.mlm" format="2">
  <advance width="3493"/>
  <unicode hex="0D23"/>
  <outline>
    <contour>
      <point x="1317" y="4" type="line"/>
      <point x="1689" y="4" type="line"/>
      <point x="1689" y="549" type="line"/>
      <point x="1317" y="532" type="line"/>
    </contour>
    <contour>
      <point x="872" y="1184" type="curve" smooth="yes"/>
      <point x="356" y="1184"/>
      <point x="85" y="942"/>
      <point x="85" y="498" type="curve" smooth="yes"/>
      <point x="85" y="477" type="line" smooth="yes"/>
      <point x="85" y="143"/>
      <point x="270" y="-39"/>
      <point x="624" y="-39" type="curve" smooth="yes"/>
      <point x="960" y="-39"/>
      <point x="1134" y="97"/>
      <point x="1134" y="361" type="curve" smooth="yes"/>
      <point x="1134" y="370" type="line" smooth="yes"/>
      <point x="1134" y="609"/>
      <point x="1004" y="734"/>
      <point x="789" y="734" type="curve" smooth="yes"/>
      <point x="597" y="734"/>
      <point x="479" y="650"/>
      <point x="442" y="488" type="curve"/>
      <point x="455" y="385" type="line"/>
      <point x="487" y="429"/>
      <point x="547" y="454"/>
      <point x="624" y="454" type="curve" smooth="yes"/>
      <point x="721" y="454"/>
      <point x="770" y="421"/>
      <point x="770" y="356" type="curve" smooth="yes"/>
      <point x="770" y="348" type="line" smooth="yes"/>
      <point x="770" y="283"/>
      <point x="717" y="246"/>
      <point x="624" y="246" type="curve" smooth="yes"/>
      <point x="513" y="246"/>
      <point x="456" y="296"/>
      <point x="456" y="398" type="curve" smooth="yes"/>
      <point x="456" y="414" type="line"/>
      <point x="456" y="500" type="line"/>
      <point x="435" y="500" type="line"/>
      <point x="435" y="505" type="line" smooth="yes"/>
      <point x="435" y="765"/>
      <point x="597" y="884"/>
      <point x="886" y="884" type="curve" smooth="yes"/>
      <point x="1168" y="884"/>
      <point x="1317" y="773"/>
      <point x="1317" y="551" type="curve" smooth="yes"/>
      <point x="1317" y="502" type="line"/>
      <point x="1500" y="502" type="line"/>
      <point x="1499" y="857" type="line"/>
      <point x="1450" y="1045"/>
      <point x="1261" y="1184"/>
    </contour>
    <contour>
      <point x="2152" y="532" type="line"/>
      <point x="2152" y="4" type="line"/>
      <point x="2525" y="4" type="line"/>
      <point x="2525" y="532" type="line"/>
    </contour>
    <contour>
      <point x="2334" y="864" type="line"/>
      <point x="2308" y="1045"/>
      <point x="2174" y="1184"/>
      <point x="1920" y="1184" type="curve" smooth="yes"/>
      <point x="1666" y="1184"/>
      <point x="1529" y="1042"/>
      <point x="1508" y="857" type="curve"/>
      <point x="1435" y="857" type="line"/>
      <point x="1435" y="422" type="line"/>
      <point x="1689" y="410" type="line"/>
      <point x="1689" y="600" type="line" smooth="yes"/>
      <point x="1689" y="772"/>
      <point x="1762" y="857"/>
      <point x="1920" y="857" type="curve" smooth="yes"/>
      <point x="2078" y="857"/>
      <point x="2152" y="772"/>
      <point x="2152" y="600" type="curve" smooth="yes"/>
      <point x="2152" y="410" type="line"/>
      <point x="2360" y="410" type="line"/>
    </contour>
    <contour>
      <point x="2525" y="410" type="line"/>
      <point x="2525" y="598" type="line" smooth="yes"/>
      <point x="2525" y="774"/>
      <point x="2600" y="859"/>
      <point x="2759" y="859" type="curve" smooth="yes"/>
      <point x="2934" y="859"/>
      <point x="3020" y="757"/>
      <point x="3020" y="542" type="curve" smooth="yes"/>
      <point x="3020" y="524" type="line" smooth="yes"/>
      <point x="3020" y="334"/>
      <point x="2963" y="162"/>
      <point x="2856" y="0" type="curve"/>
      <point x="3241" y="0" type="line"/>
      <point x="3344" y="127"/>
      <point x="3399" y="320"/>
      <point x="3399" y="524" type="curve" smooth="yes"/>
      <point x="3399" y="542" type="line" smooth="yes"/>
      <point x="3399" y="971"/>
      <point x="3193" y="1184"/>
      <point x="2801" y="1184" type="curve" smooth="yes"/>
      <point x="2513" y="1184"/>
      <point x="2373" y="1045"/>
      <point x="2343" y="864" type="curve"/>
      <point x="2270" y="864" type="line"/>
      <point x="2270" y="422" type="line"/>
    </contour>
  </outline>
</glyph>
<glyph name="Bha.mlm" format="2">
  <advance width="1730"/>
  <unicode hex="0D2D"/>
  <outline>
    <contour>
      <point x="1625" y="845" type="curve" smooth="yes"/>
      <point x="1625" y="1072"/>
      <point x="1399" y="1192"/>
      <point x="957" y="1192" type="curve" smooth="yes"/>
      <point x="372" y="1192"/>
      <point x="96" y="966"/>
      <point x="96" y="503" type="curve" smooth="yes"/>
      <point x="96" y="482" type="line" smooth="yes"/>
      <point x="96" y="304"/>
      <point x="130" y="121"/>
      <point x="189" y="0" type="curve"/>
      <point x="564" y="0" type="line"/>
      <point x="504" y="165"/>
      <point x="473" y="315"/>
      <point x="473" y="480" type="curve" smooth="yes"/>
      <point x="473" y="495" type="line" smooth="yes"/>
      <point x="473" y="777"/>
      <point x="604" y="908"/>
      <point x="961" y="908" type="curve" smooth="yes"/>
      <point x="1150" y="908"/>
      <point x="1245" y="892"/>
      <point x="1245" y="850" type="curve" smooth="yes"/>
      <point x="1245" y="825"/>
      <point x="1220.03" y="824.317"/>
      <point x="1154" y="822" type="curve" smooth="yes"/>
      <point x="1040" y="818" type="line" smooth="yes"/>
      <point x="870.998" y="812.07"/>
      <point x="715" y="775"/>
      <point x="715" y="576" type="curve" smooth="yes"/>
      <point x="715" y="567" type="line" smooth="yes"/>
      <point x="715" y="366"/>
      <point x="870.985" y="326.448"/>
      <point x="1040" y="322" type="curve" smooth="yes"/>
      <point x="1154" y="319" type="line" smooth="yes"/>
      <point x="1246.02" y="316.579"/>
      <point x="1280" y="308"/>
      <point x="1280" y="278" type="curve"/>
      <point x="1280" y="276" type="line"/>
      <point x="1280" y="241"/>
      <point x="1211" y="232"/>
      <point x="1063" y="232" type="curve" smooth="yes"/>
      <point x="931" y="232"/>
      <point x="845" y="242"/>
      <point x="732" y="268" type="curve"/>
      <point x="769" y="4" type="line"/>
      <point x="878" y="-26"/>
      <point x="982" y="-37"/>
      <point x="1121" y="-37" type="curve" smooth="yes"/>
      <point x="1484" y="-37"/>
      <point x="1660" y="64"/>
      <point x="1660" y="268" type="curve" smooth="yes"/>
      <point x="1660" y="273" type="line" smooth="yes"/>
      <point x="1660" y="484"/>
      <point x="1486.02" y="519.652"/>
      <point x="1286" y="524" type="curve" smooth="yes"/>
      <point x="1194" y="526" type="line" smooth="yes"/>
      <point x="1116.99" y="527.674"/>
      <point x="1091" y="540"/>
      <point x="1091" y="568" type="curve"/>
      <point x="1091" y="570" type="line"/>
      <point x="1091" y="596"/>
      <point x="1112.99" y="612.239"/>
      <point x="1194" y="614" type="curve" smooth="yes"/>
      <point x="1286" y="616" type="line" smooth="yes"/>
      <point x="1510" y="620.87"/>
      <point x="1625" y="681"/>
    </contour>
  </outline>
</glyph>
<glyph name="Ma.mlm" format="2">
  <advance width="1837"/>
  <unicode hex="0D2E"/>
  <outline>
    <contour>
      <point x="299" y="262" type="line"/>
      <point x="146" y="0" type="line"/>
      <point x="1676" y="0" type="line"/>
      <point x="1540" y="262" type="line"/>
    </contour>
    <contour>
      <point x="918" y="905" type="curve" smooth="yes"/>
      <point x="1192" y="905"/>
      <point x="1349" y="801"/>
      <point x="1349" y="500" type="curve" smooth="yes"/>
      <point x="1349" y="0" type="line"/>
      <point x="1717" y="0" type="line"/>
      <point x="1717" y="510" type="line" smooth="yes"/>
      <point x="1717" y="961"/>
      <point x="1450" y="1192"/>
      <point x="918" y="1192" type="curve" smooth="yes"/>
      <point x="387" y="1192"/>
      <point x="120" y="961"/>
      <point x="120" y="510" type="curve" smooth="yes"/>
      <point x="120" y="0" type="line"/>
      <point x="486" y="0" type="line"/>
      <point x="486" y="500" type="line" smooth="yes"/>
      <point x="486" y="799"/>
      <point x="611" y="905"/>
    </contour>
    <contour>
      <point x="1138" y="602" type="line" smooth="yes"/>
      <point x="1138" y="809.495"/>
      <point x="976.173" y="921"/>
      <point x="742" y="921" type="curve" smooth="yes"/>
      <point x="694.5" y="921"/>
      <point x="642.929" y="918.75"/>
      <point x="590" y="903" type="curve"/>
      <point x="504" y="742" type="line"/>
      <point x="542.156" y="765.571"/>
      <point x="583.247" y="775"/>
      <point x="617" y="775" type="curve" smooth="yes"/>
      <point x="721.426" y="775"/>
      <point x="764" y="700.3"/>
      <point x="764" y="609" type="curve" smooth="yes"/>
      <point x="764" y="602" type="line" smooth="yes"/>
      <point x="764" y="465"/>
      <point x="689" y="334"/>
      <point x="576" y="259" type="curve"/>
      <point x="859" y="192" type="line"/>
      <point x="1039" y="268"/>
      <point x="1138" y="416"/>
      <point x="1138" y="592" type="curve" smooth="yes"/>
    </contour>
  </outline>
</glyph>
<glyph name="La.mlm" format="2">
  <advance width="2118"/>
  <unicode hex="0D32"/>
  <outline>
    <contour>
      <point x="998" y="683" type="line"/>
      <point x="488" y="683" type="line"/>
      <point x="488" y="697" type="line" smooth="yes"/>
      <point x="488" y="834"/>
      <point x="571" y="899"/>
      <point x="743" y="899" type="curve" smooth="yes"/>
      <point x="915" y="899"/>
      <point x="998" y="834"/>
      <point x="998" y="697" type="curve" smooth="yes"/>
    </contour>
    <contour>
      <point x="120" y="0" type="line"/>
      <point x="1986" y="0" type="line"/>
      <point x="1986" y="1137" type="line"/>
      <point x="1613" y="1137" type="line"/>
      <point x="1613" y="269" type="line"/>
      <point x="488" y="269" type="line"/>
      <point x="488" y="415" type="line"/>
      <point x="1364" y="415" type="line"/>
      <point x="1364" y="651" type="line" smooth="yes"/>
      <point x="1364" y="1008"/>
      <point x="1154" y="1186"/>
      <point x="743" y="1186" type="curve" smooth="yes"/>
      <point x="332" y="1186"/>
      <point x="120" y="1008"/>
      <point x="120" y="651" type="curve" smooth="yes"/>
    </contour>
  </outline>
</glyph>
<glyph name="Zha.mlm" format="2">
  <advance width="1737"/>
  <unicode hex="0D34"/>
  <outline>
    <contour>
      <point x="1026" y="769" type="curve" smooth="yes"/>
      <point x="1026" y="774" type="line" smooth="yes"/>
      <point x="1026" y="858"/>
      <point x="1072" y="899"/>
      <point x="1167" y="899" type="curve" smooth="yes"/>
      <point x="1259" y="899"/>
      <point x="1307" y="857"/>
      <point x="1307" y="781" type="curve" smooth="yes"/>
      <point x="1307" y="776" type="line" smooth="yes"/>
      <point x="1307" y="648"/>
      <point x="1172" y="591"/>
      <point x="866" y="591" type="curve" smooth="yes"/>
      <point x="567" y="591"/>
      <point x="435" y="676"/>
      <point x="435" y="864" type="curve" smooth="yes"/>
      <point x="435" y="876" type="line" smooth="yes"/>
      <point x="435" y="957"/>
      <point x="457" y="1035"/>
      <point x="497" y="1118" type="curve"/>
      <point x="123" y="1118" type="line"/>
      <point x="84" y="1049"/>
      <point x="62" y="958"/>
      <point x="62" y="861" type="curve" smooth="yes"/>
      <point x="62" y="840" type="line" smooth="yes"/>
      <point x="62" y="492"/>
      <point x="342" y="320"/>
      <point x="866" y="320" type="curve" smooth="yes"/>
      <point x="1396" y="320"/>
      <point x="1677" y="470"/>
      <point x="1677" y="776" type="curve" smooth="yes"/>
      <point x="1677" y="783" type="line" smooth="yes"/>
      <point x="1677" y="1051"/>
      <point x="1505" y="1186"/>
      <point x="1167" y="1186" type="curve" smooth="yes"/>
      <point x="834" y="1186"/>
      <point x="658" y="1069"/>
      <point x="658" y="831" type="curve" smooth="yes"/>
      <point x="658" y="825" type="line" smooth="yes"/>
      <point x="658" y="723"/>
      <point x="712" y="630"/>
      <point x="789" y="565" type="curve"/>
      <point x="854" y="384" type="line"/>
      <point x="866" y="345"/>
      <point x="878" y="320"/>
      <point x="878" y="280" type="curve" smooth="yes"/>
      <point x="878" y="220"/>
      <point x="818" y="188"/>
      <point x="688" y="188" type="curve" smooth="yes"/>
      <point x="579" y="188"/>
      <point x="513" y="196"/>
      <point x="414" y="224" type="curve"/>
      <point x="461" y="-54" type="line"/>
      <point x="555" y="-82"/>
      <point x="647" y="-92"/>
      <point x="766" y="-92" type="curve" smooth="yes"/>
      <point x="1092" y="-92"/>
      <point x="1249" y="11"/>
      <point x="1249" y="220" type="curve" smooth="yes"/>
      <point x="1249" y="285"/>
      <point x="1235" y="338"/>
      <point x="1205" y="405" type="curve"/>
      <point x="1131" y="537" type="line"/>
      <point x="1055" y="637"/>
      <point x="1026" y="711"/>
    </contour>
  </outline>
</glyph>
<glyph name="Va.mlm" format="2">
  <advance width="2312"/>
  <unicode hex="0D35"/>
  <outline>
    <contour>
      <point x="795" y="869" type="curve" smooth="yes"/>
      <point x="1007" y="869"/>
      <point x="1114" y="753"/>
      <point x="1114" y="514" type="curve" smooth="yes"/>
      <point x="1114" y="496" type="line" smooth="yes"/>
      <point x="1114" y="325"/>
      <point x="1058" y="167"/>
      <point x="958" y="19" type="curve"/>
      <point x="958" y="0" type="line"/>
      <point x="1249" y="0" type="line"/>
      <point x="1410" y="132"/>
      <point x="1493" y="330"/>
      <point x="1493" y="539" type="curve" smooth="yes"/>
      <point x="1493" y="556" type="line" smooth="yes"/>
      <point x="1493" y="970"/>
      <point x="1255" y="1192"/>
      <point x="795" y="1192" type="curve" smooth="yes"/>
      <point x="335" y="1192"/>
      <point x="93" y="968"/>
      <point x="93" y="524" type="curve" smooth="yes"/>
      <point x="93" y="507" type="line" smooth="yes"/>
      <point x="93" y="310"/>
      <point x="146" y="123"/>
      <point x="249" y="0" type="curve"/>
      <point x="635" y="0" type="line"/>
      <point x="532" y="153"/>
      <point x="472" y="318"/>
      <point x="472" y="496" type="curve" smooth="yes"/>
      <point x="472" y="514" type="line" smooth="yes"/>
      <point x="472" y="753"/>
      <point x="583" y="869"/>
    </contour>
    <contour>
      <point x="1807" y="1137" type="line"/>
      <point x="1807" y="0" type="line"/>
      <point x="2180" y="0" type="line"/>
      <point x="2180" y="1137" type="line"/>
    </contour>
    <contour>
      <point x="1339" y="287" type="line"/>
      <point x="958" y="0" type="line"/>
      <point x="2139" y="0" type="line"/>
      <point x="2139" y="287" type="line"/>
    </contour>
  </outline>
</glyph>
<glyph name="Sha.mlm" format="2">
  <advance width="2509"/>
  <unicode hex="0D36"/>
  <outline>
    <contour>
      <point x="1645" y="891" type="curve" smooth="yes"/>
      <point x="1932" y="891"/>
      <point x="2055" y="736"/>
      <point x="2064" y="574" type="curve"/>
      <point x="2064" y="574" type="line"/>
      <point x="2051" y="574" type="line"/>
      <point x="2062" y="486" type="line"/>
      <point x="2062" y="473" type="line" smooth="yes"/>
      <point x="2062" y="313"/>
      <point x="2011" y="246"/>
      <point x="1893" y="246" type="curve" smooth="yes"/>
      <point x="1796" y="246"/>
      <point x="1743" y="298"/>
      <point x="1743" y="370" type="curve" smooth="yes"/>
      <point x="1743" y="378" type="line" smooth="yes"/>
      <point x="1743" y="457"/>
      <point x="1798" y="505"/>
      <point x="1900" y="505" type="curve" smooth="yes"/>
      <point x="1965" y="505"/>
      <point x="2019" y="488"/>
      <point x="2065" y="458" type="curve"/>
      <point x="2064" y="551" type="line"/>
      <point x="2024" y="674"/>
      <point x="1917" y="759"/>
      <point x="1752" y="759" type="curve" smooth="yes"/>
      <point x="1532" y="759"/>
      <point x="1377" y="636"/>
      <point x="1377" y="391" type="curve" smooth="yes"/>
      <point x="1377" y="378" type="line" smooth="yes"/>
      <point x="1377" y="105"/>
      <point x="1550" y="-39"/>
      <point x="1888" y="-39" type="curve" smooth="yes"/>
      <point x="2240" y="-39"/>
      <point x="2424" y="148"/>
      <point x="2424" y="498" type="curve" smooth="yes"/>
      <point x="2424" y="519" type="line" smooth="yes"/>
      <point x="2424" y="934"/>
      <point x="2162" y="1192"/>
      <point x="1645" y="1192" type="curve" smooth="yes"/>
      <point x="1103" y="1192"/>
      <point x="832" y="973"/>
      <point x="832" y="549" type="curve" smooth="yes"/>
      <point x="832" y="523"/>
      <point x="832" y="502"/>
      <point x="832" y="477" type="curve" smooth="yes"/>
      <point x="832" y="345"/>
      <point x="778" y="282"/>
      <point x="669" y="282" type="curve" smooth="yes"/>
      <point x="540" y="282"/>
      <point x="472" y="371"/>
      <point x="472" y="554" type="curve" smooth="yes"/>
      <point x="472" y="572" type="line" smooth="yes"/>
      <point x="472" y="776"/>
      <point x="540" y="961"/>
      <point x="671" y="1133" type="curve"/>
      <point x="296" y="1133" type="line"/>
      <point x="163" y="997"/>
      <point x="93" y="785"/>
      <point x="93" y="563" type="curve" smooth="yes"/>
      <point x="93" y="546" type="line" smooth="yes"/>
      <point x="93" y="155"/>
      <point x="292" y="-40"/>
      <point x="669" y="-40" type="curve" smooth="yes"/>
      <point x="1025" y="-40"/>
      <point x="1205" y="118"/>
      <point x="1205" y="433" type="curve" smooth="yes"/>
      <point x="1205" y="461"/>
      <point x="1205" y="488"/>
      <point x="1205" y="516" type="curve" smooth="yes"/>
      <point x="1205" y="766"/>
      <point x="1349" y="891"/>
    </contour>
  </outline>
</glyph>
<glyph name="Ttta.mlm" format="2">
  <advance width="1892"/>
  <unicode hex="0D3A"/>
  <outline>
    <contour>
      <point x="132" y="1137" type="line"/>
      <point x="132" y="0" type="line"/>
      <point x="505" y="0" type="line"/>
      <point x="505" y="1137" type="line"/>
    </contour>
    <contour>
      <point x="1848" y="290" type="line"/>
      <point x="422" y="290" type="line"/>
      <point x="422" y="0" type="line"/>
      <point x="1798" y="0" type="line"/>
    </contour>
    <contour>
      <point x="1167" y="183" type="line"/>
      <point x="820" y="183" type="line"/>
      <point x="820" y="-348" type="line"/>
      <point x="1167" y="-348" type="line"/>
    </contour>
  </outline>
</glyph>
<glyph name="circularviramasign.mlm" format="2">
  <unicode hex="0D3C"/>
  <outline>
    <contour>
      <point x="-431" y="1463" type="line" smooth="yes"/>
      <point x="-431" y="1256"/>
      <point x="-287" y="1142"/>
      <point x="-18" y="1142" type="curve" smooth="yes"/>
      <point x="251" y="1142"/>
      <point x="396" y="1256"/>
      <point x="396" y="1463" type="curve" smooth="yes"/>
      <point x="396" y="1466" type="line" smooth="yes"/>
      <point x="396" y="1673"/>
      <point x="251" y="1786"/>
      <point x="-18" y="1786" type="curve" smooth="yes"/>
      <point x="-287" y="1786"/>
      <point x="-431" y="1673"/>
      <point x="-431" y="1466" type="curve" smooth="yes"/>
    </contour>
    <contour>
      <point x="84" y="1461" type="line" smooth="yes"/>
      <point x="84" y="1412"/>
      <point x="47" y="1383"/>
      <point x="-18" y="1383" type="curve" smooth="yes"/>
      <point x="-83" y="1383"/>
      <point x="-120" y="1412"/>
      <point x="-120" y="1461" type="curve" smooth="yes"/>
      <point x="-120" y="1468" type="line" smooth="yes"/>
      <point x="-120" y="1517"/>
      <point x="-83" y="1545"/>
      <point x="-18" y="1545" type="curve" smooth="yes"/>
      <point x="47" y="1545"/>
      <point x="84" y="1517"/>
      <point x="84" y="1468" type="curve" smooth="yes"/>
    </contour>
  </outline>
</glyph>
<glyph name="Praslesham.mlm" format="2">
  <advance width="887"/>
  <unicode hex="0D3D"/>
  <outline>
    <contour>
      <point x="588" y="12" type="curve" smooth="yes"/>
      <point x="658" y="1021" type="line" smooth="yes"/>
      <point x="672" y="1225"/>
      <point x="720" y="1292"/>
      <point x="864" y="1292" type="curve" smooth="yes"/>
      <point x="919" y="1292"/>
      <point x="987" y="1278"/>
      <point x="1047" y="1260" type="curve"/>
      <point x="987" y="1565" type="line"/>
      <point x="931" y="1586"/>
      <point x="844" y="1602"/>
      <point x="767" y="1602" type="curve" smooth="yes"/>
      <point x="440" y="1602"/>
      <point x="315" y="1406"/>
      <point x="289" y="1026" type="curve" smooth="yes"/>
      <point x="218" y="18" type="line" smooth="yes"/>
      <point x="202" y="-198"/>
      <point x="150" y="-271"/>
      <point x="-7" y="-271" type="curve" smooth="yes"/>
      <point x="-70" y="-271"/>
      <point x="-151" y="-257"/>
      <point x="-220" y="-238" type="curve"/>
      <point x="-160" y="-542" type="line"/>
      <point x="-95" y="-565"/>
      <point x="2" y="-581"/>
      <point x="90" y="-581" type="curve" smooth="yes"/>
      <point x="430" y="-581"/>
      <point x="560" y="-380"/>
    </contour>
  </outline>
</glyph>
<glyph name="matraA.mlm" format="2">
  <advance width="1193"/>
  <unicode hex="0D3E"/>
  <outline>
    <contour>
      <point x="419" y="276" type="curve" smooth="yes"/>
      <point x="292" y="276"/>
      <point x="164" y="320"/>
      <point x="72" y="385" type="curve"/>
      <point x="104" y="48" type="line"/>
      <point x="206" y="-8"/>
      <point x="338" y="-46"/>
      <point x="502" y="-46" type="curve" smooth="yes"/>
      <point x="898" y="-46"/>
      <point x="1099" y="163"/>
      <point x="1099" y="563" type="curve" smooth="yes"/>
      <point x="1099" y="581" type="line" smooth="yes"/>
      <point x="1099" y="982"/>
      <point x="888" y="1190"/>
      <point x="477" y="1190" type="curve" smooth="yes"/>
      <point x="336" y="1190"/>
      <point x="206" y="1154"/>
      <point x="107" y="1105" type="curve"/>
      <point x="76" y="788" type="line"/>
      <point x="168" y="837"/>
      <point x="283" y="868"/>
      <point x="401" y="868" type="curve" smooth="yes"/>
      <point x="618" y="868"/>
      <point x="721" y="771"/>
      <point x="721" y="579" type="curve" smooth="yes"/>
      <point x="721" y="565" type="line" smooth="yes"/>
      <point x="721" y="375"/>
      <point x="617" y="276"/>
    </contour>
  </outline>
</glyph>
<glyph name="matraI.mlm" format="2">
  <advance width="646"/>
  <unicode hex="0D3F"/>
  <outline>
    <contour>
      <point x="514" y="0" type="line"/>
      <point x="514" y="1021" type="line" smooth="yes"/>
      <point x="514" y="1443"/>
      <point x="327" y="1661"/>
      <point x="-81" y="1661" type="curve" smooth="yes"/>
      <point x="-247" y="1661"/>
      <point x="-409" y="1624"/>
      <point x="-532" y="1573" type="curve"/>
      <point x="-591" y="1265" type="line"/>
      <point x="-460" y="1312"/>
      <point x="-301" y="1348"/>
      <point x="-178" y="1348" type="curve" smooth="yes"/>
      <point x="46" y="1348"/>
      <point x="141" y="1266"/>
      <point x="141" y="1016" type="curve" smooth="yes"/>
      <point x="141" y="0" type="line"/>
    </contour>
  </outline>
</glyph>
<glyph name="matraIi.mlm" format="2">
  <advance width="665"/>
  <unicode hex="0D40"/>
  <outline>
    <contour>
      <point x="-479" y="1345" type="line" smooth="yes"/>
      <point x="-479" y="1136"/>
      <point x="-335" y="1008"/>
      <point x="-123" y="1008" type="curve" smooth="yes"/>
      <point x="34" y="1008"/>
      <point x="124" y="1072"/>
      <point x="151" y="1183" type="curve"/>
      <point x="190" y="1183" type="line"/>
      <point x="174" y="1336" type="line"/>
      <point x="142" y="1285"/>
      <point x="73" y="1255"/>
      <point x="-2" y="1255" type="curve" smooth="yes"/>
      <point x="-85" y="1255"/>
      <point x="-136" y="1292"/>
      <point x="-136" y="1359" type="curve" smooth="yes"/>
      <point x="-136" y="1366" type="line" smooth="yes"/>
      <point x="-136" y="1433"/>
      <point x="-85" y="1473"/>
      <point x="5" y="1473" type="curve" smooth="yes"/>
      <point x="109" y="1473"/>
      <point x="165" y="1417"/>
      <point x="165" y="1311" type="curve" smooth="yes"/>
      <point x="165" y="1260" type="line"/>
      <point x="160" y="1230" type="line"/>
      <point x="160" y="0" type="line"/>
      <point x="533" y="0" type="line"/>
      <point x="533" y="1248" type="line" smooth="yes"/>
      <point x="533" y="1572"/>
      <point x="354" y="1748"/>
      <point x="14" y="1748" type="curve" smooth="yes"/>
      <point x="-310" y="1748"/>
      <point x="-479" y="1611"/>
      <point x="-479" y="1352" type="curve" smooth="yes"/>
    </contour>
  </outline>
</glyph>
<glyph name="matraRu.mlm" format="2">
  <advance width="772"/>
  <unicode hex="0D43"/>
  <outline>
    <contour>
      <point x="261" y="-584" type="curve" smooth="yes"/>
      <point x="578" y="-584"/>
      <point x="747" y="-430"/>
      <point x="747" y="-139" type="curve" smooth="yes"/>
      <point x="747" y="-120" type="line" smooth="yes"/>
      <point x="747" y="191"/>
      <point x="535" y="422"/>
      <point x="535" y="750" type="curve" smooth="yes"/>
      <point x="535" y="901"/>
      <point x="543" y="986"/>
      <point x="581" y="1137" type="curve"/>
      <point x="211" y="1137" type="line"/>
      <point x="173" y="986"/>
      <point x="164" y="901"/>
      <point x="164" y="750" type="curve" smooth="yes"/>
      <point x="164" y="356"/>
      <point x="380" y="166"/>
      <point x="395" y="-108" type="curve"/>
      <point x="390" y="-144" type="line"/>
      <point x="390" y="-159"/>
      <point x="390" y="-169"/>
      <point x="390" y="-183" type="curve" smooth="yes"/>
      <point x="390" y="-193" type="line" smooth="yes"/>
      <point x="390" y="-277"/>
      <point x="340" y="-324"/>
      <point x="254" y="-324" type="curve" smooth="yes"/>
      <point x="185" y="-324"/>
      <point x="143" y="-291"/>
      <point x="143" y="-239" type="curve" smooth="yes"/>
      <point x="143" y="-232" type="line" smooth="yes"/>
      <point x="143" y="-180"/>
      <point x="185" y="-149"/>
      <point x="252" y="-149" type="curve" smooth="yes"/>
      <point x="313" y="-149"/>
      <point x="364" y="-171"/>
      <point x="391" y="-210" type="curve"/>
      <point x="408" y="-79" type="line"/>
      <point x="383" y="-79" type="line"/>
      <point x="338" y="36"/>
      <point x="263" y="89"/>
      <point x="121" y="89" type="curve" smooth="yes"/>
      <point x="-84" y="89"/>
      <point x="-200" y="-22"/>
      <point x="-200" y="-220" type="curve" smooth="yes"/>
      <point x="-200" y="-227" type="line" smooth="yes"/>
      <point x="-200" y="-463"/>
      <point x="-38" y="-584"/>
    </contour>
  </outline>
</glyph>
<glyph name="matraRru.mlm" format="2">
  <advance width="824"/>
  <unicode hex="0D44"/>
  <outline>
    <contour>
      <point x="581" y="-113" type="line"/>
      <point x="574" y="-6"/>
      <point x="533" y="95"/>
      <point x="419" y="95" type="curve" smooth="yes"/>
      <point x="339" y="95"/>
      <point x="299" y="38"/>
      <point x="290" y="-55" type="curve"/>
      <point x="281" y="-55" type="line"/>
      <point x="266" y="40"/>
      <point x="179" y="99"/>
      <point x="35" y="99" type="curve" smooth="yes"/>
      <point x="-169" y="99"/>
      <point x="-282" y="-7"/>
      <point x="-282" y="-197" type="curve" smooth="yes"/>
      <point x="-282" y="-204" type="line" smooth="yes"/>
      <point x="-282" y="-455"/>
      <point x="-83" y="-584"/>
      <point x="287" y="-584" type="curve" smooth="yes"/>
      <point x="676" y="-584"/>
      <point x="880" y="-422"/>
      <point x="880" y="-121" type="curve" smooth="yes"/>
      <point x="880" y="-102" type="line" smooth="yes"/>
      <point x="880" y="307"/>
      <point x="500" y="442"/>
      <point x="500" y="820" type="curve" smooth="yes"/>
      <point x="500" y="944"/>
      <point x="505" y="1013"/>
      <point x="530" y="1137" type="curve"/>
      <point x="165" y="1137" type="line"/>
      <point x="133" y="1013"/>
      <point x="127" y="944"/>
      <point x="127" y="820" type="curve" smooth="yes"/>
      <point x="127" y="388"/>
      <point x="414" y="220"/>
      <point x="512" y="72" type="curve"/>
      <point x="500" y="63" type="line"/>
      <point x="558" y="-55" type="line"/>
      <point x="558" y="-95"/>
      <point x="558" y="-117"/>
      <point x="558" y="-157" type="curve" smooth="yes"/>
      <point x="558" y="-188" type="line" smooth="yes"/>
      <point x="558" y="-288"/>
      <point x="451" y="-338"/>
      <point x="262" y="-338" type="curve" smooth="yes"/>
      <point x="83" y="-338"/>
      <point x="9" y="-293"/>
      <point x="9" y="-218" type="curve" smooth="yes"/>
      <point x="9" y="-211" type="line" smooth="yes"/>
      <point x="9" y="-165"/>
      <point x="35" y="-141"/>
      <point x="81" y="-141" type="curve" smooth="yes"/>
      <point x="128" y="-141"/>
      <point x="151" y="-163"/>
      <point x="153" y="-209" type="curve" smooth="yes"/>
      <point x="155" y="-250" type="line"/>
      <point x="424" y="-246" type="line"/>
      <point x="426" y="-206" type="line" smooth="yes"/>
      <point x="428" y="-160"/>
      <point x="449" y="-137"/>
      <point x="495" y="-137" type="curve" smooth="yes"/>
      <point x="530" y="-137"/>
      <point x="551" y="-153"/>
      <point x="560" y="-176" type="curve"/>
    </contour>
  </outline>
</glyph>
<glyph name="matraE.mlm" format="2">
  <advance width="1205"/>
  <unicode hex="0D47"/>
  <outline>
    <contour>
      <point x="450" y="685" type="line"/>
      <point x="471" y="685" type="line"/>
      <point x="471" y="788" type="line"/>
      <point x="471" y="804" type="line" smooth="yes"/>
      <point x="471" y="866"/>
      <point x="524" y="901"/>
      <point x="628" y="901" type="curve" smooth="yes"/>
      <point x="716" y="901"/>
      <point x="767" y="885"/>
      <point x="767" y="859" type="curve"/>
      <point x="767" y="857" type="line"/>
      <point x="767" y="832"/>
      <point x="716" y="818"/>
      <point x="628" y="818" type="curve" smooth="yes"/>
      <point x="559" y="818"/>
      <point x="500" y="826"/>
      <point x="470" y="840" type="curve"/>
      <point x="457" y="697" type="line"/>
      <point x="490" y="607"/>
      <point x="600" y="560"/>
      <point x="776" y="560" type="curve" smooth="yes"/>
      <point x="1007" y="560"/>
      <point x="1135" y="660"/>
      <point x="1135" y="847" type="curve" smooth="yes"/>
      <point x="1135" y="850" type="line" smooth="yes"/>
      <point x="1135" y="1072"/>
      <point x="962" y="1190"/>
      <point x="628" y="1190" type="curve" smooth="yes"/>
      <point x="281" y="1190"/>
      <point x="100" y="1014"/>
      <point x="100" y="692" type="curve" smooth="yes"/>
      <point x="100" y="442" type="line" smooth="yes"/>
      <point x="100" y="120"/>
      <point x="281" y="-56"/>
      <point x="628" y="-56" type="curve" smooth="yes"/>
      <point x="962" y="-56"/>
      <point x="1135" y="61"/>
      <point x="1135" y="283" type="curve" smooth="yes"/>
      <point x="1135" y="287" type="line" smooth="yes"/>
      <point x="1135" y="474"/>
      <point x="1007" y="574"/>
      <point x="776" y="574" type="curve" smooth="yes"/>
      <point x="600" y="574"/>
      <point x="490" y="526"/>
      <point x="457" y="436" type="curve"/>
      <point x="470" y="294" type="line"/>
      <point x="500" y="308"/>
      <point x="559" y="315"/>
      <point x="628" y="315" type="curve" smooth="yes"/>
      <point x="716" y="315"/>
      <point x="767" y="301"/>
      <point x="767" y="276" type="curve"/>
      <point x="767" y="275" type="line"/>
      <point x="767" y="249"/>
      <point x="716" y="232"/>
      <point x="628" y="232" type="curve" smooth="yes"/>
      <point x="524" y="232"/>
      <point x="471" y="267"/>
      <point x="471" y="329" type="curve" smooth="yes"/>
      <point x="471" y="345" type="line"/>
      <point x="471" y="449" type="line"/>
      <point x="450" y="449" type="line"/>
    </contour>
  </outline>
</glyph>
<glyph name="Virama.mlm" format="2">
  <unicode hex="0D4D"/>
  <outline>
    <contour>
      <point x="-337" y="1512" type="curve" smooth="yes"/>
      <point x="-448" y="1512"/>
      <point x="-503" y="1567"/>
      <point x="-503" y="1668" type="curve" smooth="yes"/>
      <point x="-503" y="1698" type="line"/>
      <point x="-835" y="1698" type="line"/>
      <point x="-835" y="1658" type="line" smooth="yes"/>
      <point x="-835" y="1378"/>
      <point x="-652" y="1239"/>
      <point x="-337" y="1239" type="curve" smooth="yes"/>
      <point x="-22" y="1239"/>
      <point x="161" y="1378"/>
      <point x="161" y="1658" type="curve" smooth="yes"/>
      <point x="161" y="1698" type="line"/>
      <point x="-172" y="1698" type="line"/>
      <point x="-172" y="1668" type="line" smooth="yes"/>
      <point x="-172" y="1567"/>
      <point x="-226" y="1512"/>
    </contour>
  </outline>
</glyph>
<glyph name="dotreph.mlm" format="2">
  <unicode hex="0D4E"/>
  <outline>
    <contour>
      <point x="-1368" y="1501" type="line" smooth="yes"/>
      <point x="-1368" y="1374"/>
      <point x="-1288" y="1308"/>
      <point x="-1149" y="1308" type="curve" smooth="yes"/>
      <point x="-1010" y="1308"/>
      <point x="-931" y="1374"/>
      <point x="-931" y="1501" type="curve" smooth="yes"/>
      <point x="-931" y="1508" type="line" smooth="yes"/>
      <point x="-931" y="1635"/>
      <point x="-1010" y="1702"/>
      <point x="-1149" y="1702" type="curve" smooth="yes"/>
      <point x="-1288" y="1702"/>
      <point x="-1368" y="1635"/>
      <point x="-1368" y="1508" type="curve" smooth="yes"/>
    </contour>
  </outline>
</glyph>
<glyph name="chilluM.mlm" format="2">
  <advance width="1837"/>
  <unicode hex="0D54"/>
  <outline>
    <contour>
      <point x="299" y="262" type="line"/>
      <point x="146" y="0" type="line"/>
      <point x="1676" y="0" type="line"/>
      <point x="1540" y="262" type="line"/>
    </contour>
    <contour>
      <point x="1717" y="510" type="line" smooth="yes"/>
      <point x="1717" y="901"/>
      <point x="1619" y="967"/>
      <point x="1619" y="1302" type="curve" smooth="yes"/>
      <point x="1619" y="1380"/>
      <point x="1634" y="1455"/>
      <point x="1653" y="1533" type="curve"/>
      <point x="1317" y="1533" type="line"/>
      <point x="1296" y="1471"/>
      <point x="1278" y="1393"/>
      <point x="1278" y="1309" type="curve" smooth="yes"/>
      <point x="1278" y="1228"/>
      <point x="1301" y="1157"/>
      <point x="1356" y="1081" type="curve"/>
      <point x="1349" y="1072" type="line"/>
      <point x="1248" y="1148"/>
      <point x="1119" y="1192"/>
      <point x="908" y="1192" type="curve" smooth="yes"/>
      <point x="384" y="1192"/>
      <point x="120" y="961"/>
      <point x="120" y="510" type="curve" smooth="yes"/>
      <point x="120" y="0" type="line"/>
      <point x="486" y="0" type="line"/>
      <point x="486" y="500" type="line" smooth="yes"/>
      <point x="486" y="799"/>
      <point x="611" y="905"/>
      <point x="918" y="905" type="curve" smooth="yes"/>
      <point x="1192" y="905"/>
      <point x="1349" y="801"/>
      <point x="1349" y="500" type="curve" smooth="yes"/>
      <point x="1349" y="0" type="line"/>
      <point x="1717" y="0" type="line"/>
    </contour>
    <contour>
      <point x="1138" y="602" type="line" smooth="yes"/>
      <point x="1138" y="809.495"/>
      <point x="976.173" y="921"/>
      <point x="742" y="921" type="curve" smooth="yes"/>
      <point x="694.5" y="921"/>
      <point x="642.929" y="918.75"/>
      <point x="590" y="903" type="curve"/>
      <point x="504" y="742" type="line"/>
      <point x="542.156" y="765.571"/>
      <point x="583.247" y="775"/>
      <point x="617" y="775" type="curve" smooth="yes"/>
      <point x="721.426" y="775"/>
      <point x="764" y="700.3"/>
      <point x="764" y="609" type="curve" smooth="yes"/>
      <point x="764" y="602" type="line" smooth="yes"/>
      <point x="764" y="465"/>
      <point x="689" y="334"/>
      <point x="576" y="259" type="curve"/>
      <point x="859" y="192" type="line"/>
      <point x="1039" y="268"/>
      <point x="1138" y="416"/>
      <point x="1138" y="592" type="curve" smooth="yes"/>
    </contour>
  </outline>
</glyph>
<glyph name="chilluY.mlm" format="2">
  <advance width="2518"/>
  <unicode hex="0D55"/>
  <outline>
    <contour>
      <point x="751" y="686" type="line" smooth="yes"/>
      <point x="784" y="464"/>
      <point x="850" y="303"/>
      <point x="1045" y="215" type="curve"/>
      <point x="1163" y="155" type="line"/>
      <point x="1265" y="32"/>
      <point x="1450" y="-51"/>
      <point x="1725" y="-51" type="curve" smooth="yes"/>
      <point x="2193" y="-51"/>
      <point x="2434" y="160"/>
      <point x="2434" y="565" type="curve" smooth="yes"/>
      <point x="2434" y="857"/>
      <point x="2298" y="999"/>
      <point x="2298" y="1244" type="curve" smooth="yes"/>
      <point x="2298" y="1348"/>
      <point x="2315" y="1441"/>
      <point x="2355" y="1533" type="curve"/>
      <point x="1990" y="1533" type="line"/>
      <point x="1946" y="1449"/>
      <point x="1922" y="1343"/>
      <point x="1922" y="1227" type="curve" smooth="yes"/>
      <point x="1922" y="945"/>
      <point x="2057" y="799"/>
      <point x="2057" y="579" type="curve" smooth="yes"/>
      <point x="2057" y="361"/>
      <point x="1922" y="248"/>
      <point x="1644" y="248" type="curve" smooth="yes"/>
      <point x="1558" y="248"/>
      <point x="1492" y="260"/>
      <point x="1432" y="285" type="curve" smooth="yes"/>
      <point x="1337" y="324" type="line" smooth="yes"/>
      <point x="1203" y="379"/>
      <point x="1158" y="498"/>
      <point x="1132" y="660" type="curve" smooth="yes"/>
      <point x="1116" y="760" type="line" smooth="yes"/>
      <point x="1110" y="797"/>
      <point x="1104" y="831"/>
      <point x="1095" y="864" type="curve"/>
      <point x="1062" y="896" type="line"/>
      <point x="1009" y="1100"/>
      <point x="870" y="1184"/>
      <point x="621" y="1184" type="curve" smooth="yes"/>
      <point x="271" y="1184"/>
      <point x="91" y="1000"/>
      <point x="91" y="662" type="curve" smooth="yes"/>
      <point x="91" y="648" type="line" smooth="yes"/>
      <point x="91" y="192"/>
      <point x="346" y="-48"/>
      <point x="848" y="-48" type="curve" smooth="yes"/>
      <point x="1101" y="-48"/>
      <point x="1289" y="32"/>
      <point x="1388" y="155" type="curve"/>
      <point x="1515" y="213" type="line"/>
      <point x="1615" y="264"/>
      <point x="1693" y="332"/>
      <point x="1742" y="415" type="curve" smooth="yes"/>
      <point x="1797" y="507"/>
      <point x="1825" y="613"/>
      <point x="1825" y="734" type="curve" smooth="yes"/>
      <point x="1825" y="1028"/>
      <point x="1679" y="1181"/>
      <point x="1394" y="1181" type="curve" smooth="yes"/>
      <point x="1206" y="1181"/>
      <point x="1088" y="1098"/>
      <point x="1055" y="949" type="curve"/>
      <point x="986" y="949" type="line"/>
      <point x="1109" y="788" type="line"/>
      <point x="1140" y="844"/>
      <point x="1204" y="880"/>
      <point x="1288" y="880" type="curve" smooth="yes"/>
      <point x="1394" y="880"/>
      <point x="1453" y="813"/>
      <point x="1453" y="695" type="curve" smooth="yes"/>
      <point x="1453" y="618"/>
      <point x="1433" y="543"/>
      <point x="1397" y="480" type="curve" smooth="yes"/>
      <point x="1358" y="411"/>
      <point x="1300" y="352"/>
      <point x="1223" y="324" type="curve"/>
      <point x="1123" y="285" type="line"/>
      <point x="1053" y="266"/>
      <point x="976" y="248"/>
      <point x="874" y="248" type="curve" smooth="yes"/>
      <point x="601" y="248"/>
      <point x="466" y="388"/>
      <point x="466" y="656" type="curve" smooth="yes"/>
      <point x="466" y="671" type="line" smooth="yes"/>
      <point x="466" y="814"/>
      <point x="514" y="885"/>
      <point x="614" y="885" type="curve" smooth="yes"/>
      <point x="700" y="885"/>
      <point x="729" y="834"/>
      <point x="744" y="734" type="curve" smooth="yes"/>
    </contour>
  </outline>
</glyph>
<glyph name="chilluZh.mlm" format="2">
  <advance width="1995"/>
  <unicode hex="0D56"/>
  <outline>
    <contour>
      <point x="578" y="1121" type="curve" smooth="yes"/>
      <point x="578" y="964"/>
      <point x="560" y="757"/>
      <point x="507" y="484" type="curve"/>
      <point x="502" y="468"/>
      <point x="498" y="463"/>
      <point x="493" y="447" type="curve"/>
      <point x="465" y="378"/>
      <point x="451" y="324"/>
      <point x="451" y="255" type="curve" smooth="yes"/>
      <point x="451" y="24"/>
      <point x="620" y="-92"/>
      <point x="968" y="-92" type="curve" smooth="yes"/>
      <point x="1325" y="-92"/>
      <point x="1500" y="19"/>
      <point x="1500" y="250" type="curve" smooth="yes"/>
      <point x="1500" y="310"/>
      <point x="1486" y="357"/>
      <point x="1458" y="417" type="curve"/>
      <point x="1433" y="537" type="line"/>
      <point x="1380" y="641"/>
      <point x="1354" y="718"/>
      <point x="1354" y="778" type="curve" smooth="yes"/>
      <point x="1354" y="783" type="line" smooth="yes"/>
      <point x="1354" y="866"/>
      <point x="1394" y="906"/>
      <point x="1470" y="906" type="curve" smooth="yes"/>
      <point x="1547" y="906"/>
      <point x="1586" y="865"/>
      <point x="1586" y="796" type="curve" smooth="yes"/>
      <point x="1586" y="790" type="line" smooth="yes"/>
      <point x="1586" y="649"/>
      <point x="1407" y="590"/>
      <point x="1005" y="590" type="curve" smooth="yes"/>
      <point x="592" y="590"/>
      <point x="410" y="680"/>
      <point x="410" y="882" type="curve" smooth="yes"/>
      <point x="410" y="894" type="line" smooth="yes"/>
      <point x="410" y="970"/>
      <point x="425" y="1041"/>
      <point x="446" y="1118" type="curve"/>
      <point x="106" y="1118" type="line"/>
      <point x="78" y="1055"/>
      <point x="62" y="968"/>
      <point x="62" y="878" type="curve" smooth="yes"/>
      <point x="62" y="857" type="line" smooth="yes"/>
      <point x="62" y="501"/>
      <point x="390" y="327"/>
      <point x="1005" y="327" type="curve" smooth="yes"/>
      <point x="1611" y="327"/>
      <point x="1935" y="477"/>
      <point x="1935" y="792" type="curve" smooth="yes"/>
      <point x="1935" y="799" type="line" smooth="yes"/>
      <point x="1935" y="1059"/>
      <point x="1774" y="1186"/>
      <point x="1462" y="1186" type="curve" smooth="yes"/>
      <point x="1167" y="1186"/>
      <point x="1009" y="1069"/>
      <point x="1009" y="831" type="curve" smooth="yes"/>
      <point x="1009" y="825" type="line" smooth="yes"/>
      <point x="1009" y="723"/>
      <point x="1046" y="630"/>
      <point x="1092" y="565" type="curve"/>
      <point x="1122" y="384" type="line"/>
      <point x="1134" y="345"/>
      <point x="1146" y="320"/>
      <point x="1146" y="280" type="curve" smooth="yes"/>
      <point x="1146" y="213"/>
      <point x="1089" y="176"/>
      <point x="976" y="176" type="curve" smooth="yes"/>
      <point x="860" y="176"/>
      <point x="803" y="218"/>
      <point x="803" y="294" type="curve" smooth="yes"/>
      <point x="803" y="334"/>
      <point x="816" y="359"/>
      <point x="828" y="398" type="curve"/>
      <point x="833" y="442"/>
      <point x="833" y="468"/>
      <point x="838" y="512" type="curve"/>
      <point x="882" y="665"/>
      <point x="912" y="883"/>
      <point x="912" y="1121" type="curve" smooth="yes"/>
      <point x="912" y="1278"/>
      <point x="882" y="1419"/>
      <point x="840" y="1533" type="curve"/>
      <point x="507" y="1533" type="line"/>
      <point x="549" y="1396"/>
      <point x="578" y="1258"/>
    </contour>
  </outline>
</glyph>
<glyph name="lengthAu.mlm" format="2">
  <advance width="1872"/>
  <unicode hex="0D57"/>
  <outline>
    <contour>
      <point x="893" y="260" type="curve" smooth="yes"/>
      <point x="722" y="260"/>
      <point x="618" y="269"/>
      <point x="458" y="304" type="curve"/>
      <point x="529" y="-4" type="line"/>
      <point x="666" y="-32"/>
      <point x="788" y="-46"/>
      <point x="953" y="-46" type="curve" smooth="yes"/>
      <point x="1497" y="-46"/>
      <point x="1792" y="187"/>
      <point x="1792" y="664" type="curve" smooth="yes"/>
      <point x="1792" y="674" type="line" smooth="yes"/>
      <point x="1792" y="1014"/>
      <point x="1618" y="1184"/>
      <point x="1299" y="1184" type="curve" smooth="yes"/>
      <point x="1058" y="1184"/>
      <point x="950" y="1061"/>
      <point x="927" y="906" type="curve"/>
      <point x="918" y="906" type="line"/>
      <point x="893" y="1061"/>
      <point x="787" y="1184"/>
      <point x="546" y="1184" type="curve" smooth="yes"/>
      <point x="236" y="1184"/>
      <point x="69" y="1033"/>
      <point x="69" y="736" type="curve" smooth="yes"/>
      <point x="69" y="718" type="line" smooth="yes"/>
      <point x="69" y="628"/>
      <point x="87" y="543"/>
      <point x="111" y="488" type="curve"/>
      <point x="481" y="488" type="line"/>
      <point x="459" y="550"/>
      <point x="442" y="612"/>
      <point x="442" y="683" type="curve" smooth="yes"/>
      <point x="442" y="700" type="line" smooth="yes"/>
      <point x="442" y="806"/>
      <point x="493" y="859"/>
      <point x="588" y="859" type="curve" smooth="yes"/>
      <point x="688" y="859"/>
      <point x="734" y="799"/>
      <point x="738" y="686" type="curve" smooth="yes"/>
      <point x="745" y="498" type="line"/>
      <point x="1101" y="498" type="line"/>
      <point x="1108" y="686" type="line" smooth="yes"/>
      <point x="1112" y="800"/>
      <point x="1153" y="859"/>
      <point x="1252" y="859" type="curve" smooth="yes"/>
      <point x="1359" y="859"/>
      <point x="1416" y="799"/>
      <point x="1416" y="674" type="curve" smooth="yes"/>
      <point x="1416" y="664" type="line" smooth="yes"/>
      <point x="1416" y="384"/>
      <point x="1256" y="260"/>
    </contour>
  </outline>
</glyph>
<glyph name="onefortieth.mlm" format="2">
  <advance width="2738"/>
  <unicode hex="0D59"/>
  <outline>
    <contour>
      <point x="942" y="891" type="curve" smooth="yes"/>
      <point x="1213" y="891"/>
      <point x="1372" y="780"/>
      <point x="1372" y="539" type="curve" smooth="yes"/>
      <point x="1372" y="500" type="line" smooth="yes"/>
      <point x="1372" y="372"/>
      <point x="1361" y="246"/>
      <point x="1196" y="246" type="curve" smooth="yes"/>
      <point x="1112" y="246"/>
      <point x="1069" y="289"/>
      <point x="1069" y="354" type="curve" smooth="yes"/>
      <point x="1069" y="361" type="line" smooth="yes"/>
      <point x="1069" y="428"/>
      <point x="1117" y="466"/>
      <point x="1201" y="466" type="curve" smooth="yes"/>
      <point x="1588" y="466" type="line"/>
      <point x="1632" y="734" type="line"/>
      <point x="1155" y="734" type="line" smooth="yes"/>
      <point x="868" y="734"/>
      <point x="705" y="605"/>
      <point x="705" y="364" type="curve" smooth="yes"/>
      <point x="705" y="356" type="line" smooth="yes"/>
      <point x="705" y="97"/>
      <point x="875" y="-39"/>
      <point x="1185" y="-39" type="curve" smooth="yes"/>
      <point x="1548" y="-39"/>
      <point x="1726" y="150"/>
      <point x="1726" y="495" type="curve" smooth="yes"/>
      <point x="1726" y="533" type="line" smooth="yes"/>
      <point x="1726" y="961"/>
      <point x="1459" y="1192"/>
      <point x="935" y="1192" type="curve" smooth="yes"/>
      <point x="384" y="1192"/>
      <point x="94" y="938"/>
      <point x="94" y="480" type="curve" smooth="yes"/>
      <point x="94" y="463" type="line" smooth="yes"/>
      <point x="94" y="292"/>
      <point x="140" y="114"/>
      <point x="212" y="0" type="curve"/>
      <point x="596" y="0" type="line"/>
      <point x="512" y="151"/>
      <point x="474" y="289"/>
      <point x="474" y="442" type="curve" smooth="yes"/>
      <point x="474" y="459" type="line" smooth="yes"/>
      <point x="474" y="748"/>
      <point x="634" y="891"/>
    </contour>
    <contour>
      <point x="2136" y="723" type="line"/>
      <point x="2136" y="783" type="line" smooth="yes"/>
      <point x="2136" y="864"/>
      <point x="2173" y="896"/>
      <point x="2252" y="896" type="curve" smooth="yes"/>
      <point x="2321" y="896"/>
      <point x="2356" y="867"/>
      <point x="2356" y="818" type="curve" smooth="yes"/>
      <point x="2356" y="811" type="line" smooth="yes"/>
      <point x="2356" y="762"/>
      <point x="2316" y="736"/>
      <point x="2246" y="736" type="curve" smooth="yes"/>
      <point x="1518" y="736" type="line"/>
      <point x="1690" y="463" type="line"/>
      <point x="2292" y="463" type="line" smooth="yes"/>
      <point x="2565" y="463"/>
      <point x="2720" y="581"/>
      <point x="2720" y="808" type="curve" smooth="yes"/>
      <point x="2720" y="817" type="line" smooth="yes"/>
      <point x="2720" y="1056"/>
      <point x="2558" y="1181"/>
      <point x="2262" y="1181" type="curve" smooth="yes"/>
      <point x="1958" y="1181"/>
      <point x="1806" y="1051"/>
      <point x="1806" y="808" type="curve" smooth="yes"/>
      <point x="1806" y="709" type="line"/>
    </contour>
  </outline>
</glyph>
<glyph name="threeeightieths.mlm" format="2">
  <advance width="2700"/>
  <unicode hex="0D5A"/>
  <outline>
    <contour>
      <point x="738" y="859" type="curve" smooth="yes"/>
      <point x="904" y="859"/>
      <point x="983" y="774"/>
      <point x="983" y="600" type="curve" smooth="yes"/>
      <point x="983" y="410" type="line"/>
      <point x="1169" y="422" type="line"/>
      <point x="1161" y="875" type="line"/>
      <point x="1122" y="1060"/>
      <point x="975" y="1184"/>
      <point x="695" y="1184" type="curve" smooth="yes"/>
      <point x="298" y="1184"/>
      <point x="93" y="971"/>
      <point x="93" y="542" type="curve" smooth="yes"/>
      <point x="93" y="524" type="line" smooth="yes"/>
      <point x="93" y="320"/>
      <point x="147" y="127"/>
      <point x="250" y="0" type="curve"/>
      <point x="636" y="0" type="line"/>
      <point x="529" y="162"/>
      <point x="472" y="334"/>
      <point x="472" y="524" type="curve" smooth="yes"/>
      <point x="472" y="542" type="line" smooth="yes"/>
      <point x="472" y="757"/>
      <point x="557" y="859"/>
    </contour>
    <contour>
      <point x="1134" y="875" type="line"/>
      <point x="983" y="514" type="line"/>
      <point x="983" y="0" type="line"/>
      <point x="1349" y="0" type="line"/>
      <point x="1349" y="502" type="line" smooth="yes"/>
      <point x="1349" y="798"/>
      <point x="1473" y="903"/>
      <point x="1780" y="903" type="curve" smooth="yes"/>
      <point x="2055" y="903"/>
      <point x="2212" y="799"/>
      <point x="2212" y="502" type="curve" smooth="yes"/>
      <point x="2212" y="0" type="line"/>
      <point x="2580" y="0" type="line"/>
      <point x="2580" y="507" type="line" smooth="yes"/>
      <point x="2580" y="954"/>
      <point x="2312" y="1184"/>
      <point x="1808" y="1184" type="curve" smooth="yes"/>
      <point x="1428" y="1184"/>
      <point x="1232" y="1062"/>
      <point x="1170" y="875" type="curve"/>
    </contour>
    <contour>
      <point x="1162" y="262" type="line"/>
      <point x="1009" y="0" type="line"/>
      <point x="2539" y="0" type="line"/>
      <point x="2403" y="262" type="line"/>
    </contour>
    <contour>
      <point x="2001.03" y="602" type="line" smooth="yes"/>
      <point x="2001.03" y="808.195"/>
      <point x="1839.2" y="919"/>
      <point x="1605.03" y="919" type="curve" smooth="yes"/>
      <point x="1557.53" y="919"/>
      <point x="1505.96" y="916.75"/>
      <point x="1453.03" y="901" type="curve"/>
      <point x="1367.03" y="740" type="line"/>
      <point x="1405.18" y="763.571"/>
      <point x="1446.28" y="773"/>
      <point x="1480.03" y="773" type="curve" smooth="yes"/>
      <point x="1584.45" y="773"/>
      <point x="1627.03" y="699.2"/>
      <point x="1627.03" y="609" type="curve" smooth="yes"/>
      <point x="1627.03" y="602" type="line" smooth="yes"/>
      <point x="1627.03" y="465"/>
      <point x="1552.03" y="334"/>
      <point x="1439.03" y="259" type="curve"/>
      <point x="1722.03" y="192" type="line"/>
      <point x="1902.03" y="268"/>
      <point x="2001.03" y="416"/>
      <point x="2001.03" y="592" type="curve" smooth="yes"/>
    </contour>
  </outline>
</glyph>
<glyph name="onetenth.mlm" format="2">
  <advance width="3725"/>
  <unicode hex="0D5C"/>
  <outline>
    <contour>
      <point x="2450" y="463" type="curve" smooth="yes"/>
      <point x="2450" y="130"/>
      <point x="2643" y="-40"/>
      <point x="3027" y="-40" type="curve" smooth="yes"/>
      <point x="3423" y="-40"/>
      <point x="3631" y="160"/>
      <point x="3631" y="563" type="curve" smooth="yes"/>
      <point x="3631" y="581" type="line" smooth="yes"/>
      <point x="3631" y="796"/>
      <point x="3562" y="1001"/>
      <point x="3429" y="1133" type="curve"/>
      <point x="3054" y="1133" type="line"/>
      <point x="3185" y="966"/>
      <point x="3253" y="787"/>
      <point x="3253" y="590" type="curve" smooth="yes"/>
      <point x="3253" y="572" type="line" smooth="yes"/>
      <point x="3253" y="377"/>
      <point x="3177" y="282"/>
      <point x="3027" y="282" type="curve" smooth="yes"/>
      <point x="2891" y="282"/>
      <point x="2823" y="353"/>
      <point x="2823" y="496" type="curve" smooth="yes"/>
      <point x="2823" y="570"/>
      <point x="2823" y="610"/>
      <point x="2823" y="686" type="curve" smooth="yes"/>
      <point x="2823" y="1017"/>
      <point x="2631" y="1186"/>
      <point x="2249" y="1186" type="curve" smooth="yes"/>
      <point x="1867" y="1186"/>
      <point x="1674" y="1017"/>
      <point x="1674" y="686" type="curve" smooth="yes"/>
      <point x="1674" y="609"/>
      <point x="1674" y="567"/>
      <point x="1674" y="491" type="curve" smooth="yes"/>
      <point x="1674" y="352"/>
      <point x="1609" y="282"/>
      <point x="1479" y="282" type="curve" smooth="yes"/>
      <point x="1349" y="282"/>
      <point x="1284" y="352"/>
      <point x="1284" y="491" type="curve" smooth="yes"/>
      <point x="1284" y="565"/>
      <point x="1284" y="607"/>
      <point x="1284" y="683" type="curve" smooth="yes"/>
      <point x="1284" y="1016"/>
      <point x="1090" y="1186"/>
      <point x="706" y="1186" type="curve" smooth="yes"/>
      <point x="304" y="1186"/>
      <point x="93" y="979"/>
      <point x="93" y="565" type="curve" smooth="yes"/>
      <point x="93" y="540" type="line" smooth="yes"/>
      <point x="93" y="332"/>
      <point x="156" y="128"/>
      <point x="268" y="0" type="curve"/>
      <point x="660" y="0" type="line"/>
      <point x="541" y="165"/>
      <point x="472" y="346"/>
      <point x="472" y="540" type="curve" smooth="yes"/>
      <point x="472" y="556" type="line" smooth="yes"/>
      <point x="472" y="762"/>
      <point x="553" y="864"/>
      <point x="706" y="864" type="curve" smooth="yes"/>
      <point x="844" y="864"/>
      <point x="911" y="792"/>
      <point x="911" y="648" type="curve" smooth="yes"/>
      <point x="911" y="576"/>
      <point x="911" y="532"/>
      <point x="911" y="458" type="curve" smooth="yes"/>
      <point x="911" y="129"/>
      <point x="1102" y="-40"/>
      <point x="1479" y="-40" type="curve" smooth="yes"/>
      <point x="1856" y="-40"/>
      <point x="2047" y="129"/>
      <point x="2047" y="458" type="curve" smooth="yes"/>
      <point x="2047" y="532"/>
      <point x="2047" y="576"/>
      <point x="2047" y="648" type="curve" smooth="yes"/>
      <point x="2047" y="792"/>
      <point x="2113" y="864"/>
      <point x="2249" y="864" type="curve" smooth="yes"/>
      <point x="2385" y="864"/>
      <point x="2450" y="792"/>
      <point x="2450" y="648" type="curve" smooth="yes"/>
      <point x="2450" y="578"/>
      <point x="2450" y="535"/>
    </contour>
  </outline>
</glyph>
<glyph name="threetwentieths.mlm" format="2">
  <advance width="4855"/>
  <unicode hex="0D5D"/>
  <outline>
    <contour>
      <point x="487" y="547" type="line"/>
      <point x="860" y="558" type="line"/>
      <point x="860" y="1137" type="line"/>
      <point x="487" y="1137" type="line"/>
    </contour>
    <contour>
      <point x="297" y="-40" type="curve" smooth="yes"/>
      <point x="540" y="-40"/>
      <point x="644" y="101"/>
      <point x="669" y="275" type="curve"/>
      <point x="742" y="275" type="line"/>
      <point x="742" y="706" type="line"/>
      <point x="487" y="718" type="line"/>
      <point x="487" y="526" type="line" smooth="yes"/>
      <point x="487" y="359"/>
      <point x="415" y="276"/>
      <point x="267" y="276" type="curve" smooth="yes"/>
      <point x="151" y="276"/>
      <point x="70" y="292"/>
      <point x="10" y="313" type="curve"/>
      <point x="91" y="-5" type="line"/>
      <point x="144" y="-26"/>
      <point x="220" y="-40"/>
    </contour>
    <contour>
      <point x="1835" y="1186" type="curve" smooth="yes"/>
      <point x="1451" y="1186"/>
      <point x="1260" y="1016"/>
      <point x="1260" y="683" type="curve" smooth="yes"/>
      <point x="1260" y="607"/>
      <point x="1260" y="565"/>
      <point x="1260" y="491" type="curve" smooth="yes"/>
      <point x="1260" y="355"/>
      <point x="1196" y="287"/>
      <point x="1064" y="287" type="curve" smooth="yes"/>
      <point x="928" y="287"/>
      <point x="860" y="354"/>
      <point x="860" y="491" type="curve" smooth="yes"/>
      <point x="860" y="718" type="line"/>
      <point x="703" y="706" type="line"/>
      <point x="678" y="275" type="line"/>
      <point x="708" y="95"/>
      <point x="835" y="-40"/>
      <point x="1120" y="-40" type="curve" smooth="yes"/>
      <point x="1460" y="-40"/>
      <point x="1633" y="129"/>
      <point x="1633" y="458" type="curve" smooth="yes"/>
      <point x="1633" y="532"/>
      <point x="1633" y="576"/>
      <point x="1633" y="648" type="curve" smooth="yes"/>
      <point x="1633" y="792"/>
      <point x="1699" y="864"/>
      <point x="1837" y="864" type="curve" smooth="yes"/>
      <point x="1975" y="864"/>
      <point x="2039" y="792"/>
      <point x="2039" y="648" type="curve" smooth="yes"/>
      <point x="2039" y="576"/>
      <point x="2039" y="532"/>
      <point x="2039" y="458" type="curve" smooth="yes"/>
      <point x="2039" y="129"/>
      <point x="2230" y="-40"/>
      <point x="2607" y="-40" type="curve" smooth="yes"/>
      <point x="2984" y="-40"/>
      <point x="3175" y="129"/>
      <point x="3175" y="458" type="curve" smooth="yes"/>
      <point x="3175" y="532"/>
      <point x="3175" y="576"/>
      <point x="3175" y="648" type="curve" smooth="yes"/>
      <point x="3175" y="792"/>
      <point x="3241" y="864"/>
      <point x="3377" y="864" type="curve" smooth="yes"/>
      <point x="3513" y="864"/>
      <point x="3579" y="792"/>
      <point x="3579" y="648" type="curve" smooth="yes"/>
      <point x="3579" y="578"/>
      <point x="3579" y="535"/>
      <point x="3579" y="463" type="curve" smooth="yes"/>
      <point x="3579" y="130"/>
      <point x="3772" y="-40"/>
      <point x="4156" y="-40" type="curve" smooth="yes"/>
      <point x="4552" y="-40"/>
      <point x="4761" y="160"/>
      <point x="4761" y="563" type="curve" smooth="yes"/>
      <point x="4761" y="581" type="line" smooth="yes"/>
      <point x="4761" y="796"/>
      <point x="4691" y="1001"/>
      <point x="4558" y="1133" type="curve"/>
      <point x="4183" y="1133" type="line"/>
      <point x="4314" y="966"/>
      <point x="4382" y="787"/>
      <point x="4382" y="590" type="curve" smooth="yes"/>
      <point x="4382" y="572" type="line" smooth="yes"/>
      <point x="4382" y="377"/>
      <point x="4306" y="282"/>
      <point x="4156" y="282" type="curve" smooth="yes"/>
      <point x="4020" y="282"/>
      <point x="3952" y="353"/>
      <point x="3952" y="496" type="curve" smooth="yes"/>
      <point x="3952" y="570"/>
      <point x="3952" y="610"/>
      <point x="3952" y="686" type="curve" smooth="yes"/>
      <point x="3952" y="1017"/>
      <point x="3759" y="1186"/>
      <point x="3377" y="1186" type="curve" smooth="yes"/>
      <point x="2995" y="1186"/>
      <point x="2802" y="1017"/>
      <point x="2802" y="686" type="curve" smooth="yes"/>
      <point x="2802" y="609"/>
      <point x="2802" y="567"/>
      <point x="2802" y="491" type="curve" smooth="yes"/>
      <point x="2802" y="352"/>
      <point x="2737" y="282"/>
      <point x="2607" y="282" type="curve" smooth="yes"/>
      <point x="2477" y="282"/>
      <point x="2412" y="352"/>
      <point x="2412" y="491" type="curve" smooth="yes"/>
      <point x="2412" y="565"/>
      <point x="2412" y="607"/>
      <point x="2412" y="683" type="curve" smooth="yes"/>
      <point x="2412" y="1016"/>
      <point x="2219" y="1186"/>
    </contour>
  </outline>
</glyph>
<glyph name="onefifth.mlm" format="2">
  <advance width="3394"/>
  <unicode hex="0D5E"/>
  <outline>
    <contour>
      <point x="2384" y="862" type="line"/>
      <point x="2748" y="1137" type="line"/>
      <point x="1806" y="1137" type="line"/>
      <point x="2100" y="862" type="line"/>
    </contour>
    <contour>
      <point x="2848" y="744" type="curve" smooth="yes"/>
      <point x="2734" y="744"/>
      <point x="2686" y="801"/>
      <point x="2686" y="915" type="curve" smooth="yes"/>
      <point x="2686" y="920" type="line" smooth="yes"/>
      <point x="2686" y="983"/>
      <point x="2706" y="1049"/>
      <point x="2748" y="1118" type="curve"/>
      <point x="2748" y="1137" type="line"/>
      <point x="2532" y="1119" type="line"/>
      <point x="2418" y="1040"/>
      <point x="2356" y="915"/>
      <point x="2356" y="822" type="curve" smooth="yes"/>
      <point x="2356" y="813" type="line" smooth="yes"/>
      <point x="2356" y="561"/>
      <point x="2528" y="440"/>
      <point x="2847" y="440" type="curve" smooth="yes"/>
      <point x="3181" y="440"/>
      <point x="3357" y="581"/>
      <point x="3357" y="878" type="curve" smooth="yes"/>
      <point x="3357" y="887" type="line" smooth="yes"/>
      <point x="3357" y="977"/>
      <point x="3333" y="1070"/>
      <point x="3285" y="1137" type="curve"/>
      <point x="2949" y="1137" type="line"/>
      <point x="2993" y="1061"/>
      <point x="3010" y="989"/>
      <point x="3010" y="920" type="curve" smooth="yes"/>
      <point x="3010" y="915" type="line" smooth="yes"/>
      <point x="3010" y="801"/>
      <point x="2962" y="744"/>
    </contour>
    <contour>
      <point x="1870" y="899" type="line" smooth="yes"/>
      <point x="1870" y="792"/>
      <point x="1814" y="736"/>
      <point x="1715" y="736" type="curve" smooth="yes"/>
      <point x="1518" y="736" type="line"/>
      <point x="1690" y="463" type="line"/>
      <point x="1780" y="463" type="line" smooth="yes"/>
      <point x="2048" y="463"/>
      <point x="2199" y="582"/>
      <point x="2199" y="813" type="curve" smooth="yes"/>
      <point x="2199" y="822" type="line" smooth="yes"/>
      <point x="2199" y="915"/>
      <point x="2137" y="1040"/>
      <point x="2023" y="1119" type="curve"/>
      <point x="1806" y="1137" type="line"/>
      <point x="1806" y="1118" type="line"/>
      <point x="1848" y="1042"/>
      <point x="1870" y="975"/>
      <point x="1870" y="906" type="curve" smooth="yes"/>
    </contour>
    <contour>
      <point x="942" y="891" type="curve" smooth="yes"/>
      <point x="1213" y="891"/>
      <point x="1372" y="780"/>
      <point x="1372" y="539" type="curve" smooth="yes"/>
      <point x="1372" y="500" type="line" smooth="yes"/>
      <point x="1372" y="372"/>
      <point x="1361" y="246"/>
      <point x="1196" y="246" type="curve" smooth="yes"/>
      <point x="1112" y="246"/>
      <point x="1069" y="289"/>
      <point x="1069" y="354" type="curve" smooth="yes"/>
      <point x="1069" y="361" type="line" smooth="yes"/>
      <point x="1069" y="428"/>
      <point x="1117" y="466"/>
      <point x="1201" y="466" type="curve" smooth="yes"/>
      <point x="1588" y="466" type="line"/>
      <point x="1632" y="734" type="line"/>
      <point x="1155" y="734" type="line" smooth="yes"/>
      <point x="868" y="734"/>
      <point x="705" y="605"/>
      <point x="705" y="364" type="curve" smooth="yes"/>
      <point x="705" y="356" type="line" smooth="yes"/>
      <point x="705" y="97"/>
      <point x="875" y="-39"/>
      <point x="1185" y="-39" type="curve" smooth="yes"/>
      <point x="1548" y="-39"/>
      <point x="1726" y="150"/>
      <point x="1726" y="495" type="curve" smooth="yes"/>
      <point x="1726" y="533" type="line" smooth="yes"/>
      <point x="1726" y="961"/>
      <point x="1459" y="1192"/>
      <point x="935" y="1192" type="curve" smooth="yes"/>
      <point x="384" y="1192"/>
      <point x="94" y="938"/>
      <point x="94" y="480" type="curve" smooth="yes"/>
      <point x="94" y="463" type="line" smooth="yes"/>
      <point x="94" y="292"/>
      <point x="140" y="114"/>
      <point x="212" y="0" type="curve"/>
      <point x="596" y="0" type="line"/>
      <point x="512" y="151"/>
      <point x="474" y="289"/>
      <point x="474" y="442" type="curve" smooth="yes"/>
      <point x="474" y="459" type="line" smooth="yes"/>
      <point x="474" y="748"/>
      <point x="634" y="891"/>
    </contour>
  </outline>
</glyph>
<glyph name="vowelLruu.mlm" format="2">
  <advance width="3468"/>
  <unicode hex="0D61"/>
  <outline>
    <contour>
      <point x="2775" y="522" type="line"/>
      <point x="2967" y="508"/>
      <point x="3043" y="368"/>
      <point x="3043" y="227" type="curve" smooth="yes"/>
      <point x="3043" y="218" type="line" smooth="yes"/>
      <point x="3043" y="-48"/>
      <point x="2866" y="-182"/>
      <point x="2510" y="-182" type="curve" smooth="yes"/>
      <point x="2316" y="-182"/>
      <point x="2165" y="-162"/>
      <point x="1989" y="-99" type="curve"/>
      <point x="2052" y="-393" type="line"/>
      <point x="2200" y="-448"/>
      <point x="2362" y="-470"/>
      <point x="2543" y="-470" type="curve" smooth="yes"/>
      <point x="3110" y="-470"/>
      <point x="3398" y="-247"/>
      <point x="3398" y="197" type="curve" smooth="yes"/>
      <point x="3398" y="209" type="line" smooth="yes"/>
      <point x="3398" y="547"/>
      <point x="3160" y="778"/>
      <point x="2752" y="792" type="curve"/>
    </contour>
    <contour>
      <point x="2133" y="883" type="curve" smooth="yes"/>
      <point x="2328" y="883"/>
      <point x="2457" y="830"/>
      <point x="2522" y="751" type="curve"/>
      <point x="2543" y="612" type="line"/>
      <point x="2543" y="572"/>
      <point x="2543" y="548"/>
      <point x="2543" y="508" type="curve" smooth="yes"/>
      <point x="2543" y="487" type="line" smooth="yes"/>
      <point x="2543" y="336"/>
      <point x="2496" y="273"/>
      <point x="2378" y="273" type="curve" smooth="yes"/>
      <point x="2285" y="273"/>
      <point x="2240" y="322"/>
      <point x="2240" y="394" type="curve" smooth="yes"/>
      <point x="2240" y="399" type="line" smooth="yes"/>
      <point x="2240" y="485"/>
      <point x="2301" y="540"/>
      <point x="2452" y="540" type="curve" smooth="yes"/>
      <point x="2494" y="540"/>
      <point x="2524" y="539"/>
      <point x="2568" y="535" type="curve"/>
      <point x="2617" y="776" type="line"/>
      <point x="2584" y="785"/>
      <point x="2483" y="801"/>
      <point x="2413" y="801" type="curve" smooth="yes"/>
      <point x="2084" y="801"/>
      <point x="1878" y="665"/>
      <point x="1878" y="385" type="curve" smooth="yes"/>
      <point x="1878" y="373" type="line" smooth="yes"/>
      <point x="1878" y="123"/>
      <point x="2054" y="-11"/>
      <point x="2374" y="-11" type="curve" smooth="yes"/>
      <point x="2731" y="-11"/>
      <point x="2895" y="167"/>
      <point x="2895" y="496" type="curve" smooth="yes"/>
      <point x="2895" y="510" type="line" smooth="yes"/>
      <point x="2895" y="550"/>
      <point x="2895" y="572"/>
      <point x="2895" y="612" type="curve"/>
      <point x="2890" y="644" type="line" smooth="yes"/>
      <point x="2841" y="980"/>
      <point x="2593" y="1182"/>
      <point x="2144" y="1182" type="curve" smooth="yes"/>
      <point x="1757" y="1182"/>
      <point x="1564" y="1043"/>
      <point x="1509" y="855" type="curve"/>
      <point x="1457" y="855" type="line"/>
      <point x="1471" y="491" type="line"/>
      <point x="1689" y="429" type="line"/>
      <point x="1689" y="537" type="line" smooth="yes"/>
      <point x="1689" y="769"/>
      <point x="1843" y="883"/>
    </contour>
    <contour>
      <point x="879" y="1184" type="curve" smooth="yes"/>
      <point x="349" y="1184"/>
      <point x="85" y="942"/>
      <point x="85" y="498" type="curve" smooth="yes"/>
      <point x="85" y="477" type="line" smooth="yes"/>
      <point x="85" y="143"/>
      <point x="270" y="-39"/>
      <point x="624" y="-39" type="curve" smooth="yes"/>
      <point x="960" y="-39"/>
      <point x="1134" y="97"/>
      <point x="1134" y="361" type="curve" smooth="yes"/>
      <point x="1134" y="370" type="line" smooth="yes"/>
      <point x="1134" y="609"/>
      <point x="1004" y="734"/>
      <point x="789" y="734" type="curve" smooth="yes"/>
      <point x="597" y="734"/>
      <point x="480" y="650"/>
      <point x="443" y="488" type="curve"/>
      <point x="455" y="385" type="line"/>
      <point x="487" y="429"/>
      <point x="547" y="454"/>
      <point x="624" y="454" type="curve" smooth="yes"/>
      <point x="721" y="454"/>
      <point x="770" y="421"/>
      <point x="770" y="356" type="curve" smooth="yes"/>
      <point x="770" y="348" type="line" smooth="yes"/>
      <point x="770" y="283"/>
      <point x="717" y="245"/>
      <point x="624" y="245" type="curve" smooth="yes"/>
      <point x="513" y="245"/>
      <point x="457" y="296"/>
      <point x="457" y="398" type="curve" smooth="yes"/>
      <point x="457" y="414" type="line"/>
      <point x="456" y="500" type="line"/>
      <point x="436" y="500" type="line"/>
      <point x="436" y="505" type="line" smooth="yes"/>
      <point x="436" y="765"/>
      <point x="597" y="884"/>
      <point x="886" y="884" type="curve" smooth="yes"/>
      <point x="1168" y="884"/>
      <point x="1317" y="770"/>
      <point x="1317" y="539" type="curve" smooth="yes"/>
      <point x="1317" y="493" type="line"/>
      <point x="1501" y="493" type="line"/>
      <point x="1500" y="857" type="line"/>
      <point x="1449" y="1044"/>
      <point x="1257" y="1184"/>
    </contour>
    <contour>
      <point x="1317" y="4" type="line"/>
      <point x="1689" y="4" type="line"/>
      <point x="1689" y="523" type="line"/>
      <point x="1317" y="519" type="line"/>
    </contour>
  </outline>
</glyph>
<glyph name="uni0D63" format="2">
  <unicode hex="0D63"/>
  <outline>
    <contour>
      <point x="-138" y="-107" type="curve"/>
      <point x="-160" y="-299" type="line"/>
      <point x="-51" y="-321"/>
      <point x="-1" y="-359"/>
      <point x="-1" y="-438" type="curve" smooth="yes"/>
      <point x="-1" y="-444" type="line" smooth="yes"/>
      <point x="-1" y="-564"/>
      <point x="-121" y="-623"/>
      <point x="-361" y="-623" type="curve" smooth="yes"/>
      <point x="-482" y="-623"/>
      <point x="-579" y="-611"/>
      <point x="-695" y="-574" type="curve"/>
      <point x="-658" y="-762" type="line"/>
      <point x="-561" y="-794"/>
      <point x="-457" y="-806"/>
      <point x="-339" y="-806" type="curve" smooth="yes"/>
      <point x="53" y="-806"/>
      <point x="252" y="-681"/>
      <point x="252" y="-445" type="curve" smooth="yes"/>
      <point x="252" y="-438" type="line" smooth="yes"/>
      <point x="252" y="-234"/>
      <point x="99" y="-136"/>
    </contour>
    <contour>
      <point x="-606" y="-44" type="curve" smooth="yes"/>
      <point x="-476" y="-44"/>
      <point x="-392" y="-66"/>
      <point x="-346" y="-122" type="curve"/>
      <point x="-324" y="-168" type="line"/>
      <point x="-320" y="-187"/>
      <point x="-319" y="-209"/>
      <point x="-319" y="-234" type="curve" smooth="yes"/>
      <point x="-319" y="-250" type="line" smooth="yes"/>
      <point x="-319" y="-319"/>
      <point x="-351" y="-359"/>
      <point x="-439" y="-359" type="curve" smooth="yes"/>
      <point x="-488" y="-359"/>
      <point x="-518" y="-346"/>
      <point x="-518" y="-315" type="curve"/>
      <point x="-518" y="-313" type="line"/>
      <point x="-518" y="-279"/>
      <point x="-486" y="-266"/>
      <point x="-428" y="-266" type="curve" smooth="yes"/>
      <point x="-379" y="-266"/>
      <point x="-311" y="-267"/>
      <point x="-245" y="-273" type="curve"/>
      <point x="-255" y="-117" type="line"/>
      <point x="-316" y="-102"/>
      <point x="-382" y="-93"/>
      <point x="-462" y="-93" type="curve" smooth="yes"/>
      <point x="-659" y="-93"/>
      <point x="-782" y="-162"/>
      <point x="-782" y="-320" type="curve"/>
      <point x="-782" y="-322" type="line"/>
      <point x="-782" y="-471"/>
      <point x="-664" y="-540"/>
      <point x="-441" y="-540" type="curve" smooth="yes"/>
      <point x="-195" y="-540"/>
      <point x="-73" y="-443"/>
      <point x="-73" y="-257" type="curve" smooth="yes"/>
      <point x="-73" y="-246" type="line" smooth="yes"/>
      <point x="-73" y="-222"/>
      <point x="-75" y="-199"/>
      <point x="-78" y="-177" type="curve"/>
      <point x="-83" y="-149" type="line"/>
      <point x="-125" y="39"/>
      <point x="-294" y="148"/>
      <point x="-590" y="148" type="curve" smooth="yes"/>
      <point x="-828" y="148"/>
      <point x="-992" y="89"/>
      <point x="-1048" y="-29" type="curve"/>
      <point x="-1111" y="-29" type="line"/>
      <point x="-1105" y="-334" type="line"/>
      <point x="-914" y="-331" type="line"/>
      <point x="-914" y="-260" type="line" smooth="yes"/>
      <point x="-914" y="-119"/>
      <point x="-812" y="-44"/>
    </contour>
    <contour>
      <point x="-1189" y="-558" type="line"/>
      <point x="-914" y="-558" type="line"/>
      <point x="-914" y="-268" type="line"/>
      <point x="-1189" y="-266" type="line"/>
    </contour>
    <contour>
      <point x="-1518" y="148" type="curve" smooth="yes"/>
      <point x="-1895" y="148"/>
      <point x="-2085" y="12"/>
      <point x="-2085" y="-264" type="curve" smooth="yes"/>
      <point x="-2085" y="-275" type="line" smooth="yes"/>
      <point x="-2085" y="-479"/>
      <point x="-1956" y="-584"/>
      <point x="-1695" y="-584" type="curve" smooth="yes"/>
      <point x="-1451" y="-584"/>
      <point x="-1320" y="-503"/>
      <point x="-1320" y="-332" type="curve"/>
      <point x="-1320" y="-331" type="line"/>
      <point x="-1320" y="-188"/>
      <point x="-1422" y="-107"/>
      <point x="-1585" y="-107" type="curve" smooth="yes"/>
      <point x="-1709" y="-107"/>
      <point x="-1796" y="-158"/>
      <point x="-1822" y="-255" type="curve"/>
      <point x="-1816" y="-325" type="line"/>
      <point x="-1788" y="-299"/>
      <point x="-1748" y="-286"/>
      <point x="-1696" y="-286" type="curve" smooth="yes"/>
      <point x="-1630" y="-286"/>
      <point x="-1595" y="-305"/>
      <point x="-1595" y="-343" type="curve"/>
      <point x="-1595" y="-345" type="line"/>
      <point x="-1595" y="-385"/>
      <point x="-1635" y="-403"/>
      <point x="-1698" y="-403" type="curve" smooth="yes"/>
      <point x="-1769" y="-403"/>
      <point x="-1809" y="-376"/>
      <point x="-1809" y="-322" type="curve" smooth="yes"/>
      <point x="-1809" y="-290" type="line"/>
      <point x="-1817" y="-241" type="line"/>
      <point x="-1823" y="-241" type="line"/>
      <point x="-1823" y="-113.825"/>
      <point x="-1705.97" y="-44"/>
      <point x="-1507" y="-44" type="curve" smooth="yes"/>
      <point x="-1294" y="-44"/>
      <point x="-1189" y="-119"/>
      <point x="-1189" y="-260" type="curve" smooth="yes"/>
      <point x="-1189" y="-331" type="line"/>
      <point x="-998" y="-334" type="line"/>
      <point x="-1055" y="-29" type="line"/>
      <point x="-1113" y="89"/>
      <point x="-1281" y="148"/>
    </contour>
  </outline>
</glyph>
<glyph name="one.mlm" format="2">
  <advance width="1947"/>
  <unicode hex="0D67"/>
  <outline>
    <contour>
      <point x="826" y="287" type="line"/>
      <point x="724" y="0" type="line"/>
      <point x="1827" y="0" type="line"/>
      <point x="1827" y="625" type="line" smooth="yes"/>
      <point x="1827" y="997"/>
      <point x="1621" y="1190"/>
      <point x="1221" y="1190" type="curve" smooth="yes"/>
      <point x="821" y="1190"/>
      <point x="615" y="997"/>
      <point x="615" y="625" type="curve" smooth="yes"/>
      <point x="615" y="0" type="line"/>
      <point x="988" y="0" type="line"/>
      <point x="988" y="625" type="line" smooth="yes"/>
      <point x="988" y="786"/>
      <point x="1067" y="868"/>
      <point x="1222" y="868" type="curve" smooth="yes"/>
      <point x="1377" y="868"/>
      <point x="1454" y="786"/>
      <point x="1454" y="625" type="curve" smooth="yes"/>
      <point x="1454" y="287" type="line"/>
    </contour>
    <contour>
      <point x="734" y="287" type="line"/>
      <point x="398" y="287" type="line" smooth="yes"/>
      <point x="108" y="287"/>
      <point x="-35" y="161"/>
      <point x="-35" y="-70" type="curve" smooth="yes"/>
      <point x="-35" y="-297"/>
      <point x="108" y="-424"/>
      <point x="398" y="-424" type="curve" smooth="yes"/>
      <point x="734" y="-424" type="line"/>
      <point x="781" y="-141" type="line"/>
      <point x="431" y="-141" type="line" smooth="yes"/>
      <point x="368" y="-141"/>
      <point x="336" y="-119"/>
      <point x="336" y="-70" type="curve" smooth="yes"/>
      <point x="336" y="-21"/>
      <point x="368" y="0"/>
      <point x="431" y="0" type="curve" smooth="yes"/>
      <point x="781" y="0" type="line"/>
    </contour>
  </outline>
</glyph>
<glyph name="three.mlm" format="2">
  <advance width="2739"/>
  <unicode hex="0D69"/>
  <outline>
    <contour>
      <point x="970" y="532" type="line"/>
      <point x="970" y="4" type="line"/>
      <point x="1343" y="4" type="line"/>
      <point x="1343" y="532" type="line"/>
    </contour>
    <contour>
      <point x="93" y="542" type="curve" smooth="yes"/>
      <point x="93" y="524" type="line" smooth="yes"/>
      <point x="93" y="320"/>
      <point x="147" y="127"/>
      <point x="250" y="0" type="curve"/>
      <point x="636" y="0" type="line"/>
      <point x="529" y="162"/>
      <point x="472" y="334"/>
      <point x="472" y="524" type="curve" smooth="yes"/>
      <point x="472" y="542" type="line" smooth="yes"/>
      <point x="472" y="757"/>
      <point x="557" y="859"/>
      <point x="732" y="859" type="curve" smooth="yes"/>
      <point x="893" y="859"/>
      <point x="970" y="772"/>
      <point x="970" y="598" type="curve" smooth="yes"/>
      <point x="970" y="410" type="line"/>
      <point x="1153" y="410" type="line"/>
      <point x="1152" y="861" type="line"/>
      <point x="1120" y="1044"/>
      <point x="980" y="1184"/>
      <point x="690" y="1184" type="curve" smooth="yes"/>
      <point x="298" y="1184"/>
      <point x="93" y="971"/>
    </contour>
    <contour>
      <point x="2221" y="581" type="line" smooth="yes"/>
      <point x="2221" y="986"/>
      <point x="2017" y="1184"/>
      <point x="1622" y="1184" type="curve" smooth="yes"/>
      <point x="1332" y="1184"/>
      <point x="1190" y="1044"/>
      <point x="1160" y="861" type="curve"/>
      <point x="1088" y="861" type="line"/>
      <point x="1088" y="422" type="line"/>
      <point x="1343" y="410" type="line"/>
      <point x="1343" y="598" type="line" smooth="yes"/>
      <point x="1343" y="772"/>
      <point x="1420" y="859"/>
      <point x="1579" y="859" type="curve" smooth="yes"/>
      <point x="1756" y="859"/>
      <point x="1841" y="757"/>
      <point x="1841" y="542" type="curve" smooth="yes"/>
      <point x="1841" y="524" type="line" smooth="yes"/>
      <point x="1841" y="341"/>
      <point x="1790" y="176"/>
      <point x="1689" y="19" type="curve"/>
      <point x="1689" y="0" type="line"/>
      <point x="1942" y="0" type="line"/>
      <point x="2128" y="136"/>
      <point x="2221" y="343"/>
      <point x="2221" y="563" type="curve" smooth="yes"/>
    </contour>
    <contour>
      <point x="2032" y="287" type="line"/>
      <point x="1689" y="0" type="line"/>
      <point x="2655" y="0" type="line"/>
      <point x="2704" y="287" type="line"/>
    </contour>
  </outline>
</glyph>
<glyph name="four.mlm" format="2">
  <advance width="1849"/>
  <unicode hex="0D6A"/>
  <outline>
    <contour>
      <point x="724" y="408" type="curve" smooth="yes"/>
      <point x="724" y="387" type="line" smooth="yes"/>
      <point x="724" y="111"/>
      <point x="898" y="-39"/>
      <point x="1233" y="-39" type="curve" smooth="yes"/>
      <point x="1581" y="-39"/>
      <point x="1764" y="139"/>
      <point x="1764" y="466" type="curve" smooth="yes"/>
      <point x="1764" y="488" type="line" smooth="yes"/>
      <point x="1764" y="743"/>
      <point x="1654" y="913"/>
      <point x="1497" y="1024" type="curve"/>
      <point x="1379" y="1091" type="line"/>
      <point x="1242" y="1154"/>
      <point x="1085" y="1188"/>
      <point x="914" y="1188" type="curve" smooth="yes"/>
      <point x="375" y="1188"/>
      <point x="94" y="936"/>
      <point x="94" y="480" type="curve" smooth="yes"/>
      <point x="94" y="463" type="line" smooth="yes"/>
      <point x="94" y="292"/>
      <point x="140" y="114"/>
      <point x="212" y="0" type="curve"/>
      <point x="596" y="0" type="line"/>
      <point x="512" y="151"/>
      <point x="474" y="289"/>
      <point x="474" y="442" type="curve" smooth="yes"/>
      <point x="474" y="459" type="line" smooth="yes"/>
      <point x="474" y="748"/>
      <point x="633" y="891"/>
      <point x="920" y="891" type="curve" smooth="yes"/>
      <point x="997" y="891"/>
      <point x="1071" y="880"/>
      <point x="1134" y="859" type="curve"/>
      <point x="1251" y="797" type="line"/>
      <point x="1338" y="730"/>
      <point x="1390" y="627"/>
      <point x="1390" y="477" type="curve" smooth="yes"/>
      <point x="1390" y="466" type="line" smooth="yes"/>
      <point x="1390" y="332"/>
      <point x="1342" y="255"/>
      <point x="1235" y="255" type="curve" smooth="yes"/>
      <point x="1147" y="255"/>
      <point x="1096" y="303"/>
      <point x="1096" y="400" type="curve" smooth="yes"/>
      <point x="1096" y="408" type="line" smooth="yes"/>
      <point x="1096" y="549"/>
      <point x="1176" y="651"/>
      <point x="1378" y="794" type="curve"/>
      <point x="1487" y="901" type="line"/>
      <point x="1623" y="1012"/>
      <point x="1719" y="1135"/>
      <point x="1719" y="1316" type="curve" smooth="yes"/>
      <point x="1719" y="1392"/>
      <point x="1698" y="1468"/>
      <point x="1668" y="1524" type="curve"/>
      <point x="1343" y="1524" type="line"/>
      <point x="1375" y="1455"/>
      <point x="1387" y="1393"/>
      <point x="1387" y="1324" type="curve" smooth="yes"/>
      <point x="1387" y="1211"/>
      <point x="1333" y="1128"/>
      <point x="1233" y="1045" type="curve"/>
      <point x="1124" y="945" type="line"/>
      <point x="900" y="804"/>
      <point x="724" y="661"/>
    </contour>
  </outline>
</glyph>
<glyph name="five.mlm" format="2">
  <advance width="2746"/>
  <unicode hex="0D6B"/>
  <outline>
    <contour>
      <point x="2281" y="561" type="curve" smooth="yes"/>
      <point x="2281" y="546" type="line" smooth="yes"/>
      <point x="2281" y="363"/>
      <point x="2249" y="192"/>
      <point x="2182" y="0" type="curve"/>
      <point x="2559" y="0" type="line"/>
      <point x="2619" y="136"/>
      <point x="2654" y="345"/>
      <point x="2654" y="546" type="curve" smooth="yes"/>
      <point x="2654" y="565" type="line" smooth="yes"/>
      <point x="2654" y="1232"/>
      <point x="2221" y="1588"/>
      <point x="1385" y="1588" type="curve" smooth="yes"/>
      <point x="535" y="1588"/>
      <point x="88" y="1214"/>
      <point x="88" y="519" type="curve" smooth="yes"/>
      <point x="88" y="493" type="line" smooth="yes"/>
      <point x="88" y="-134"/>
      <point x="454" y="-465"/>
      <point x="1153" y="-465" type="curve" smooth="yes"/>
      <point x="1714" y="-465"/>
      <point x="2043" y="-271"/>
      <point x="2043" y="70" type="curve" smooth="yes"/>
      <point x="2043" y="79" type="line" smooth="yes"/>
      <point x="2043" y="269"/>
      <point x="1926" y="387"/>
      <point x="1683" y="420" type="curve"/>
      <point x="1683" y="429" type="line"/>
      <point x="1901" y="448"/>
      <point x="2005" y="546"/>
      <point x="2005" y="715" type="curve" smooth="yes"/>
      <point x="2005" y="722" type="line" smooth="yes"/>
      <point x="2005" y="968"/>
      <point x="1802" y="1098"/>
      <point x="1397" y="1098" type="curve" smooth="yes"/>
      <point x="932" y="1098"/>
      <point x="706" y="890"/>
      <point x="706" y="468" type="curve" smooth="yes"/>
      <point x="706" y="447" type="line" smooth="yes"/>
      <point x="706" y="297"/>
      <point x="741" y="139"/>
      <point x="801" y="35" type="curve"/>
      <point x="1172" y="35" type="line"/>
      <point x="1110" y="179"/>
      <point x="1081" y="303"/>
      <point x="1081" y="447" type="curve" smooth="yes"/>
      <point x="1081" y="468" type="line" smooth="yes"/>
      <point x="1081" y="693"/>
      <point x="1181" y="804"/>
      <point x="1408" y="804" type="curve" smooth="yes"/>
      <point x="1556" y="804"/>
      <point x="1624" y="761"/>
      <point x="1624" y="678" type="curve" smooth="yes"/>
      <point x="1624" y="674" type="line" smooth="yes"/>
      <point x="1624" y="611"/>
      <point x="1577" y="579"/>
      <point x="1461" y="574" type="curve" smooth="yes"/>
      <point x="1283" y="565" type="line"/>
      <point x="1283" y="283" type="line"/>
      <point x="1457" y="275" type="line" smooth="yes"/>
      <point x="1603" y="268"/>
      <point x="1663" y="214"/>
      <point x="1663" y="100" type="curve" smooth="yes"/>
      <point x="1663" y="95" type="line" smooth="yes"/>
      <point x="1663" y="-63"/>
      <point x="1494" y="-171"/>
      <point x="1151" y="-171" type="curve" smooth="yes"/>
      <point x="688" y="-171"/>
      <point x="463" y="51"/>
      <point x="463" y="498" type="curve" smooth="yes"/>
      <point x="463" y="521" type="line" smooth="yes"/>
      <point x="463" y="1031"/>
      <point x="774" y="1294"/>
      <point x="1385" y="1294" type="curve" smooth="yes"/>
      <point x="1994" y="1294"/>
      <point x="2281" y="1041"/>
    </contour>
  </outline>
</glyph>
<glyph name="six.mlm" format="2">
  <advance width="3156"/>
  <unicode hex="0D6C"/>
  <outline>
    <contour>
      <point x="2405" y="859" type="curve" smooth="yes"/>
      <point x="2587" y="859"/>
      <point x="2683" y="732"/>
      <point x="2683" y="470" type="curve" smooth="yes"/>
      <point x="2683" y="454" type="line" smooth="yes"/>
      <point x="2683" y="42"/>
      <point x="2460" y="-162"/>
      <point x="2072" y="-162" type="curve" smooth="yes"/>
      <point x="1938" y="-162"/>
      <point x="1824" y="-149"/>
      <point x="1748" y="-130" type="curve"/>
      <point x="1828" y="-415" type="line"/>
      <point x="1925" y="-443"/>
      <point x="2037" y="-449"/>
      <point x="2144" y="-449" type="curve" smooth="yes"/>
      <point x="2738" y="-449"/>
      <point x="3062" y="-123"/>
      <point x="3062" y="454" type="curve" smooth="yes"/>
      <point x="3062" y="470" type="line" smooth="yes"/>
      <point x="3062" y="947"/>
      <point x="2853" y="1184"/>
      <point x="2447" y="1184" type="curve" smooth="yes"/>
      <point x="2160" y="1184"/>
      <point x="2021" y="1045"/>
      <point x="1991" y="864" type="curve"/>
      <point x="1954" y="864" type="line"/>
      <point x="1965" y="410" type="line"/>
      <point x="2173" y="410" type="line"/>
      <point x="2173" y="598" type="line" smooth="yes"/>
      <point x="2173" y="774"/>
      <point x="2247" y="859"/>
    </contour>
    <contour>
      <point x="93" y="542" type="curve" smooth="yes"/>
      <point x="93" y="524" type="line" smooth="yes"/>
      <point x="93" y="320"/>
      <point x="147" y="127"/>
      <point x="250" y="0" type="curve"/>
      <point x="636" y="0" type="line"/>
      <point x="529" y="162"/>
      <point x="472" y="334"/>
      <point x="472" y="524" type="curve" smooth="yes"/>
      <point x="472" y="542" type="line" smooth="yes"/>
      <point x="472" y="757"/>
      <point x="559" y="859"/>
      <point x="731" y="859" type="curve" smooth="yes"/>
      <point x="889" y="859"/>
      <point x="963" y="774"/>
      <point x="963" y="598" type="curve" smooth="yes"/>
      <point x="963" y="410" type="line"/>
      <point x="1146" y="410" type="line"/>
      <point x="1145" y="864" type="line"/>
      <point x="1115" y="1045"/>
      <point x="974" y="1184"/>
      <point x="688" y="1184" type="curve" smooth="yes"/>
      <point x="300" y="1184"/>
      <point x="93" y="971"/>
    </contour>
    <contour>
      <point x="963" y="532" type="line"/>
      <point x="963" y="4" type="line"/>
      <point x="1336" y="4" type="line"/>
      <point x="1336" y="532" type="line"/>
    </contour>
    <contour>
      <point x="1568" y="859" type="curve" smooth="yes"/>
      <point x="1726" y="859"/>
      <point x="1799" y="774"/>
      <point x="1799" y="600" type="curve" smooth="yes"/>
      <point x="1799" y="410" type="line"/>
      <point x="2000" y="410" type="line"/>
      <point x="1982" y="864" type="line"/>
      <point x="1956" y="1045"/>
      <point x="1822" y="1184"/>
      <point x="1568" y="1184" type="curve" smooth="yes"/>
      <point x="1314" y="1184"/>
      <point x="1180" y="1045"/>
      <point x="1154" y="864" type="curve"/>
      <point x="1079" y="864" type="line"/>
      <point x="1111" y="410" type="line"/>
      <point x="1336" y="410" type="line"/>
      <point x="1336" y="600" type="line" smooth="yes"/>
      <point x="1336" y="774"/>
      <point x="1410" y="859"/>
    </contour>
    <contour>
      <point x="1799" y="532" type="line"/>
      <point x="1799" y="4" type="line"/>
      <point x="2173" y="4" type="line"/>
      <point x="2173" y="532" type="line"/>
    </contour>
  </outline>
</glyph>
<glyph name="nine.mlm" format="2">
  <advance width="2671"/>
  <unicode hex="0D6F"/>
  <outline>
    <contour>
      <point x="981" y="532" type="line"/>
      <point x="981" y="4" type="line"/>
      <point x="1352" y="4" type="line"/>
      <point x="1352" y="532" type="line"/>
    </contour>
    <contour>
      <point x="736" y="859" type="curve" smooth="yes"/>
      <point x="902" y="859"/>
      <point x="981" y="774"/>
      <point x="981" y="600" type="curve" smooth="yes"/>
      <point x="981" y="410" type="line"/>
      <point x="1168" y="422" type="line"/>
      <point x="1165" y="859" type="line"/>
      <point x="1139" y="1042"/>
      <point x="994" y="1184"/>
      <point x="694" y="1184" type="curve" smooth="yes"/>
      <point x="298" y="1184"/>
      <point x="93" y="971"/>
      <point x="93" y="542" type="curve" smooth="yes"/>
      <point x="93" y="524" type="line" smooth="yes"/>
      <point x="93" y="320"/>
      <point x="147" y="127"/>
      <point x="249" y="0" type="curve"/>
      <point x="634" y="0" type="line"/>
      <point x="528" y="162"/>
      <point x="472" y="334"/>
      <point x="472" y="524" type="curve" smooth="yes"/>
      <point x="472" y="542" type="line" smooth="yes"/>
      <point x="472" y="757"/>
      <point x="556" y="859"/>
    </contour>
    <contour>
      <point x="1764" y="889" type="curve" smooth="yes"/>
      <point x="1829" y="889"/>
      <point x="1901" y="880"/>
      <point x="1956" y="861" type="curve"/>
      <point x="2072" y="797" type="line"/>
      <point x="2160" y="730"/>
      <point x="2212" y="627"/>
      <point x="2212" y="477" type="curve" smooth="yes"/>
      <point x="2212" y="466" type="line" smooth="yes"/>
      <point x="2212" y="332"/>
      <point x="2168" y="255"/>
      <point x="2064" y="255" type="curve" smooth="yes"/>
      <point x="1981" y="255"/>
      <point x="1932" y="301"/>
      <point x="1932" y="396" type="curve" smooth="yes"/>
      <point x="1932" y="405" type="line" smooth="yes"/>
      <point x="1932" y="548"/>
      <point x="2006" y="650"/>
      <point x="2200" y="794" type="curve"/>
      <point x="2309" y="901" type="line"/>
      <point x="2445" y="1012"/>
      <point x="2541" y="1135"/>
      <point x="2541" y="1316" type="curve" smooth="yes"/>
      <point x="2541" y="1392"/>
      <point x="2520" y="1468"/>
      <point x="2490" y="1524" type="curve"/>
      <point x="2165" y="1524" type="line"/>
      <point x="2197" y="1455"/>
      <point x="2209" y="1393"/>
      <point x="2209" y="1324" type="curve" smooth="yes"/>
      <point x="2209" y="1211"/>
      <point x="2154" y="1128"/>
      <point x="2054" y="1045" type="curve"/>
      <point x="1945" y="945" type="line"/>
      <point x="1730" y="802"/>
      <point x="1560" y="660"/>
      <point x="1560" y="405" type="curve" smooth="yes"/>
      <point x="1560" y="384" type="line" smooth="yes"/>
      <point x="1560" y="109"/>
      <point x="1731" y="-39"/>
      <point x="2062" y="-39" type="curve" smooth="yes"/>
      <point x="2406" y="-39"/>
      <point x="2586" y="139"/>
      <point x="2586" y="466" type="curve" smooth="yes"/>
      <point x="2586" y="488" type="line" smooth="yes"/>
      <point x="2586" y="743"/>
      <point x="2476" y="913"/>
      <point x="2318" y="1024" type="curve"/>
      <point x="2200" y="1091" type="line"/>
      <point x="2072" y="1153"/>
      <point x="1927" y="1184"/>
      <point x="1769" y="1184" type="curve" smooth="yes"/>
      <point x="1408" y="1184"/>
      <point x="1224" y="1042"/>
      <point x="1173" y="859" type="curve"/>
      <point x="1137" y="859" type="line"/>
      <point x="1123" y="484" type="line"/>
      <point x="1352" y="484" type="line"/>
      <point x="1352" y="551" type="line" smooth="yes"/>
      <point x="1352" y="775"/>
      <point x="1496" y="889"/>
    </contour>
  </outline>
</glyph>
<glyph name="ten.mlm" format="2">
  <advance width="2370"/>
  <unicode hex="0D70"/>
  <outline>
    <contour>
      <point x="869" y="-40" type="curve" smooth="yes"/>
      <point x="1097" y="-40"/>
      <point x="1205" y="101"/>
      <point x="1230" y="275" type="curve"/>
      <point x="1303" y="275" type="line"/>
      <point x="1303" y="706" type="line"/>
      <point x="1047" y="718" type="line"/>
      <point x="1047" y="526" type="line" smooth="yes"/>
      <point x="1047" y="366"/>
      <point x="975" y="287"/>
      <point x="826" y="287" type="curve" smooth="yes"/>
      <point x="677" y="287"/>
      <point x="605" y="366"/>
      <point x="605" y="526" type="curve" smooth="yes"/>
      <point x="605" y="718" type="line"/>
      <point x="350" y="706" type="line"/>
      <point x="352" y="162" type="line"/>
      <point x="578" y="162" type="line"/>
      <point x="601" y="49"/>
      <point x="690" y="-40"/>
    </contour>
    <contour>
      <point x="1421" y="614" type="line"/>
      <point x="1421" y="1119" type="line"/>
      <point x="1047" y="1119" type="line"/>
      <point x="1047" y="604" type="line"/>
    </contour>
    <contour>
      <point x="232" y="180" type="line" smooth="yes"/>
      <point x="232" y="-36"/>
      <point x="141" y="-104"/>
      <point x="-44" y="-104" type="curve" smooth="yes"/>
      <point x="-118" y="-104"/>
      <point x="-195" y="-93"/>
      <point x="-246" y="-77" type="curve"/>
      <point x="-167" y="-368" type="line"/>
      <point x="-105" y="-391"/>
      <point x="-36" y="-396"/>
      <point x="26" y="-396" type="curve" smooth="yes"/>
      <point x="382" y="-396"/>
      <point x="569" y="-224"/>
      <point x="569" y="158" type="curve" smooth="yes"/>
      <point x="569" y="231" type="line"/>
      <point x="605" y="282" type="line"/>
      <point x="605" y="1137" type="line"/>
      <point x="232" y="1137" type="line"/>
    </contour>
    <contour>
      <point x="1239" y="275" type="line"/>
      <point x="1269" y="99"/>
      <point x="1410" y="-40"/>
      <point x="1698" y="-40" type="curve" smooth="yes"/>
      <point x="2077" y="-40"/>
      <point x="2276" y="167"/>
      <point x="2276" y="588" type="curve" smooth="yes"/>
      <point x="2276" y="605" type="line" smooth="yes"/>
      <point x="2276" y="809"/>
      <point x="2213" y="1004"/>
      <point x="2092" y="1132" type="curve"/>
      <point x="1715" y="1132" type="line"/>
      <point x="1834" y="974"/>
      <point x="1897" y="801"/>
      <point x="1897" y="614" type="curve" smooth="yes"/>
      <point x="1897" y="597" type="line" smooth="yes"/>
      <point x="1897" y="388"/>
      <point x="1814" y="287"/>
      <point x="1648" y="287" type="curve" smooth="yes"/>
      <point x="1497" y="287"/>
      <point x="1421" y="372"/>
      <point x="1421" y="544" type="curve" smooth="yes"/>
      <point x="1421" y="723" type="line"/>
      <point x="1238" y="723" type="line"/>
    </contour>
  </outline>
</glyph>
<glyph name="onethousand.mlm" format="2">
  <advance width="3569"/>
  <unicode hex="0D72"/>
  <outline>
    <component base="date.mlm"/>
    <contour>
      <point x="2967" y="723" type="line"/>
      <point x="2967" y="783" type="line" smooth="yes"/>
      <point x="2967" y="864"/>
      <point x="3004" y="896"/>
      <point x="3083" y="896" type="curve" smooth="yes"/>
      <point x="3152" y="896"/>
      <point x="3187" y="867"/>
      <point x="3187" y="818" type="curve" smooth="yes"/>
      <point x="3187" y="811" type="line" smooth="yes"/>
      <point x="3187" y="762"/>
      <point x="3148" y="736"/>
      <point x="3078" y="736" type="curve" smooth="yes"/>
      <point x="2384" y="736" type="line"/>
      <point x="2340" y="463" type="line"/>
      <point x="3123" y="463" type="line" smooth="yes"/>
      <point x="3396" y="463"/>
      <point x="3551" y="581"/>
      <point x="3551" y="808" type="curve" smooth="yes"/>
      <point x="3551" y="817" type="line" smooth="yes"/>
      <point x="3551" y="1056"/>
      <point x="3390" y="1181"/>
      <point x="3094" y="1181" type="curve" smooth="yes"/>
      <point x="2790" y="1181"/>
      <point x="2638" y="1051"/>
      <point x="2638" y="808" type="curve" smooth="yes"/>
      <point x="2638" y="695" type="line"/>
    </contour>
  </outline>
</glyph>
<glyph name="threequarters.mlm" format="2">
  <advance width="3007"/>
  <unicode hex="0D75"/>
  <outline>
    <contour>
      <point x="879" y="1184" type="curve" smooth="yes"/>
      <point x="349" y="1184"/>
      <point x="85" y="942"/>
      <point x="85" y="498" type="curve" smooth="yes"/>
      <point x="85" y="477" type="line" smooth="yes"/>
      <point x="85" y="143"/>
      <point x="270" y="-39"/>
      <point x="624" y="-39" type="curve" smooth="yes"/>
      <point x="960" y="-39"/>
      <point x="1134" y="97"/>
      <point x="1134" y="361" type="curve" smooth="yes"/>
      <point x="1134" y="370" type="line" smooth="yes"/>
      <point x="1134" y="609"/>
      <point x="1004" y="734"/>
      <point x="789" y="734" type="curve" smooth="yes"/>
      <point x="597" y="734"/>
      <point x="480" y="650"/>
      <point x="443" y="488" type="curve"/>
      <point x="455" y="385" type="line"/>
      <point x="487" y="429"/>
      <point x="547" y="454"/>
      <point x="624" y="454" type="curve" smooth="yes"/>
      <point x="721" y="454"/>
      <point x="770" y="421"/>
      <point x="770" y="356" type="curve" smooth="yes"/>
      <point x="770" y="348" type="line" smooth="yes"/>
      <point x="770" y="283"/>
      <point x="717" y="245"/>
      <point x="624" y="245" type="curve" smooth="yes"/>
      <point x="513" y="245"/>
      <point x="457" y="296"/>
      <point x="457" y="398" type="curve" smooth="yes"/>
      <point x="457" y="414" type="line"/>
      <point x="456" y="500" type="line"/>
      <point x="436" y="500" type="line"/>
      <point x="436" y="505" type="line" smooth="yes"/>
      <point x="436" y="765"/>
      <point x="597" y="884"/>
      <point x="886" y="884" type="curve" smooth="yes"/>
      <point x="1168" y="884"/>
      <point x="1317" y="770"/>
      <point x="1317" y="539" type="curve" smooth="yes"/>
      <point x="1317" y="493" type="line"/>
      <point x="1501" y="493" type="line"/>
      <point x="1500" y="857" type="line"/>
      <point x="1449" y="1044"/>
      <point x="1257" y="1184"/>
    </contour>
    <contour>
      <point x="1317" y="4" type="line"/>
      <point x="1689" y="4" type="line"/>
      <point x="1689" y="523" type="line"/>
      <point x="1317" y="519" type="line"/>
    </contour>
    <contour>
      <point x="2101" y="889" type="curve" smooth="yes"/>
      <point x="2156" y="889"/>
      <point x="2197" y="886"/>
      <point x="2243" y="876" type="curve"/>
      <point x="2328" y="847" type="line" smooth="yes"/>
      <point x="2474" y="797"/>
      <point x="2548" y="664"/>
      <point x="2548" y="468" type="curve" smooth="yes"/>
      <point x="2548" y="458" type="line" smooth="yes"/>
      <point x="2548" y="323"/>
      <point x="2503" y="257"/>
      <point x="2409" y="257" type="curve" smooth="yes"/>
      <point x="2316" y="257"/>
      <point x="2271" y="315"/>
      <point x="2271" y="433" type="curve" smooth="yes"/>
      <point x="2271" y="442" type="line" smooth="yes"/>
      <point x="2271" y="594"/>
      <point x="2323" y="742"/>
      <point x="2410" y="882" type="curve"/>
      <point x="2417" y="907"/>
      <point x="2463" y="1027"/>
      <point x="2470" y="1052" type="curve"/>
      <point x="2507" y="1136"/>
      <point x="2524" y="1209"/>
      <point x="2524" y="1283" type="curve" smooth="yes"/>
      <point x="2524" y="1379"/>
      <point x="2504" y="1464"/>
      <point x="2462" y="1533" type="curve"/>
      <point x="2134" y="1533" type="line"/>
      <point x="2174" y="1454"/>
      <point x="2192" y="1370"/>
      <point x="2192" y="1280" type="curve" smooth="yes"/>
      <point x="2192" y="1214"/>
      <point x="2179" y="1156"/>
      <point x="2155" y="1096" type="curve"/>
      <point x="2148" y="1071"/>
      <point x="2108" y="973"/>
      <point x="2100" y="945" type="curve"/>
      <point x="1985" y="792"/>
      <point x="1898" y="633"/>
      <point x="1898" y="438" type="curve" smooth="yes"/>
      <point x="1898" y="426" type="line" smooth="yes"/>
      <point x="1898" y="125"/>
      <point x="2071" y="-39"/>
      <point x="2405" y="-39" type="curve" smooth="yes"/>
      <point x="2744" y="-39"/>
      <point x="2922" y="136"/>
      <point x="2922" y="458" type="curve" smooth="yes"/>
      <point x="2922" y="479" type="line" smooth="yes"/>
      <point x="2922" y="836"/>
      <point x="2738" y="1082"/>
      <point x="2368" y="1153" type="curve" smooth="yes"/>
      <point x="2243" y="1177" type="line"/>
      <point x="2201" y="1181"/>
      <point x="2152" y="1184"/>
      <point x="2106" y="1184" type="curve" smooth="yes"/>
      <point x="1742" y="1184"/>
      <point x="1560" y="1045"/>
      <point x="1509" y="857" type="curve"/>
      <point x="1457" y="857" type="line"/>
      <point x="1471" y="493" type="line"/>
      <point x="1689" y="431" type="line"/>
      <point x="1689" y="539" type="line" smooth="yes"/>
      <point x="1689" y="771"/>
      <point x="1832" y="889"/>
    </contour>
  </outline>
</glyph>
<glyph name="oneeighth.mlm" format="2">
  <advance width="4535"/>
  <unicode hex="0D77"/>
  <outline>
    <contour>
      <point x="650" y="785" type="curve" smooth="yes"/>
      <point x="279" y="785"/>
      <point x="83" y="625"/>
      <point x="83" y="294" type="curve" smooth="yes"/>
      <point x="83" y="282" type="line" smooth="yes"/>
      <point x="83" y="171"/>
      <point x="107" y="67"/>
      <point x="151" y="0" type="curve"/>
      <point x="521" y="0" type="line"/>
      <point x="479" y="79"/>
      <point x="452" y="160"/>
      <point x="452" y="253" type="curve" smooth="yes"/>
      <point x="452" y="264" type="line" smooth="yes"/>
      <point x="452" y="405"/>
      <point x="513" y="473"/>
      <point x="650" y="473" type="curve" smooth="yes"/>
      <point x="787" y="473"/>
      <point x="847" y="405"/>
      <point x="847" y="264" type="curve" smooth="yes"/>
      <point x="847" y="253" type="line" smooth="yes"/>
      <point x="847" y="172"/>
      <point x="822" y="96"/>
      <point x="778" y="19" type="curve"/>
      <point x="778" y="0" type="line"/>
      <point x="993" y="0" type="line"/>
      <point x="1141" y="95"/>
      <point x="1220" y="248"/>
      <point x="1220" y="359" type="curve" smooth="yes"/>
      <point x="1220" y="371" type="line" smooth="yes"/>
      <point x="1220" y="649"/>
      <point x="1024" y="785"/>
    </contour>
    <contour>
      <point x="2389" y="532" type="line"/>
      <point x="2389" y="268" type="line"/>
      <point x="2760" y="268" type="line"/>
      <point x="2760" y="496" type="line"/>
    </contour>
    <contour>
      <point x="3183" y="1184" type="curve" smooth="yes"/>
      <point x="2820" y="1184"/>
      <point x="2640" y="1042"/>
      <point x="2589" y="859" type="curve"/>
      <point x="2546" y="859" type="line"/>
      <point x="2549" y="484" type="line"/>
      <point x="2760" y="466" type="line"/>
      <point x="2760" y="516" type="line" smooth="yes"/>
      <point x="2760" y="762"/>
      <point x="2905" y="885"/>
      <point x="3181" y="885" type="curve" smooth="yes"/>
      <point x="3459" y="885"/>
      <point x="3614" y="777"/>
      <point x="3614" y="539" type="curve" smooth="yes"/>
      <point x="3614" y="500" type="line" smooth="yes"/>
      <point x="3614" y="372"/>
      <point x="3603" y="246"/>
      <point x="3438" y="246" type="curve" smooth="yes"/>
      <point x="3354" y="246"/>
      <point x="3311" y="289"/>
      <point x="3311" y="354" type="curve" smooth="yes"/>
      <point x="3311" y="361" type="line" smooth="yes"/>
      <point x="3311" y="426"/>
      <point x="3359" y="463"/>
      <point x="3443" y="463" type="curve" smooth="yes"/>
      <point x="3739" y="463" type="line"/>
      <point x="3783" y="736" type="line"/>
      <point x="3398" y="736" type="line" smooth="yes"/>
      <point x="3111" y="736"/>
      <point x="2947" y="607"/>
      <point x="2947" y="364" type="curve" smooth="yes"/>
      <point x="2947" y="356" type="line" smooth="yes"/>
      <point x="2947" y="97"/>
      <point x="3117" y="-39"/>
      <point x="3427" y="-39" type="curve" smooth="yes"/>
      <point x="3790" y="-39"/>
      <point x="3968" y="150"/>
      <point x="3968" y="495" type="curve" smooth="yes"/>
      <point x="3968" y="533" type="line" smooth="yes"/>
      <point x="3968" y="955"/>
      <point x="3704" y="1184"/>
    </contour>
    <contour>
      <point x="1516" y="571" type="curve" smooth="yes"/>
      <point x="1516" y="553" type="line" smooth="yes"/>
      <point x="1516" y="336.908"/>
      <point x="1599.93" y="133.584"/>
      <point x="1766" y="0" type="curve"/>
      <point x="2049" y="0" type="line"/>
      <point x="2049" y="19" type="line"/>
      <point x="1948" y="176"/>
      <point x="1896" y="341"/>
      <point x="1896" y="524" type="curve" smooth="yes"/>
      <point x="1896" y="542" type="line" smooth="yes"/>
      <point x="1896" y="757"/>
      <point x="1982" y="859"/>
      <point x="2157" y="859" type="curve" smooth="yes"/>
      <point x="2315" y="859"/>
      <point x="2389" y="774"/>
      <point x="2389" y="598" type="curve" smooth="yes"/>
      <point x="2389" y="410" type="line"/>
      <point x="2651" y="422" type="line"/>
      <point x="2580" y="859" type="line" smooth="yes"/>
      <point x="2550" y="1044"/>
      <point x="2408" y="1184"/>
      <point x="2114" y="1184" type="curve" smooth="yes"/>
      <point x="1721" y="1184"/>
      <point x="1516" y="982.716"/>
    </contour>
    <contour>
      <point x="965" y="287" type="line"/>
      <point x="792" y="0" type="line"/>
      <point x="2049" y="0" type="line"/>
      <point x="1750" y="287" type="line"/>
    </contour>
    <contour>
      <point x="4469" y="1021" type="curve"/>
      <point x="4147" y="1021" type="line"/>
      <point x="4147" y="882" type="line" smooth="yes"/>
      <point x="4147" y="785"/>
      <point x="4107" y="736"/>
      <point x="4008" y="736" type="curve" smooth="yes"/>
      <point x="3846" y="736" type="line"/>
      <point x="3802" y="463" type="line"/>
      <point x="4091" y="463" type="line" smooth="yes"/>
      <point x="4346" y="463"/>
      <point x="4490" y="586"/>
      <point x="4490" y="836" type="curve" smooth="yes"/>
      <point x="4490" y="894"/>
      <point x="4483" y="951"/>
    </contour>
  </outline>
</glyph>
